<svg width="194" height="185" viewBox="0 0 194 185" fill="none" xmlns="http://www.w3.org/2000/svg">
<g clip-path="url(#clip0_1236_1645)">
<path opacity="0.6" d="M143.1 62.3002C155.14 62.3002 164.9 52.54 164.9 40.5002C164.9 28.4604 155.14 18.7002 143.1 18.7002C131.06 18.7002 121.3 28.4604 121.3 40.5002C121.3 52.54 131.06 62.3002 143.1 62.3002Z" fill="#E03E10"/>
<path opacity="0.6" d="M96.3004 184.5C136.838 184.5 169.7 177.203 169.7 168.2C169.7 159.198 136.838 151.9 96.3004 151.9C55.7627 151.9 22.9004 159.198 22.9004 168.2C22.9004 177.203 55.7627 184.5 96.3004 184.5Z" fill="#212B38"/>
<path opacity="0.6" d="M97.6004 113.2C89.5004 113.2 82.9004 106.6 82.9004 98.5C93.0004 101.9 102.9 101.9 112.4 98.5C112.4 106.6 105.8 113.2 97.6004 113.2Z" fill="#212B38"/>
<path opacity="0.6" d="M187.1 139.4C188.536 139.4 189.7 138.236 189.7 136.8C189.7 135.364 188.536 134.2 187.1 134.2C185.664 134.2 184.5 135.364 184.5 136.8C184.5 138.236 185.664 139.4 187.1 139.4Z" fill="#DF3200"/>
<path opacity="0.6" d="M97.6 13.5C92.3 13.5 88 17.8 88 23.1V30.5H107.2V23.1C107.2 17.8 102.9 13.5 97.6 13.5Z" fill="#212B38"/>
<path d="M102.8 78.2C102.8 67.6 116.9 67.6 116.9 78.2" stroke="#77839D" stroke-width="4" stroke-miterlimit="10" stroke-linecap="round" stroke-linejoin="round"/>
<path d="M78.0996 149.1C78.9996 156.3 85.0996 161.8 92.4996 161.8C99.8996 161.8 106 156.2 107 149.1H78.0996Z" stroke="#77839D" stroke-width="4" stroke-miterlimit="10"/>
<path d="M92.4998 112.8C84.3998 112.8 77.7998 106.2 77.7998 98.1001C87.8998 101.5 97.7998 101.5 107.3 98.1001C107.3 106.2 100.7 112.8 92.4998 112.8Z" stroke="#77839D" stroke-width="4" stroke-miterlimit="10" stroke-linecap="round" stroke-linejoin="round"/>
<path d="M147.9 136.9C146.1 132.4 141.7 129.3 141.4 118.6V88.4999C141.4 79.4999 140.3 71.0999 138 63.5999C137.8 63.5999 137.7 63.5999 137.5 63.5999C125 63.5999 114.9 53.4999 114.9 40.9999C114.9 38.8999 115.2 36.8999 115.7 34.8999C109.4 31.6999 102 29.8999 93.3003 29.8999C60.8003 29.8999 45.2003 54.8999 45.2003 88.4999V118.6C44.9003 129.3 40.5003 132.4 38.7003 136.9L36.0003 143.6C35.3003 145.3 36.5003 147.2 38.3003 147.2H93.4003H148.5C150.1 147.2 151.3 145.3 150.6 143.6L147.9 136.9Z" stroke="#77839D" stroke-width="4" stroke-miterlimit="10"/>
<path d="M92.6 13.5C87.3 13.5 83 17.8 83 23.1V30.5H102.2V23.1C102.2 17.8 97.9 13.5 92.6 13.5Z" stroke="#77839D" stroke-width="3" stroke-miterlimit="10" stroke-linecap="round" stroke-linejoin="round"/>
<path d="M137.5 63.5999C149.982 63.5999 160.1 53.4815 160.1 40.9999C160.1 28.5182 149.982 18.3999 137.5 18.3999C125.018 18.3999 114.9 28.5182 114.9 40.9999C114.9 53.4815 125.018 63.5999 137.5 63.5999Z" stroke="#E03E10" stroke-width="4" stroke-miterlimit="10"/>
<path d="M139.7 53.1C143.953 53.1 147.4 47.817 147.4 41.3C147.4 34.7831 143.953 29.5 139.7 29.5C135.447 29.5 132 34.7831 132 41.3C132 47.817 135.447 53.1 139.7 53.1Z" stroke="#BBBBBB" stroke-width="4" stroke-miterlimit="10"/>
<path d="M70.0996 78.2C70.0996 67.6 84.1996 67.6 84.1996 78.2" stroke="#77839D" stroke-width="4" stroke-miterlimit="10" stroke-linecap="round" stroke-linejoin="round"/>
<path d="M187.1 141.8C190.027 141.8 192.4 139.427 192.4 136.5C192.4 133.573 190.027 131.2 187.1 131.2C184.173 131.2 181.8 133.573 181.8 136.5C181.8 139.427 184.173 141.8 187.1 141.8Z" stroke="#E03E10" stroke-width="3" stroke-miterlimit="10"/>
<path d="M181.7 46.5V59.3" stroke="#E03E10" stroke-width="3" stroke-miterlimit="10" stroke-linecap="round" stroke-linejoin="round"/>
<path d="M188.1 53.6001H175.3" stroke="#E03E10" stroke-width="3" stroke-miterlimit="10" stroke-linecap="round" stroke-linejoin="round"/>
<path d="M23.7998 2.5V25.4" stroke="#E03E10" stroke-width="3" stroke-miterlimit="10" stroke-linecap="round" stroke-linejoin="round"/>
<path d="M35.1998 15.2002H12.2998" stroke="#E03E10" stroke-width="3" stroke-miterlimit="10" stroke-linecap="round" stroke-linejoin="round"/>
<path d="M2 96.2999L13.6 90.3999" stroke="#E03E10" stroke-width="3" stroke-miterlimit="10" stroke-linecap="round" stroke-linejoin="round"/>
<path d="M9.2002 111.9L13.6002 90.3999" stroke="#E03E10" stroke-width="3" stroke-miterlimit="10" stroke-linecap="round" stroke-linejoin="round"/>
<path d="M21.0002 105.5L9.2002 111.9" stroke="#E03E10" stroke-width="3" stroke-miterlimit="10" stroke-linecap="round" stroke-linejoin="round"/>
</g>
<defs>
<clipPath id="clip0_1236_1645">
<rect width="194" height="184" fill="white" transform="translate(0 0.5)"/>
</clipPath>
</defs>
</svg>
