<svg width="103" height="91" viewBox="0 0 103 91" fill="none" xmlns="http://www.w3.org/2000/svg">
<path d="M96.903 34.6731L80.6466 25.2177V12.1682C80.6466 2.87883 70.6936 -2.92705 62.7036 1.71765L51.5066 8.24236L40.1713 1.63471C32.2089 -3.00999 22.2282 2.79589 22.2282 12.0853V25.3006L5.97177 34.756C-1.99059 39.4007 -1.99059 50.9848 5.97177 55.6296L22.2282 65.0848V78.1343C22.2282 87.4237 32.1813 93.2296 40.1713 88.5848L51.3683 82.0601L62.7036 88.6675C70.666 93.3122 80.6466 87.5066 80.6466 78.2172V65.0019L96.903 55.5466C104.865 50.9296 104.865 39.3178 96.903 34.6731ZM90.7654 55.3254L74.9513 64.5319V61.0207C74.9513 58.1178 77.4671 55.8507 80.3148 56.1825C80.923 56.2654 81.5313 56.2931 82.1671 56.2654C87.9454 56.0166 92.6454 51.3166 92.9495 45.4831C93.2536 39.0137 88.2219 33.6778 81.8907 33.5672C75.5872 33.4566 70.4448 38.7096 70.4448 45.096V67.1584L44.8713 82.0325C36.9089 86.6772 26.9282 80.8713 26.9282 71.5819V18.1677C26.9282 8.87824 36.8813 3.07236 44.8713 7.71707L58.833 15.8177V25.909C58.833 30.526 54.8519 34.1754 50.2901 33.5949C49.3224 33.4843 48.3272 33.429 47.3319 33.4843C38.1254 33.8713 30.633 41.3637 30.1907 50.6254C29.693 60.9101 37.7383 69.4531 47.8019 69.619C57.8654 69.7848 66.0489 61.4078 66.0489 51.289V20.02L90.8207 34.4519C98.7554 39.069 98.7554 50.6807 90.7654 55.3254ZM87.0054 38.1843C87.8348 37.7696 89.2448 38.9031 90.1848 40.7554C91.1248 42.6078 91.2354 44.4601 90.4336 44.8749C89.6042 45.2896 88.1942 44.156 87.2542 42.3037C86.3142 40.4513 86.2036 38.6266 87.0054 38.1843ZM38.9271 62.7072C37.5448 63.426 35.1119 61.4631 33.5083 58.339C31.9048 55.2148 31.7113 52.0907 33.0936 51.3443C34.476 50.6254 36.9089 52.5884 38.5124 55.7125C40.1436 58.8643 40.3371 62.016 38.9271 62.7072Z" fill="#E03F13"/>
</svg>
