<svg width="11" height="11" viewBox="0 0 11 11" fill="none" xmlns="http://www.w3.org/2000/svg">
<path d="M5.02131 0.586575C5.16435 0.112475 5.83565 0.112474 5.97869 0.586574L6.85206 3.48131C6.91576 3.69242 7.11023 3.83688 7.33075 3.83688H10.2314C10.7068 3.83688 10.9139 4.43775 10.5395 4.73067L8.13063 6.61547C7.96823 6.74254 7.9005 6.95627 7.96006 7.15369L8.86491 10.1527C9.00588 10.62 8.46249 10.9917 8.07811 10.691L5.80811 8.91484C5.62711 8.77322 5.37289 8.77322 5.19189 8.91484L2.92189 10.691C2.53751 10.9917 1.99412 10.62 2.13509 10.1527L3.03994 7.15369C3.0995 6.95627 3.03177 6.74254 2.86937 6.61547L0.460454 4.73067C0.086081 4.43775 0.293214 3.83688 0.768564 3.83688H3.66925C3.88977 3.83688 4.08424 3.69242 4.14794 3.48131L5.02131 0.586575Z" fill="#F1B43C"/>
</svg>
