<svg width="25" height="25" viewBox="0 0 25 25" fill="none" xmlns="http://www.w3.org/2000/svg">
<g clip-path="url(#clip0_1231_1824)">
<path d="M23.0263 0H1.97368C0.883649 0 0 0.883649 0 1.97368V23.0263C0 24.1164 0.883649 25 1.97368 25H23.0263C24.1164 25 25 24.1164 25 23.0263V1.97368C25 0.883649 24.1164 0 23.0263 0Z" fill="#03A9F4"/>
<path d="M20.5973 7.47868C19.9883 7.74467 19.344 7.92139 18.6845 8.00335C19.3798 7.59107 19.8995 6.93791 20.145 6.16782C19.4943 6.55407 18.7823 6.82609 18.0398 6.9721C17.5848 6.4855 16.9939 6.14709 16.344 6.00086C15.694 5.85464 15.0151 5.90738 14.3956 6.15222C13.776 6.39706 13.2445 6.82267 12.8701 7.3737C12.4957 7.92472 12.2958 8.57566 12.2964 9.24184C12.294 9.49611 12.32 9.74986 12.3737 9.99842C11.0529 9.93354 9.76067 9.59077 8.58139 8.99249C7.40211 8.3942 6.36232 7.55387 5.52991 6.52638C5.10205 7.25731 4.9695 8.12406 5.15934 8.94946C5.34918 9.77487 5.84709 10.4966 6.5513 10.9672C6.02568 10.953 5.51119 10.8125 5.0513 10.5576V10.5938C5.05277 11.36 5.31797 12.1023 5.8023 12.6959C6.28663 13.2896 6.96057 13.6984 7.71083 13.8537C7.42691 13.9283 7.13432 13.9648 6.84077 13.9622C6.6294 13.9661 6.41821 13.9474 6.21083 13.9063C6.42578 14.5652 6.8396 15.1414 7.39538 15.5555C7.95115 15.9696 8.62158 16.2013 9.31445 16.2188C8.14031 17.1366 6.69286 17.6351 5.20261 17.6349C4.93708 17.6372 4.67169 17.6218 4.4082 17.5889C5.92773 18.5686 7.69893 19.0862 9.50689 19.079C15.6171 19.079 18.9575 14.0182 18.9575 9.63164C18.9575 9.48526 18.9575 9.34381 18.946 9.20236C19.5966 8.73285 20.1562 8.14876 20.5973 7.47868V7.47868Z" fill="white"/>
</g>
<defs>
<clipPath id="clip0_1231_1824">
<rect width="25" height="25" fill="white"/>
</clipPath>
</defs>
</svg>
