<svg width="25" height="25" viewBox="0 0 25 25" fill="none" xmlns="http://www.w3.org/2000/svg">
<g clip-path="url(#clip0_1231_1820)">
<path d="M0 11.9792C0 6.33213 0 3.50859 1.7543 1.7543C3.50859 0 6.33213 0 11.9792 0H13.0208C18.6678 0 21.4914 0 23.2457 1.7543C25 3.50859 25 6.33213 25 11.9792V13.0208C25 18.6678 25 21.4914 23.2457 23.2457C21.4914 25 18.6679 25 13.0208 25H11.9792C6.33218 25 3.50864 25 1.75435 23.2457C0 21.4914 0 18.6679 0 13.0208L0 11.9792Z" fill="#2787F5"/>
<path fill-rule="evenodd" clip-rule="evenodd" d="M6.77173 7.8125H4.94839C4.42744 7.8125 4.32324 8.05771 4.32324 8.32803C4.32324 8.81089 4.94141 11.2056 7.20147 14.3729C8.7082 16.5358 10.831 17.7083 12.7627 17.7083C13.9217 17.7083 14.0651 17.4479 14.0651 16.9993V15.3645C14.0651 14.8437 14.1749 14.7397 14.5418 14.7397C14.8123 14.7397 15.2759 14.875 16.3577 15.9178C17.5939 17.1538 17.7978 17.7083 18.4931 17.7083H20.3165C20.8375 17.7083 21.0979 17.4479 20.9477 16.934C20.7832 16.4218 20.193 15.6786 19.4097 14.7978C18.9847 14.2956 18.3473 13.7549 18.1541 13.4845C17.8837 13.1369 17.9609 12.9823 18.1541 12.6734C18.1541 12.6734 20.3756 9.54473 20.6074 8.48262C20.7232 8.09634 20.6074 7.8125 20.056 7.8125H18.2326C17.769 7.8125 17.5553 8.05771 17.4394 8.32803C17.4394 8.32803 16.5122 10.5876 15.1986 12.0554C14.7736 12.4802 14.5805 12.6154 14.3486 12.6154C14.2328 12.6154 14.065 12.4802 14.065 12.094V8.48262C14.065 8.01909 13.9305 7.8125 13.544 7.8125H10.6788C10.3891 7.8125 10.2148 8.02759 10.2148 8.23149C10.2148 8.67085 10.8716 8.77222 10.9393 10.0082V12.6927C10.9393 13.2812 10.833 13.3879 10.6012 13.3879C9.98306 13.3879 8.47944 11.1183 7.5877 8.52114C7.41304 8.01641 7.23774 7.8125 6.77173 7.8125Z" fill="white"/>
</g>
<defs>
<clipPath id="clip0_1231_1820">
<rect width="25" height="25" fill="white"/>
</clipPath>
</defs>
</svg>
