<?xml version="1.0" encoding="utf-8"?>
<!-- Generator: Adobe Illustrator 26.3.1, SVG Export Plug-In . SVG Version: 6.00 Build 0)  -->
<svg version="1.1" id="Шар_1" xmlns="http://www.w3.org/2000/svg" xmlns:xlink="http://www.w3.org/1999/xlink" x="0px" y="0px"
	 viewBox="0 0 1920 1080" style="enable-background:new 0 0 1920 1080;" xml:space="preserve">
<style type="text/css">
	.st0{fill:#3C56D6;}
	.st1{fill:#E03E10;}
</style>
<g>
	<path class="st0" d="M1144.1,344.48l26.54-111.9l44.28,78.01l44.44-78.01l26.54,111.9h-22.22l-14.55-62.98l-34.21,62.98
		l-34.05-62.98l-14.55,62.98H1144.1z"/>
	<path class="st0" d="M1290.92,269.11L1290.92,269.11c11.48,0,20.78,8.69,20.78,19.41v18.06c0,1.99,0.48,4.18,1.44,6.57
		c0.96,2.39,2.45,4.68,4.48,6.87c2.02,2.19,4.64,4.01,7.83,5.45c3.2,1.44,7.09,2.17,11.67,2.17c4.69,0,8.63-0.75,11.83-2.24
		s5.78-3.38,7.75-5.67c1.97-2.29,3.41-4.63,4.32-7.02c0.9-2.39,1.36-4.43,1.36-6.12v-18.06c0-10.72,9.3-19.41,20.78-19.41h0v37.47
		c0,5.18-1.2,10.08-3.6,14.71c-2.4,4.63-5.7,8.66-9.91,12.09c-4.21,3.43-9.09,6.15-14.63,8.14c-5.54,1.99-11.51,2.99-17.9,2.99
		c-6.39,0-12.36-0.99-17.9-2.99c-5.54-1.99-10.45-4.7-14.71-8.14c-4.26-3.43-7.59-7.47-9.99-12.09c-2.4-4.63-3.6-9.53-3.6-14.71
		V269.11z"/>
	<path class="st0" d="M1396.38,319.87h6.92c6.55,0,12.91,2.08,18.01,5.92c0.94,0.71,2.01,1.37,3.21,1.99
		c4.05,2.09,9.43,3.14,16.15,3.14c4.16,0,8.04-0.4,11.67-1.19c3.62-0.8,6.53-2.04,8.71-3.73c2.18-1.69,3.28-3.93,3.28-6.72
		c0-2.09-1.04-3.58-3.12-4.48c-2.08-0.9-4.77-1.44-8.07-1.64c-3.3-0.2-6.77-0.3-10.39-0.3h-16.62c-4.58,0-9.17-0.65-13.75-1.94
		c-4.58-1.29-8.39-3.36-11.43-6.2s-4.56-6.54-4.56-11.12c0-4.58,1.36-8.46,4.08-11.65c2.72-3.18,6.26-5.75,10.63-7.69
		c4.37-1.94,9.08-3.36,14.15-4.26c5.06-0.9,9.94-1.34,14.63-1.34c4.16,0,8.61,0.4,13.35,1.19c4.74,0.8,9.27,2.12,13.59,3.96
		c4.32,1.84,7.91,4.25,10.79,7.24c2.88,2.99,4.53,6.67,4.96,11.05c0,0.5,0.05,0.9,0.16,1.19h-5.84c-6.68,0-13.03-2.31-18.31-6.15
		c-0.02-0.02-0.05-0.03-0.07-0.05c-2.29-1.64-5.06-2.89-8.31-3.73c-3.25-0.84-6.58-1.27-9.99-1.27c-3.41,0-6.93,0.32-10.55,0.97
		c-3.62,0.65-6.69,1.77-9.19,3.36c-2.51,1.59-3.76,3.83-3.76,6.72c0,2.19,0.93,3.76,2.8,4.7c1.86,0.95,4.26,1.52,7.19,1.72
		c2.93,0.2,5.94,0.3,9.03,0.3h17.11c3.41,0,6.98,0.25,10.71,0.75c3.73,0.5,7.22,1.39,10.47,2.69c3.25,1.29,5.89,3.16,7.91,5.6
		c2.02,2.44,3.04,5.55,3.04,9.33c0,4.98-1.28,9.18-3.84,12.62c-2.56,3.43-5.99,6.2-10.31,8.29s-9.17,3.58-14.55,4.48
		c-5.38,0.9-10.85,1.34-16.39,1.34c-4.05,0-8.55-0.37-13.51-1.12c-4.96-0.75-9.3-2.01-13.03-3.81c-2.35-1.09-4.82-2.66-7.43-4.7
		c-2.61-2.04-4.85-4.3-6.71-6.79c-1.87-2.49-2.8-4.98-2.8-7.47V319.87z"/>
	<path class="st0" d="M1498.57,344.51v-64.36c0-6.09,4.94-11.03,11.03-11.03l0,0c6.09,0,11.03,4.94,11.03,11.03v64.36H1498.57z
		 M1509.44,259.56c-2.98,0-5.49-0.92-7.51-2.76c-2.03-1.84-3.04-4.15-3.04-6.94c0-2.79,1.01-5.13,3.04-7.02
		c2.02-1.89,4.53-2.84,7.51-2.84c2.98,0,5.49,0.95,7.51,2.84c2.02,1.89,3.04,4.23,3.04,7.02c0,2.69-1.01,4.98-3.04,6.87
		C1514.93,258.61,1512.42,259.56,1509.44,259.56z"/>
	<path class="st0" d="M1533.78,306.74c0-5.27,1.2-10.18,3.6-14.71c2.4-4.53,5.7-8.53,9.91-12.02c4.21-3.48,9.08-6.2,14.63-8.14
		c5.54-1.94,11.51-2.91,17.9-2.91c6.39,0,12.47,1.04,18.22,3.14c5.75,2.09,10.82,5,15.19,8.73c4.37,3.73,7.62,8.09,9.75,13.06
		l-11.38,2.7c-4.32,1.02-8.84-0.25-11.95-3.23c-1.3-1.24-2.85-2.44-4.65-3.58c-4.16-2.64-9.22-3.96-15.19-3.96
		c-4.9,0-9.35,0.92-13.35,2.76c-4,1.84-7.14,4.36-9.43,7.54c-2.29,3.19-3.44,6.77-3.44,10.75c0,3.78,1.17,7.27,3.52,10.45
		c2.34,3.19,5.49,5.72,9.43,7.61c3.94,1.89,8.37,2.84,13.27,2.84c3.73,0,7.14-0.6,10.23-1.79c3.09-1.19,5.67-2.64,7.75-4.33
		c0.02-0.02,0.04-0.03,0.06-0.05c3.33-2.72,7.91-3.66,12.11-2.36l11.57,3.6c-3.73,6.57-9.33,11.85-16.79,15.83
		c-7.46,3.98-15.83,5.97-25.1,5.97c-6.29,0-12.2-0.99-17.74-2.99c-5.54-1.99-10.42-4.7-14.63-8.14c-4.21-3.43-7.51-7.44-9.91-12.02
		C1534.98,316.94,1533.78,312.01,1533.78,306.74z"/>
	<path class="st1" d="M416.07,275.23l-19.97-11.53v-15.89c0-11.31-12.24-18.37-22.03-12.72l-13.76,7.94l-13.93-8.04
		c-9.79-5.65-22.03,1.41-22.03,12.72v16.09l-19.97,11.53c-9.79,5.65-9.79,19.79,0,25.44l19.97,11.53v15.89
		c0,11.31,12.24,18.37,22.03,12.72l13.76-7.94l13.93,8.04c9.79,5.65,22.03-1.41,22.03-12.72V312.2l19.97-11.53
		C425.86,295.02,425.86,280.88,416.07,275.23z M408.55,300.38l-19.42,11.21v-4.28c0-3.54,3.08-6.32,6.59-5.89
		c0.75,0.09,1.51,0.12,2.29,0.09c7.1-0.29,12.88-6.02,13.23-13.12c0.39-7.87-5.82-14.39-13.58-14.52
		c-7.76-0.13-14.06,6.27-14.06,14.03v26.87l-31.4,18.13c-9.79,5.65-22.03-1.41-22.03-12.72v-65.08c0-11.31,12.24-18.37,22.03-12.72
		l17.12,9.89v12.3c0,5.63-4.91,10.06-10.5,9.37c-1.19-0.15-2.4-0.2-3.64-0.15c-11.3,0.47-20.5,9.59-21.06,20.89
		c-0.61,12.54,9.26,22.92,21.62,23.12c12.36,0.2,22.39-9.99,22.39-22.34v-38.11l30.43,17.57
		C418.34,280.59,418.34,294.72,408.55,300.38z M403.93,279.5c1-0.52,2.76,0.89,3.92,3.14c1.16,2.25,1.29,4.5,0.29,5.01
		c-1,0.52-2.76-0.89-3.92-3.14S402.93,280.02,403.93,279.5z M344.9,309.38c-1.7,0.88-4.67-1.51-6.65-5.33
		c-1.97-3.82-2.19-7.63-0.49-8.51c1.7-0.88,4.67,1.51,6.65,5.33C346.38,304.7,346.6,308.51,344.9,309.38z"/>
	<g>
		<path class="st1" d="M443.69,307.87l22.01,0c6.7,0,13.27,2.45,18.01,7.2c0.19,0.19,0.38,0.37,0.59,0.55
			c2.34,2.08,5.25,3.6,8.71,4.56c3.46,0.96,6.85,1.44,10.15,1.44c3.41,0,6.95-0.45,10.63-1.36c3.49-0.86,6.48-2.18,8.97-3.95
			c2.53-1.81,4.16-4.63,4.22-7.74c0.05-2.66-0.85-4.68-2.72-6.05c-1.81-1.33-4.13-2.24-6.95-2.72c-2.83-0.48-5.62-0.72-8.39-0.72
			h-25.58c-4.37,0-8.87-0.58-13.51-1.76c-4.64-1.17-8.93-2.98-12.87-5.44c-3.94-2.45-7.14-5.54-9.59-9.27
			c-2.45-3.73-3.68-8.21-3.68-13.43c0-5.22,1.25-9.83,3.76-13.83c2.5-4,5.86-7.43,10.07-10.31c4.21-2.88,8.92-5.25,14.15-7.11
			c5.22-1.86,10.6-3.22,16.15-4.08c5.54-0.85,10.87-1.28,15.99-1.28c6.82,0,13.59,0.72,20.3,2.16c6.71,1.44,12.79,3.65,18.22,6.63
			c5.44,2.98,9.8,6.77,13.11,11.35c3.3,4.58,4.96,10.02,4.96,16.31h-18.92c-7.34,0-14.39-2.84-19.69-7.91l0,0
			c-2.19-2.08-4.88-3.62-8.07-4.64c-3.2-1.01-6.55-1.52-10.07-1.52c-3.3,0-6.74,0.45-10.31,1.36c-3.57,0.91-6.58,2.32-9.03,4.24
			c-2.45,1.92-3.68,4.37-3.68,7.35c0,2.67,1.04,4.66,3.12,5.99c2.08,1.33,4.53,2.21,7.35,2.64c2.82,0.43,5.35,0.64,7.59,0.64h25.1
			c4.58,0,9.19,0.59,13.83,1.76c4.64,1.17,8.9,2.98,12.79,5.44c3.89,2.45,7.03,5.6,9.43,9.43s3.6,8.47,3.6,13.91
			c0,5.54-1.25,10.37-3.76,14.47c-2.5,4.1-5.89,7.57-10.15,10.39c-4.26,2.83-8.98,5.09-14.15,6.79c-5.17,1.71-10.45,2.96-15.83,3.76
			c-5.38,0.8-10.47,1.2-15.27,1.2c-4.48,0-9.43-0.34-14.87-1.04c-5.44-0.69-10.82-1.86-16.15-3.52c-5.33-1.65-10.23-3.86-14.71-6.63
			c-4.48-2.77-8.07-6.23-10.79-10.39C445.05,318.58,443.69,313.62,443.69,307.87z"/>
		<path class="st1" d="M579.69,269.11L579.69,269.11c15.54,0,28.14,11.76,28.14,26.28v11.2c0,2.19,0.64,4.5,1.92,6.94
			c1.28,2.44,3.25,4.5,5.92,6.2c2.66,1.69,6.07,2.54,10.23,2.54c4.26,0,7.7-0.87,10.31-2.61c2.61-1.74,4.53-3.83,5.75-6.27
			c1.22-2.44,1.84-4.7,1.84-6.79v-11.2c0-14.51,12.6-26.28,28.13-26.28h0v37.47c0,5.18-1.2,10.08-3.6,14.71
			c-2.4,4.63-5.7,8.66-9.91,12.09c-4.21,3.43-9.09,6.15-14.63,8.14c-5.54,1.99-11.51,2.99-17.9,2.99c-6.39,0-12.36-0.99-17.9-2.99
			c-5.54-1.99-10.45-4.7-14.71-8.14c-4.26-3.43-7.59-7.47-9.99-12.09c-2.4-4.63-3.6-9.53-3.6-14.71V269.11z"/>
		<path class="st1" d="M688.67,268.96h19.82c4.68,0,8.47,3.54,8.47,7.91v0c2.66-2.19,6.05-4.05,10.15-5.6
			c4.1-1.54,8.6-2.31,13.51-2.31c5.86,0,11.11,1.1,15.75,3.28c4.64,2.19,7.91,5.03,9.83,8.51c3.2-3.48,7.35-6.35,12.47-8.58
			c5.12-2.24,10.71-3.36,16.79-3.36c11.4,0,19.71,3.04,24.94,9.11c5.22,6.07,7.83,14.68,7.83,25.83v40.76h-27.02v-37.92
			c0-11.05-4.26-16.57-12.79-16.57c-4.9,0-8.79,1.64-11.67,4.93c-2.88,3.28-4.32,7.17-4.32,11.64v37.92h-27.02v-37.32
			c0-4.98-0.93-9.11-2.8-12.39c-1.87-3.28-4.93-4.93-9.19-4.93c-3.62,0-6.66,0.8-9.11,2.39c-2.45,1.59-4.32,3.49-5.59,5.67
			c-1.28,2.19-1.92,4.18-1.92,5.97c0,2.09,0,4.95,0,8.58c0,3.63,0.02,7.52,0.08,11.65c0.05,4.13,0.08,8.04,0.08,11.72
			c0,3.68,0,6.57,0,8.66h-28.29V268.96z"/>
		<path class="st1" d="M894.65,290.91c-5.97,0-10.9,1.32-14.79,3.96c-3.89,2.64-5.83,7.14-5.83,13.51v8.36
			c0,15.17-13.17,27.47-29.41,27.47l0,0c0-8.06-0.03-15.77-0.08-23.14c-0.05-7.36-0.08-15.08-0.08-23.14c0-5.57,1.33-10.55,4-14.93
			c2.66-4.38,6.29-7.86,10.87-10.45c4.58-2.59,9.7-3.88,15.35-3.88h29.41v13.29C904.08,286.84,899.88,290.83,894.65,290.91
			L894.65,290.91z"/>
		<path class="st1" d="M1020.85,344.51v-48.07c0-15.25,13.24-27.62,29.57-27.62l0,0v10.9c2.66-2.79,6.45-5.27,11.35-7.47
			c4.9-2.19,10.23-3.28,15.99-3.28c8.74,0,16.04,1.79,21.9,5.37c5.86,3.58,10.23,8.51,13.11,14.78c2.88,6.27,4.32,13.34,4.32,21.2
			v34.19h-29.57v-31.8c0-3.28-0.4-6.67-1.2-10.15c-0.8-3.48-2.37-6.44-4.72-8.88c-2.35-2.44-5.92-3.66-10.71-3.66
			c-5.01,0-9.01,1.25-11.99,3.73c-2.98,2.49-5.17,5.45-6.55,8.88c-1.39,3.43-2.08,6.55-2.08,9.33l0.16,32.55H1020.85z"/>
		<path class="st1" d="M958.59,344.51c-5.75,0-11.35-0.9-16.79-2.69c-5.44-1.79-10.37-4.33-14.79-7.61
			c-4.42-3.28-7.94-7.26-10.55-11.94c-2.61-4.68-3.92-9.85-3.92-15.53c0-5.67,1.3-10.85,3.92-15.53c2.61-4.68,6.13-8.68,10.55-12.02
			c4.42-3.33,9.35-5.9,14.79-7.69c5.44-1.79,11.03-2.69,16.79-2.69s11.35,0.9,16.79,2.69c5.44,1.79,10.36,4.36,14.79,7.69
			c4.42,3.34,7.94,7.34,10.55,12.02c2.61,4.68,3.92,9.85,3.92,15.53c0,5.67-1.31,10.85-3.92,15.53c-2.61,4.68-6.13,8.66-10.55,11.94
			c-4.42,3.28-9.35,5.82-14.79,7.61C969.94,343.61,964.35,344.51,958.59,344.51z M939.41,306.74c0,3.09,0.9,5.77,2.72,8.06
			c1.81,2.29,4.18,4.11,7.11,5.45c2.93,1.34,6.05,2.02,9.35,2.02c3.2,0,6.26-0.65,9.19-1.94c2.93-1.29,5.33-3.11,7.19-5.45
			c1.86-2.34,2.8-5.05,2.8-8.14c0-3.08-0.93-5.82-2.8-8.21c-1.87-2.39-4.26-4.23-7.19-5.52c-2.93-1.29-5.99-1.94-9.19-1.94
			c-3.3,0-6.42,0.65-9.35,1.94c-2.93,1.29-5.3,3.14-7.11,5.52C940.31,300.91,939.41,303.65,939.41,306.74z"/>
	</g>
</g>
<g>
	<g>
		<path class="st1" d="M1059.28,793.87h22.01c6.7,0,13.27,2.45,18.01,7.2c0.19,0.19,0.38,0.37,0.59,0.55
			c2.34,2.08,5.25,3.6,8.71,4.56c3.46,0.96,6.85,1.44,10.15,1.44c3.41,0,6.95-0.45,10.63-1.36c3.49-0.86,6.48-2.18,8.97-3.95
			c2.53-1.81,4.16-4.63,4.22-7.74c0.05-2.66-0.86-4.68-2.72-6.05c-1.81-1.33-4.13-2.24-6.95-2.72c-2.83-0.48-5.62-0.72-8.39-0.72
			h-25.58c-4.37,0-8.87-0.58-13.51-1.76c-4.64-1.17-8.93-2.98-12.87-5.44c-3.94-2.45-7.14-5.54-9.59-9.27
			c-2.45-3.73-3.68-8.21-3.68-13.43c0-5.22,1.25-9.83,3.76-13.83c2.5-4,5.86-7.43,10.07-10.31c4.21-2.88,8.92-5.25,14.15-7.11
			c5.22-1.86,10.6-3.22,16.15-4.08c5.54-0.85,10.87-1.28,15.99-1.28c6.82,0,13.59,0.72,20.3,2.16c6.71,1.44,12.79,3.65,18.22,6.63
			c5.44,2.98,9.8,6.77,13.11,11.35c3.3,4.58,4.96,10.02,4.96,16.31h-18.92c-7.34,0-14.39-2.84-19.69-7.91l0,0
			c-2.19-2.08-4.88-3.62-8.07-4.64c-3.2-1.01-6.55-1.52-10.07-1.52c-3.3,0-6.74,0.45-10.31,1.36c-3.57,0.91-6.58,2.32-9.03,4.24
			c-2.45,1.92-3.68,4.37-3.68,7.35c0,2.67,1.04,4.66,3.12,5.99c2.08,1.33,4.53,2.21,7.35,2.64c2.82,0.43,5.35,0.64,7.59,0.64h25.1
			c4.58,0,9.19,0.59,13.83,1.76c4.64,1.17,8.9,2.98,12.79,5.44c3.89,2.45,7.03,5.6,9.43,9.43s3.6,8.47,3.6,13.91
			c0,5.54-1.25,10.37-3.76,14.47c-2.5,4.1-5.89,7.57-10.15,10.39c-4.26,2.83-8.98,5.09-14.15,6.79c-5.17,1.71-10.45,2.96-15.83,3.76
			c-5.38,0.8-10.47,1.2-15.27,1.2c-4.48,0-9.43-0.34-14.87-1.04c-5.44-0.69-10.82-1.86-16.15-3.52c-5.33-1.65-10.23-3.86-14.71-6.63
			c-4.48-2.77-8.07-6.23-10.79-10.39C1060.64,804.58,1059.28,799.62,1059.28,793.87z"/>
		<path class="st1" d="M1195.28,755.11L1195.28,755.11c15.54,0,28.14,11.76,28.14,26.28v11.2c0,2.19,0.64,4.5,1.92,6.94
			c1.28,2.44,3.25,4.5,5.92,6.2c2.66,1.69,6.07,2.54,10.23,2.54c4.26,0,7.7-0.87,10.31-2.61c2.61-1.74,4.53-3.83,5.75-6.27
			c1.22-2.44,1.84-4.7,1.84-6.79v-11.2c0-14.51,12.6-26.28,28.13-26.28h0v37.47c0,5.18-1.2,10.08-3.6,14.71
			c-2.4,4.63-5.7,8.66-9.91,12.09c-4.21,3.43-9.09,6.15-14.63,8.14c-5.54,1.99-11.51,2.99-17.9,2.99c-6.39,0-12.36-0.99-17.9-2.99
			c-5.54-1.99-10.45-4.7-14.71-8.14c-4.26-3.43-7.59-7.47-9.99-12.09c-2.4-4.63-3.6-9.53-3.6-14.71V755.11z"/>
		<path class="st1" d="M1304.26,754.96h19.82c4.68,0,8.47,3.54,8.47,7.91l0,0c2.66-2.19,6.05-4.05,10.15-5.6
			c4.1-1.54,8.6-2.31,13.51-2.31c5.86,0,11.11,1.1,15.75,3.28c4.64,2.19,7.91,5.03,9.83,8.51c3.2-3.48,7.35-6.35,12.47-8.58
			c5.12-2.24,10.71-3.36,16.79-3.36c11.4,0,19.71,3.04,24.94,9.11c5.22,6.07,7.83,14.68,7.83,25.83v40.76h-27.02v-37.92
			c0-11.05-4.26-16.57-12.79-16.57c-4.9,0-8.79,1.64-11.67,4.93c-2.88,3.28-4.32,7.17-4.32,11.64v37.92h-27.02v-37.32
			c0-4.98-0.93-9.11-2.8-12.39c-1.87-3.28-4.93-4.93-9.19-4.93c-3.62,0-6.66,0.8-9.11,2.39c-2.45,1.59-4.32,3.49-5.59,5.67
			c-1.28,2.19-1.92,4.18-1.92,5.97c0,2.09,0,4.95,0,8.58c0,3.63,0.02,7.52,0.08,11.65c0.05,4.13,0.08,8.04,0.08,11.72
			c0,3.68,0,6.57,0,8.66h-28.29V754.96z"/>
		<path class="st1" d="M1510.23,776.91c-5.97,0-10.9,1.32-14.79,3.96c-3.89,2.64-5.83,7.14-5.83,13.51v8.36
			c0,15.17-13.17,27.47-29.41,27.47l0,0c0-8.06-0.03-15.77-0.08-23.14c-0.05-7.36-0.08-15.08-0.08-23.14c0-5.57,1.33-10.55,4-14.93
			c2.66-4.38,6.29-7.86,10.87-10.45c4.58-2.59,9.7-3.88,15.35-3.88h29.41v13.29C1519.66,772.84,1515.47,776.83,1510.23,776.91
			L1510.23,776.91z"/>
		<path class="st1" d="M1636.44,830.51v-48.07c0-15.25,13.24-27.62,29.57-27.62h0v10.9c2.66-2.79,6.45-5.27,11.35-7.47
			c4.9-2.19,10.23-3.28,15.99-3.28c8.74,0,16.04,1.79,21.9,5.37c5.86,3.58,10.23,8.51,13.11,14.78c2.88,6.27,4.32,13.34,4.32,21.2
			v34.19h-29.57v-31.8c0-3.28-0.4-6.67-1.2-10.15c-0.8-3.48-2.37-6.44-4.72-8.88c-2.35-2.44-5.92-3.66-10.71-3.66
			c-5.01,0-9.01,1.25-11.99,3.73c-2.98,2.49-5.17,5.45-6.55,8.88c-1.39,3.43-2.08,6.55-2.08,9.33l0.16,32.55H1636.44z"/>
		<path class="st1" d="M1574.18,830.51c-5.75,0-11.35-0.9-16.79-2.69c-5.44-1.79-10.37-4.33-14.79-7.61
			c-4.42-3.28-7.94-7.26-10.55-11.94c-2.61-4.68-3.92-9.85-3.92-15.53c0-5.67,1.3-10.85,3.92-15.53c2.61-4.68,6.13-8.68,10.55-12.02
			c4.42-3.33,9.35-5.9,14.79-7.69c5.44-1.79,11.03-2.69,16.79-2.69s11.35,0.9,16.79,2.69c5.44,1.79,10.36,4.36,14.79,7.69
			c4.42,3.34,7.94,7.34,10.55,12.02c2.61,4.68,3.92,9.85,3.92,15.53c0,5.67-1.31,10.85-3.92,15.53c-2.61,4.68-6.13,8.66-10.55,11.94
			c-4.42,3.28-9.35,5.82-14.79,7.61C1585.53,829.61,1579.93,830.51,1574.18,830.51z M1554.99,792.74c0,3.09,0.9,5.77,2.72,8.06
			c1.81,2.29,4.18,4.11,7.11,5.45c2.93,1.34,6.05,2.02,9.35,2.02c3.2,0,6.26-0.65,9.19-1.94c2.93-1.29,5.33-3.11,7.19-5.45
			c1.86-2.34,2.8-5.05,2.8-8.14c0-3.08-0.93-5.82-2.8-8.21c-1.87-2.39-4.26-4.23-7.19-5.52c-2.93-1.29-5.99-1.94-9.19-1.94
			c-3.3,0-6.42,0.65-9.35,1.94c-2.93,1.29-5.3,3.14-7.11,5.52C1555.9,786.91,1554.99,789.65,1554.99,792.74z"/>
	</g>
	<g>
		<path class="st1" d="M1426.66,618.86l-22.66-6.07l-0.07,78.01c0,17.25-14.01,31.48-31.25,31.19
			c-17.25-0.29-31.04-14.78-30.18-32.28c0.77-15.77,13.62-28.51,29.4-29.16c1.73-0.07,3.43,0,5.09,0.2
			c7.8,0.96,14.66-5.22,14.66-13.08l0.36-38.1l-12.42-3.33c-31.83-8.53-60.95,20.6-52.42,52.42l12.62,47.09
			c8.53,31.83,48.31,42.49,71.61,19.19l0.99-0.99v-64.61c0-11.4,9.26-20.8,20.66-20.61c11.4,0.19,20.51,9.77,19.94,21.33
			c-0.51,10.43-9,18.84-19.43,19.27c-1.14,0.05-2.27,0-3.36-0.13c-5.16-0.63-9.69,3.45-9.69,8.65v27.98l25.35-25.35
			C1469.15,667.18,1458.49,627.39,1426.66,618.86z"/>
		<path class="st1" d="M1448.71,659.47c1.54-0.52,1.89-3.6,0.79-6.88c-1.11-3.28-3.25-5.52-4.79-5c-1.54,0.52-1.89,3.6-0.78,6.88
			C1445.03,657.75,1447.17,659.99,1448.71,659.47z"/>
		<path class="st1" d="M1348.17,687.01c-2.6,0.72-3.46,5.79-1.93,11.33c1.53,5.54,4.88,9.44,7.48,8.72
			c2.6-0.72,3.47-5.79,1.93-11.33C1354.12,690.19,1350.77,686.29,1348.17,687.01z"/>
	</g>
	<g>
		<g>
			<path class="st0" d="M1275,848.3h4.97c3.11,0,5.63,2.52,5.63,5.63l0,0c1.25-1.36,3.03-2.64,5.34-3.83
				c2.31-1.19,4.99-1.79,8.03-1.79c2.01,0,3.93,0.35,5.75,1.06c1.82,0.71,3.4,1.66,4.73,2.85c1.33,1.2,2.24,2.56,2.73,4.08
				c1.52-2.17,3.68-4.06,6.48-5.67c2.8-1.6,5.77-2.4,8.93-2.4c4.02,0,7.26,0.8,9.7,2.4c2.45,1.6,4.22,3.85,5.34,6.73
				c1.11,2.88,1.67,6.2,1.67,9.95v22.26h-10.27v-20.46c0-7.99-2.83-11.98-8.48-11.98c-2.23,0-4.14,0.57-5.75,1.71
				c-1.6,1.14-2.83,2.61-3.67,4.4c-0.84,1.79-1.26,3.67-1.26,5.63v20.71h-10.19v-19.73c0-2.23-0.27-4.32-0.82-6.28
				c-0.54-1.96-1.4-3.53-2.57-4.73c-1.17-1.19-2.68-1.79-4.52-1.79c-1.96,0-3.64,0.38-5.05,1.14c-1.41,0.76-2.58,1.7-3.51,2.81
				c-0.93,1.11-1.6,2.24-2.04,3.38c-0.44,1.14-0.65,2.09-0.65,2.85c0,2.01,0,4.38,0,7.09c0,2.72,0.01,5.42,0.04,8.11
				c0.03,2.69,0.04,5.07,0.04,7.13H1275V848.3z"/>
		</g>
		<path class="st0" d="M1350.33,848.47L1350.33,848.47c6.21,0,11.24,4.7,11.24,10.5v9.77c0,1.08,0.26,2.26,0.78,3.55
			c0.52,1.29,1.33,2.53,2.42,3.72c1.09,1.19,2.51,2.17,4.24,2.95c1.73,0.78,3.83,1.17,6.31,1.17c2.54,0,4.67-0.4,6.4-1.21
			c1.73-0.81,3.13-1.83,4.19-3.07c1.07-1.24,1.85-2.5,2.34-3.8c0.49-1.29,0.73-2.4,0.73-3.31v-9.77c0-5.8,5.03-10.5,11.24-10.5h0
			v20.28c0,2.8-0.65,5.45-1.95,7.96c-1.3,2.5-3.09,4.68-5.36,6.54c-2.28,1.86-4.92,3.33-7.91,4.4c-3,1.08-6.23,1.62-9.69,1.62
			c-3.46,0-6.69-0.54-9.69-1.62c-3-1.08-5.65-2.54-7.96-4.4c-2.31-1.86-4.11-4.04-5.41-6.54c-1.3-2.5-1.95-5.16-1.95-7.96V848.47z"
			/>
		<path class="st0" d="M1405.4,875.94h3.74c3.55,0,6.98,1.13,9.74,3.21c0.51,0.38,1.09,0.74,1.73,1.08c2.19,1.13,5.1,1.7,8.74,1.7
			c2.25,0,4.35-0.21,6.31-0.65c1.96-0.43,3.53-1.1,4.71-2.02c1.18-0.91,1.77-2.13,1.77-3.63c0-1.13-0.56-1.94-1.69-2.42
			c-1.12-0.48-2.58-0.78-4.37-0.89c-1.79-0.11-3.66-0.16-5.62-0.16h-9c-2.48,0-4.96-0.35-7.44-1.05c-2.48-0.7-4.54-1.82-6.18-3.35
			c-1.64-1.53-2.46-3.54-2.46-6.02c0-2.48,0.73-4.58,2.21-6.3c1.47-1.72,3.39-3.11,5.75-4.16c2.36-1.05,4.92-1.82,7.65-2.3
			c2.74-0.48,5.38-0.73,7.91-0.73c2.25,0,4.66,0.22,7.22,0.65c2.56,0.43,5.02,1.14,7.35,2.14c2.34,1,4.28,2.3,5.84,3.92
			c1.56,1.62,2.45,3.61,2.68,5.98c0,0.27,0.03,0.48,0.09,0.65h-3.16c-3.62,0-7.05-1.25-9.91-3.33c-0.01-0.01-0.02-0.02-0.04-0.03
			c-1.24-0.89-2.74-1.56-4.5-2.02c-1.76-0.46-3.56-0.69-5.41-0.69c-1.85,0-3.75,0.18-5.71,0.53c-1.96,0.35-3.62,0.96-4.97,1.82
			c-1.36,0.86-2.03,2.07-2.03,3.64c0,1.19,0.5,2.03,1.51,2.54c1.01,0.51,2.31,0.82,3.89,0.93c1.59,0.11,3.21,0.16,4.89,0.16h9.26
			c1.84,0,3.78,0.13,5.79,0.4c2.02,0.27,3.91,0.75,5.67,1.45c1.76,0.7,3.19,1.71,4.28,3.03c1.09,1.32,1.64,3,1.64,5.05
			c0,2.69-0.69,4.97-2.08,6.83c-1.38,1.86-3.24,3.35-5.58,4.48c-2.34,1.13-4.96,1.94-7.87,2.42c-2.91,0.48-5.87,0.73-8.87,0.73
			c-2.19,0-4.63-0.2-7.31-0.61c-2.68-0.4-5.03-1.09-7.05-2.06c-1.27-0.59-2.61-1.44-4.02-2.54c-1.41-1.1-2.62-2.33-3.63-3.68
			c-1.01-1.35-1.51-2.69-1.51-4.04V875.94z"/>
		<path class="st0" d="M1460.69,889.26v-34.82c0-3.3,2.67-5.97,5.97-5.97l0,0c3.3,0,5.97,2.67,5.97,5.97v34.82H1460.69z"/>
		<path class="st0" d="M1477.74,868.83c0-2.85,0.65-5.51,1.95-7.96c1.3-2.45,3.08-4.62,5.36-6.5c2.28-1.88,4.91-3.35,7.91-4.4
			c3-1.05,6.23-1.58,9.69-1.58c3.46,0,6.75,0.57,9.86,1.7c3.11,1.13,5.85,2.71,8.22,4.73c2.36,2.02,4.12,4.38,5.28,7.07l-6.16,1.46
			c-2.34,0.55-4.78-0.14-6.47-1.75c-0.7-0.67-1.54-1.32-2.51-1.94c-2.25-1.43-4.99-2.14-8.22-2.14c-2.65,0-5.06,0.5-7.22,1.49
			c-2.16,1-3.86,2.36-5.1,4.08c-1.24,1.72-1.86,3.66-1.86,5.82c0,2.05,0.63,3.93,1.9,5.65c1.27,1.72,2.97,3.1,5.1,4.12
			c2.13,1.02,4.53,1.53,7.18,1.53c2.02,0,3.86-0.32,5.54-0.97c1.67-0.65,3.07-1.43,4.19-2.34c0.01-0.01,0.02-0.02,0.03-0.03
			c1.8-1.47,4.28-1.98,6.55-1.27l6.26,1.95c-2.02,3.55-5.05,6.41-9.08,8.56c-4.04,2.15-8.56,3.23-13.58,3.23
			c-3.4,0-6.6-0.54-9.6-1.62c-3-1.08-5.64-2.54-7.91-4.4c-2.28-1.86-4.07-4.02-5.36-6.5
			C1478.39,874.35,1477.74,871.68,1477.74,868.83z"/>
	</g>
</g>
<g>
	<path class="st1" d="M565.55,646.83l-24.51-14.15v-19.5c0-13.88-15.02-22.55-27.04-15.61l-16.89,9.75l-17.1-9.87
		c-12.02-6.94-27.04,1.73-27.04,15.61v19.74l-24.51,14.15c-12.02,6.94-12.02,24.28,0,31.22l24.51,14.15v19.5
		c0,13.88,15.02,22.55,27.04,15.61l16.89-9.75l17.1,9.87c12.02,6.94,27.04-1.73,27.04-15.61V692.2l24.51-14.15
		C577.56,671.11,577.56,653.77,565.55,646.83z M556.32,677.69l-23.84,13.76v-5.25c0-4.34,3.78-7.75,8.09-7.22
		c0.92,0.11,1.85,0.15,2.81,0.11c8.71-0.36,15.8-7.39,16.23-16.1c0.47-9.66-7.14-17.66-16.66-17.82
		c-9.52-0.16-17.26,7.7-17.26,17.22l0,32.98l-38.54,22.25c-12.02,6.94-27.04-1.73-27.04-15.61v-79.87
		c0-13.88,15.02-22.55,27.04-15.61l21.02,12.13v15.1c0,6.91-6.02,12.35-12.88,11.5c-1.46-0.18-2.95-0.24-4.47-0.18
		c-13.87,0.57-25.16,11.77-25.84,25.64c-0.75,15.39,11.37,28.13,26.53,28.38c15.16,0.25,27.48-12.26,27.48-27.42v-46.78l37.34,21.56
		C568.34,653.4,568.34,670.75,556.32,677.69z M550.65,652.07c1.23-0.63,3.38,1.09,4.81,3.86c1.43,2.76,1.59,5.52,0.36,6.15
		c-1.23,0.63-3.38-1.09-4.81-3.86C549.58,655.46,549.42,652.71,550.65,652.07z M478.2,688.74c-2.08,1.08-5.74-1.85-8.16-6.54
		c-2.42-4.69-2.69-9.36-0.61-10.44c2.08-1.08,5.74,1.85,8.16,6.54C480.02,682.99,480.29,687.67,478.2,688.74z"/>
	<g>
		<path class="st1" d="M160.3,785.87h22.01c6.7,0,13.27,2.45,18.01,7.2c0.19,0.19,0.38,0.37,0.59,0.55c2.34,2.08,5.25,3.6,8.71,4.56
			c3.46,0.96,6.85,1.44,10.15,1.44c3.41,0,6.95-0.45,10.63-1.36c3.49-0.86,6.48-2.18,8.97-3.95c2.53-1.81,4.16-4.63,4.22-7.74
			c0.05-2.66-0.85-4.68-2.72-6.05c-1.81-1.33-4.13-2.24-6.95-2.72c-2.83-0.48-5.62-0.72-8.39-0.72h-25.58
			c-4.37,0-8.87-0.58-13.51-1.76c-4.64-1.17-8.93-2.98-12.87-5.44c-3.94-2.45-7.14-5.54-9.59-9.27c-2.45-3.73-3.68-8.21-3.68-13.43
			c0-5.22,1.25-9.83,3.76-13.83c2.5-4,5.86-7.43,10.07-10.31c4.21-2.88,8.92-5.25,14.15-7.11c5.22-1.86,10.6-3.22,16.15-4.08
			c5.54-0.85,10.87-1.28,15.99-1.28c6.82,0,13.59,0.72,20.3,2.16c6.71,1.44,12.79,3.65,18.22,6.63c5.44,2.98,9.8,6.77,13.11,11.35
			c3.3,4.58,4.96,10.02,4.96,16.31h-18.92c-7.34,0-14.39-2.84-19.69-7.91h0c-2.19-2.08-4.88-3.62-8.07-4.64
			c-3.2-1.01-6.55-1.52-10.07-1.52c-3.3,0-6.74,0.45-10.31,1.36c-3.57,0.91-6.58,2.32-9.03,4.24c-2.45,1.92-3.68,4.37-3.68,7.35
			c0,2.67,1.04,4.66,3.12,5.99c2.08,1.33,4.53,2.21,7.35,2.64c2.82,0.43,5.35,0.64,7.59,0.64h25.1c4.58,0,9.19,0.59,13.83,1.76
			c4.64,1.17,8.9,2.98,12.79,5.44c3.89,2.45,7.03,5.6,9.43,9.43s3.6,8.47,3.6,13.91c0,5.54-1.25,10.37-3.76,14.47
			c-2.5,4.1-5.89,7.57-10.15,10.39c-4.26,2.83-8.98,5.09-14.15,6.79c-5.17,1.71-10.45,2.96-15.83,3.76
			c-5.38,0.8-10.47,1.2-15.27,1.2c-4.48,0-9.43-0.34-14.87-1.04c-5.44-0.69-10.82-1.86-16.15-3.52c-5.33-1.65-10.23-3.86-14.71-6.63
			c-4.48-2.77-8.07-6.23-10.79-10.39C161.66,796.58,160.3,791.62,160.3,785.87z"/>
		<path class="st1" d="M296.3,747.11L296.3,747.11c15.54,0,28.14,11.76,28.14,26.28v11.2c0,2.19,0.64,4.5,1.92,6.94
			c1.28,2.44,3.25,4.5,5.92,6.2c2.66,1.69,6.07,2.54,10.23,2.54c4.26,0,7.7-0.87,10.31-2.61c2.61-1.74,4.53-3.83,5.75-6.27
			c1.22-2.44,1.84-4.7,1.84-6.79v-11.2c0-14.51,12.6-26.28,28.13-26.28h0v37.47c0,5.18-1.2,10.08-3.6,14.71
			c-2.4,4.63-5.7,8.66-9.91,12.09c-4.21,3.43-9.09,6.15-14.63,8.14c-5.54,1.99-11.51,2.99-17.9,2.99c-6.39,0-12.36-0.99-17.9-2.99
			c-5.54-1.99-10.45-4.7-14.71-8.14c-4.26-3.43-7.59-7.47-9.99-12.09c-2.4-4.63-3.6-9.53-3.6-14.71V747.11z"/>
		<path class="st1" d="M405.28,746.96h19.82c4.68,0,8.47,3.54,8.47,7.91l0,0c2.66-2.19,6.05-4.05,10.15-5.6
			c4.1-1.54,8.6-2.31,13.51-2.31c5.86,0,11.11,1.1,15.75,3.28c4.64,2.19,7.91,5.03,9.83,8.51c3.2-3.48,7.35-6.35,12.47-8.58
			c5.12-2.24,10.71-3.36,16.79-3.36c11.4,0,19.71,3.04,24.94,9.11c5.22,6.07,7.83,14.68,7.83,25.83v40.76h-27.02v-37.92
			c0-11.05-4.26-16.57-12.79-16.57c-4.9,0-8.79,1.64-11.67,4.93c-2.88,3.28-4.32,7.17-4.32,11.64v37.92h-27.02v-37.32
			c0-4.98-0.93-9.11-2.8-12.39c-1.87-3.28-4.93-4.93-9.19-4.93c-3.62,0-6.66,0.8-9.11,2.39c-2.45,1.59-4.32,3.49-5.59,5.67
			c-1.28,2.19-1.92,4.18-1.92,5.97c0,2.09,0,4.95,0,8.58c0,3.63,0.02,7.52,0.08,11.65c0.05,4.13,0.08,8.04,0.08,11.72
			c0,3.68,0,6.57,0,8.66h-28.29V746.96z"/>
		<path class="st1" d="M611.26,768.91c-5.97,0-10.9,1.32-14.79,3.96c-3.89,2.64-5.83,7.14-5.83,13.51v8.36
			c0,15.17-13.17,27.47-29.41,27.47l0,0c0-8.06-0.03-15.77-0.08-23.14c-0.05-7.36-0.08-15.08-0.08-23.14c0-5.57,1.33-10.55,4-14.93
			c2.66-4.38,6.29-7.86,10.87-10.45c4.58-2.59,9.7-3.88,15.35-3.88h29.41v13.29C620.69,764.84,616.49,768.83,611.26,768.91
			L611.26,768.91z"/>
		<path class="st1" d="M737.46,822.51v-48.07c0-15.25,13.24-27.62,29.57-27.62l0,0v10.9c2.66-2.79,6.45-5.27,11.35-7.47
			c4.9-2.19,10.23-3.28,15.99-3.28c8.74,0,16.04,1.79,21.9,5.37c5.86,3.58,10.23,8.51,13.11,14.78c2.88,6.27,4.32,13.34,4.32,21.2
			v34.19h-29.57v-31.8c0-3.28-0.4-6.67-1.2-10.15c-0.8-3.48-2.37-6.44-4.72-8.88c-2.35-2.44-5.92-3.66-10.71-3.66
			c-5.01,0-9.01,1.25-11.99,3.73c-2.98,2.49-5.17,5.45-6.55,8.88c-1.39,3.43-2.08,6.55-2.08,9.33l0.16,32.55H737.46z"/>
		<path class="st1" d="M675.2,822.51c-5.75,0-11.35-0.9-16.79-2.69c-5.44-1.79-10.37-4.33-14.79-7.61
			c-4.42-3.28-7.94-7.26-10.55-11.94c-2.61-4.68-3.92-9.85-3.92-15.53c0-5.67,1.3-10.85,3.92-15.53c2.61-4.68,6.13-8.68,10.55-12.02
			c4.42-3.33,9.35-5.9,14.79-7.69c5.44-1.79,11.03-2.69,16.79-2.69s11.35,0.9,16.79,2.69c5.44,1.79,10.36,4.36,14.79,7.69
			c4.42,3.34,7.94,7.34,10.55,12.02c2.61,4.68,3.92,9.85,3.92,15.53c0,5.67-1.31,10.85-3.92,15.53c-2.61,4.68-6.13,8.66-10.55,11.94
			c-4.42,3.28-9.35,5.82-14.79,7.61C686.55,821.61,680.95,822.51,675.2,822.51z M656.02,784.74c0,3.09,0.9,5.77,2.72,8.06
			c1.81,2.29,4.18,4.11,7.11,5.45c2.93,1.34,6.05,2.02,9.35,2.02c3.2,0,6.26-0.65,9.19-1.94c2.93-1.29,5.33-3.11,7.19-5.45
			c1.86-2.34,2.8-5.05,2.8-8.14c0-3.08-0.93-5.82-2.8-8.21c-1.87-2.39-4.26-4.23-7.19-5.52c-2.93-1.29-5.99-1.94-9.19-1.94
			c-3.3,0-6.42,0.65-9.35,1.94c-2.93,1.29-5.3,3.14-7.11,5.52C656.92,778.91,656.02,781.65,656.02,784.74z"/>
	</g>
	<g>
		<g>
			<path class="st0" d="M375.02,854.8H380c3.11,0,5.63,2.52,5.63,5.63l0,0c1.25-1.36,3.03-2.64,5.34-3.83
				c2.31-1.19,4.99-1.79,8.03-1.79c2.01,0,3.93,0.35,5.75,1.06c1.82,0.71,3.4,1.66,4.73,2.85c1.33,1.2,2.24,2.56,2.73,4.08
				c1.52-2.17,3.68-4.06,6.48-5.67c2.8-1.6,5.77-2.4,8.93-2.4c4.02,0,7.26,0.8,9.7,2.4c2.45,1.6,4.22,3.85,5.34,6.73
				c1.11,2.88,1.67,6.2,1.67,9.95v22.26h-10.27v-20.46c0-7.99-2.83-11.98-8.48-11.98c-2.23,0-4.14,0.57-5.75,1.71
				c-1.6,1.14-2.83,2.61-3.67,4.4c-0.84,1.79-1.26,3.67-1.26,5.63v20.71H404.7v-19.73c0-2.23-0.27-4.32-0.82-6.28
				c-0.54-1.96-1.4-3.53-2.57-4.73c-1.17-1.19-2.68-1.79-4.52-1.79c-1.96,0-3.64,0.38-5.05,1.14c-1.41,0.76-2.58,1.7-3.51,2.81
				c-0.93,1.11-1.6,2.24-2.04,3.38c-0.44,1.14-0.65,2.09-0.65,2.85c0,2.01,0,4.38,0,7.09c0,2.72,0.01,5.42,0.04,8.11
				c0.03,2.69,0.04,5.07,0.04,7.13h-10.6V854.8z"/>
		</g>
		<path class="st0" d="M450.36,854.97L450.36,854.97c6.21,0,11.24,4.7,11.24,10.5v9.77c0,1.08,0.26,2.26,0.78,3.55
			c0.52,1.29,1.33,2.53,2.42,3.72c1.09,1.19,2.51,2.17,4.24,2.95c1.73,0.78,3.83,1.17,6.31,1.17c2.54,0,4.67-0.4,6.4-1.21
			c1.73-0.81,3.13-1.83,4.19-3.07c1.07-1.24,1.85-2.5,2.34-3.8c0.49-1.29,0.73-2.4,0.73-3.31v-9.77c0-5.8,5.03-10.5,11.24-10.5h0
			v20.28c0,2.8-0.65,5.45-1.95,7.96c-1.3,2.5-3.09,4.68-5.36,6.54c-2.28,1.86-4.92,3.33-7.91,4.4c-3,1.08-6.23,1.62-9.69,1.62
			c-3.46,0-6.69-0.54-9.69-1.62c-3-1.08-5.65-2.54-7.96-4.4c-2.31-1.86-4.11-4.04-5.41-6.54c-1.3-2.5-1.95-5.16-1.95-7.96V854.97z"
			/>
		<path class="st0" d="M505.42,882.44h3.74c3.55,0,6.98,1.13,9.74,3.21c0.51,0.38,1.09,0.74,1.73,1.08c2.19,1.13,5.1,1.7,8.74,1.7
			c2.25,0,4.35-0.21,6.31-0.65c1.96-0.43,3.53-1.1,4.71-2.02c1.18-0.91,1.77-2.13,1.77-3.63c0-1.13-0.56-1.94-1.69-2.42
			c-1.12-0.48-2.58-0.78-4.37-0.89c-1.79-0.11-3.66-0.16-5.62-0.16h-9c-2.48,0-4.96-0.35-7.44-1.05c-2.48-0.7-4.54-1.82-6.18-3.35
			c-1.64-1.53-2.46-3.54-2.46-6.02c0-2.48,0.73-4.58,2.21-6.3c1.47-1.72,3.39-3.11,5.75-4.16c2.36-1.05,4.92-1.82,7.65-2.3
			c2.74-0.48,5.38-0.73,7.91-0.73c2.25,0,4.66,0.22,7.22,0.65c2.56,0.43,5.02,1.14,7.35,2.14c2.34,1,4.28,2.3,5.84,3.92
			c1.56,1.62,2.45,3.61,2.68,5.98c0,0.27,0.03,0.48,0.09,0.65h-3.16c-3.62,0-7.05-1.25-9.91-3.33c-0.01-0.01-0.02-0.02-0.04-0.03
			c-1.24-0.89-2.74-1.56-4.5-2.02c-1.76-0.46-3.56-0.69-5.41-0.69c-1.85,0-3.75,0.18-5.71,0.53c-1.96,0.35-3.62,0.96-4.97,1.82
			c-1.36,0.86-2.03,2.07-2.03,3.64c0,1.19,0.5,2.03,1.51,2.54c1.01,0.51,2.31,0.82,3.89,0.93c1.59,0.11,3.21,0.16,4.89,0.16h9.26
			c1.84,0,3.78,0.13,5.79,0.4c2.02,0.27,3.91,0.75,5.67,1.45c1.76,0.7,3.19,1.71,4.28,3.03c1.09,1.32,1.64,3,1.64,5.05
			c0,2.69-0.69,4.97-2.08,6.83c-1.38,1.86-3.24,3.35-5.58,4.48c-2.34,1.13-4.96,1.94-7.87,2.42c-2.91,0.48-5.87,0.73-8.87,0.73
			c-2.19,0-4.63-0.2-7.31-0.61c-2.68-0.4-5.03-1.09-7.05-2.06c-1.27-0.59-2.61-1.44-4.02-2.54c-1.41-1.1-2.62-2.33-3.63-3.68
			c-1.01-1.35-1.51-2.69-1.51-4.04V882.44z"/>
		<path class="st0" d="M560.71,895.76v-34.82c0-3.3,2.67-5.97,5.97-5.97l0,0c3.3,0,5.97,2.67,5.97,5.97v34.82H560.71z"/>
		<path class="st0" d="M577.76,875.33c0-2.85,0.65-5.51,1.95-7.96c1.3-2.45,3.08-4.62,5.36-6.5c2.28-1.88,4.91-3.35,7.91-4.4
			c3-1.05,6.23-1.58,9.69-1.58c3.46,0,6.75,0.57,9.86,1.7c3.11,1.13,5.85,2.71,8.22,4.73c2.36,2.02,4.12,4.38,5.28,7.07l-6.16,1.46
			c-2.34,0.55-4.78-0.14-6.47-1.75c-0.7-0.67-1.54-1.32-2.51-1.94c-2.25-1.43-4.99-2.14-8.22-2.14c-2.65,0-5.06,0.5-7.22,1.49
			c-2.16,1-3.86,2.36-5.1,4.08c-1.24,1.72-1.86,3.66-1.86,5.82c0,2.05,0.63,3.93,1.9,5.65c1.27,1.72,2.97,3.1,5.1,4.12
			c2.13,1.02,4.53,1.53,7.18,1.53c2.02,0,3.86-0.32,5.54-0.97c1.67-0.65,3.07-1.43,4.19-2.34c0.01-0.01,0.02-0.02,0.03-0.03
			c1.8-1.47,4.28-1.98,6.55-1.27l6.26,1.95c-2.02,3.55-5.05,6.41-9.08,8.56c-4.04,2.15-8.56,3.23-13.58,3.23
			c-3.4,0-6.6-0.54-9.6-1.62c-3-1.08-5.64-2.54-7.91-4.4c-2.28-1.86-4.07-4.02-5.36-6.5C578.41,880.85,577.76,878.18,577.76,875.33z
			"/>
	</g>
</g>
</svg>
