<svg width="187" height="34" viewBox="0 0 187 34" fill="none" xmlns="http://www.w3.org/2000/svg">
<path d="M65.4898 2.85957C65.4898 3.42957 65.2898 3.90957 64.8798 4.29957C64.4898 4.70957 64.0098 4.90957 63.4398 4.90957H51.1898C50.7998 4.92957 50.4798 5.01957 50.2098 5.18957C49.9698 5.32957 49.7798 5.50957 49.6598 5.70957C49.5398 5.88957 49.4798 6.08957 49.4798 6.28957C49.4798 6.48957 49.5398 6.69957 49.6598 6.89957C49.7798 7.07957 49.9698 7.25957 50.2098 7.41957C50.4798 7.55957 50.7998 7.63957 51.1898 7.65957H59.8798C61.3098 7.69957 62.4798 8.03957 63.3998 8.66957C64.3398 9.27957 64.9998 9.99957 65.3898 10.8096C65.7998 11.6096 65.9998 12.4196 65.9998 13.2596C65.9998 14.0796 65.7998 14.8896 65.3898 15.7096C64.9798 16.5096 64.3198 17.2196 63.3998 17.8496C62.4798 18.4596 61.3098 18.7696 59.8798 18.7696H59.6998C59.5798 18.7896 59.4598 18.7996 59.3298 18.7996H47.7598C47.1898 18.7996 46.6998 18.6096 46.2898 18.2196C45.8998 17.8096 45.7098 17.3196 45.7098 16.7496C45.7098 16.1796 45.9098 15.6996 46.3198 15.3096C46.7098 14.8996 47.1898 14.6996 47.7598 14.6996H60.0698C60.4598 14.7196 60.7698 14.6496 61.0198 14.4896C61.2898 14.3296 61.4798 14.1396 61.5998 13.9396C61.7198 13.7196 61.7798 13.4896 61.7798 13.2696C61.7798 13.1296 61.7198 12.9296 61.5998 12.6896C61.4798 12.4196 61.2798 12.2096 61.0198 12.0496C60.7798 11.8896 60.4598 11.7896 60.0698 11.7696H51.3798C49.9498 11.7296 48.7698 11.3996 47.8298 10.7896C46.9098 10.1796 46.2498 9.47957 45.8398 8.70957C45.4498 7.90957 45.2598 7.10957 45.2598 6.28957C45.2598 5.48957 45.4598 4.70957 45.8698 3.92957C46.2798 3.12957 46.9398 2.42957 47.8598 1.81957C48.7798 1.20957 49.9498 0.879569 51.3798 0.839569H51.5598C51.6798 0.819569 51.7998 0.80957 51.9298 0.80957H63.4398C64.0098 0.80957 64.4898 1.00957 64.8798 1.41957C65.2898 1.80957 65.4898 2.28957 65.4898 2.85957ZM79.2098 19.3896C78.1498 19.3896 77.0998 19.2696 76.0598 19.0196C75.0398 18.7796 74.0598 18.4196 73.1198 17.9496C72.1798 17.4596 71.3498 16.8196 70.6398 16.0196C69.9298 15.2196 69.5398 14.2696 69.4798 13.1696V11.8796V6.63957C69.4798 6.06957 69.6798 5.59957 70.0898 5.22957C70.5198 4.83957 71.0198 4.64957 71.5898 4.64957C72.8098 4.74957 73.4798 5.41957 73.5798 6.63957V7.98957V12.2196C73.6198 12.8496 73.8598 13.3796 74.2798 13.8096C74.7298 14.2196 75.2198 14.5396 75.7498 14.7896C76.2998 15.0296 76.8598 15.2196 77.4298 15.3396C78.0198 15.4596 78.6098 15.5196 79.2098 15.5196C79.7998 15.5196 80.3798 15.4596 80.9598 15.3396C81.5498 15.2196 82.1098 15.0296 82.6398 14.7896C83.1898 14.5496 83.6798 14.2196 84.1098 13.8096C84.5598 13.3796 84.7998 12.8496 84.8398 12.2196V7.98957V6.63957C84.8398 6.06957 85.0398 5.59957 85.4498 5.22957C85.8798 4.83957 86.3798 4.64957 86.9498 4.64957C88.1698 4.74957 88.8498 5.41957 88.9698 6.63957V11.8796V13.1696C88.9098 14.2696 88.5098 15.2196 87.7798 16.0196C87.0698 16.8196 86.2398 17.4596 85.2998 17.9496C84.3598 18.4196 83.3698 18.7796 82.3298 19.0196C81.3098 19.2696 80.2698 19.3896 79.2098 19.3896ZM99.3798 4.51957C100.09 4.51957 100.79 4.63957 101.46 4.88957C102.15 5.12957 102.82 5.48957 103.45 5.95957C103.55 6.05957 103.66 6.15957 103.79 6.26957C103.89 6.16957 104 6.06957 104.13 5.95957C104.76 5.48957 105.42 5.12957 106.09 4.88957C106.78 4.64957 107.48 4.51957 108.17 4.51957C108.88 4.51957 109.58 4.63957 110.25 4.88957C110.94 5.12957 111.6 5.49957 112.21 5.98957C112.84 6.45957 113.39 7.08957 113.86 7.88957C114.35 8.68957 114.59 9.63957 114.59 10.7396V17.2596C114.47 18.4796 113.79 19.1496 112.57 19.2496C112 19.2496 111.5 19.0696 111.07 18.6996C110.66 18.3096 110.46 17.8296 110.46 17.2596V10.9796C110.46 10.4896 110.37 10.0796 110.18 9.75957C110 9.40957 109.79 9.14957 109.57 8.95957C109.35 8.75957 109.11 8.60957 108.87 8.52957C108.63 8.42957 108.38 8.37957 108.14 8.37957C107.9 8.37957 107.65 8.42957 107.41 8.52957C107.19 8.60957 106.96 8.74957 106.74 8.95957C106.52 9.13957 106.31 9.40957 106.13 9.75957C105.95 10.0896 105.84 10.4896 105.82 10.9796V17.2596C105.7 18.4796 105.02 19.1496 103.8 19.2496C103.23 19.2496 102.73 19.0696 102.3 18.6996C101.89 18.3096 101.69 17.8296 101.69 17.2596V10.9796C101.69 10.4896 101.6 10.0796 101.41 9.75957C101.23 9.40957 101.02 9.14957 100.8 8.95957C100.58 8.75957 100.34 8.60957 100.1 8.52957C99.8598 8.42957 99.6098 8.37957 99.3698 8.37957C99.1298 8.37957 98.8798 8.42957 98.6398 8.52957C98.4198 8.60957 98.1898 8.74957 97.9698 8.95957C97.7498 9.13957 97.5398 9.40957 97.3598 9.75957C97.1798 10.0896 97.0698 10.4896 97.0498 10.9796V17.2596C96.9498 18.4796 96.2898 19.1496 95.0598 19.2496C94.4898 19.2496 93.9898 19.0696 93.5598 18.6996C93.1498 18.3096 92.9498 17.8296 92.9498 17.2596V10.7396C92.9898 9.63957 93.2498 8.68957 93.7198 7.88957C94.1898 7.08957 94.7398 6.45957 95.3698 5.98957C95.9998 5.49957 96.6598 5.12957 97.3298 4.88957C97.9898 4.63957 98.6898 4.51957 99.3798 4.51957ZM119.04 8.82957C119.43 7.84957 120.08 6.96957 121 6.19957C121.94 5.39957 123.12 4.99957 124.55 4.97957H136.06C136.63 4.97957 137.11 5.17957 137.5 5.58957C137.91 5.97957 138.11 6.45957 138.11 7.02957C138.11 7.59957 137.91 8.08957 137.5 8.49957C137.11 8.88957 136.63 9.07957 136.06 9.07957H124.43C124.04 9.07957 123.71 9.23957 123.42 9.56957C123.13 9.87957 122.91 10.2396 122.75 10.6696C122.61 11.0996 122.54 11.5096 122.54 11.8896V17.2496C122.42 18.4696 121.74 19.1396 120.52 19.2396C119.95 19.2396 119.45 19.0596 119.02 18.6896C118.61 18.2996 118.41 17.8196 118.41 17.2496V11.9196H118.44C118.42 10.8596 118.63 9.82957 119.04 8.82957ZM147.48 18.8696C145.68 18.8096 144.33 18.3896 143.41 17.6096C142.49 16.8096 141.83 15.9296 141.42 14.9496C141.01 13.9496 140.81 12.9396 140.81 11.9196C140.81 10.8596 141 9.83957 141.39 8.85957C141.8 7.85957 142.46 6.96957 143.38 6.19957C144.32 5.39957 145.5 4.99957 146.93 4.97957H156.85C158.28 4.99957 159.45 5.40957 160.37 6.19957C161.31 6.97957 161.97 7.85957 162.36 8.85957C162.77 9.83957 162.97 10.8596 162.97 11.9196C162.97 12.9396 162.77 13.9496 162.36 14.9496C161.95 15.9296 161.29 16.8196 160.37 17.6096C159.45 18.3896 158.09 18.7996 156.3 18.8696H147.48ZM146.81 9.07957C146.42 9.07957 146.09 9.23957 145.8 9.56957C145.51 9.87957 145.3 10.2396 145.16 10.6696C145.04 11.0796 144.98 11.4896 144.98 11.8896C144.98 12.3196 145.04 12.7496 145.16 13.1796C145.3 13.5896 145.52 13.9596 145.8 14.2796C146.09 14.5896 146.42 14.7496 146.81 14.7696H156.97C157.36 14.7496 157.69 14.5896 157.98 14.2796C158.27 13.9496 158.47 13.5896 158.59 13.1796C158.73 12.7496 158.8 12.3196 158.8 11.8896C158.8 11.4796 158.73 11.0696 158.59 10.6696C158.47 10.2396 158.26 9.86957 157.98 9.56957C157.69 9.23957 157.36 9.07957 156.97 9.07957H146.81ZM176.26 4.51957C177.32 4.51957 178.36 4.63957 179.38 4.88957C180.42 5.12957 181.41 5.49957 182.35 5.98957C183.29 6.45957 184.12 7.08957 184.83 7.88957C185.56 8.68957 185.96 9.63957 186.02 10.7396V12.0296V17.2696C185.9 18.4896 185.22 19.1596 184 19.2596C183.43 19.2596 182.93 19.0796 182.5 18.7096C182.09 18.3196 181.89 17.8396 181.89 17.2696V15.8996V11.6696C181.85 11.0396 181.6 10.5196 181.16 10.1096C180.73 9.67957 180.24 9.33957 179.69 9.09957C179.16 8.85957 178.6 8.66957 178.01 8.54957C177.44 8.42957 176.86 8.36957 176.26 8.36957C175.66 8.36957 175.08 8.42957 174.48 8.54957C173.91 8.66957 173.35 8.85957 172.8 9.09957C172.27 9.33957 171.78 9.67957 171.33 10.1096C170.9 10.5196 170.67 11.0396 170.63 11.6696V15.8996V17.2496C170.53 18.4696 169.86 19.1396 168.64 19.2396C168.07 19.2396 167.57 19.0596 167.14 18.6896C166.73 18.2996 166.53 17.8196 166.53 17.2496V12.0096V10.7196C166.59 9.61957 166.98 8.66957 167.69 7.86957C168.4 7.06957 169.23 6.43957 170.17 5.96957C171.11 5.47957 172.09 5.10957 173.11 4.86957C174.15 4.63957 175.2 4.51957 176.26 4.51957Z" fill="#E03F13"/>
<path d="M48.6203 26.0896C48.9803 26.0896 49.3204 26.1496 49.6604 26.2696C50.0104 26.3896 50.3404 26.5697 50.6504 26.8097C50.7004 26.8597 50.7604 26.9096 50.8204 26.9596C50.8704 26.9096 50.9304 26.8597 50.9904 26.8097C51.3104 26.5797 51.6304 26.3996 51.9704 26.2696C52.3204 26.1496 52.6603 26.0896 53.0103 26.0896C53.3703 26.0896 53.7104 26.1496 54.0504 26.2696C54.4004 26.3896 54.7203 26.5796 55.0303 26.8196C55.3503 27.0496 55.6204 27.3696 55.8604 27.7696C56.1004 28.1696 56.2304 28.6396 56.2304 29.1896V32.4496C56.1704 33.0596 55.8304 33.3896 55.2204 33.4496C54.9304 33.4496 54.6804 33.3596 54.4704 33.1696C54.2704 32.9796 54.1604 32.7396 54.1604 32.4496V29.3097C54.1604 29.0697 54.1104 28.8596 54.0204 28.6996C53.9304 28.5296 53.8304 28.3896 53.7104 28.2996C53.6004 28.1996 53.4804 28.1296 53.3604 28.0896C53.2404 28.0396 53.1204 28.0096 52.9904 28.0096C52.8604 28.0096 52.7503 28.0396 52.6203 28.0896C52.5103 28.1296 52.4003 28.1996 52.2803 28.2996C52.1703 28.3896 52.0704 28.5196 51.9704 28.6996C51.8804 28.8596 51.8304 29.0697 51.8204 29.3097V32.4496C51.7604 33.0596 51.4204 33.3896 50.8104 33.4496C50.5204 33.4496 50.2704 33.3596 50.0604 33.1696C49.8604 32.9796 49.7504 32.7396 49.7504 32.4496V29.3097C49.7504 29.0697 49.7004 28.8596 49.6104 28.6996C49.5204 28.5296 49.4204 28.3896 49.3004 28.2996C49.1904 28.1996 49.0704 28.1296 48.9504 28.0896C48.8304 28.0396 48.7104 28.0096 48.5804 28.0096C48.4504 28.0096 48.3404 28.0396 48.2104 28.0896C48.1004 28.1296 47.9903 28.1996 47.8703 28.2996C47.7603 28.3896 47.6604 28.5196 47.5604 28.6996C47.4704 28.8596 47.4204 29.0697 47.4104 29.3097V32.4496C47.3604 33.0596 47.0303 33.3896 46.4203 33.4496C46.1303 33.4496 45.8803 33.3596 45.6703 33.1696C45.4703 32.9796 45.3604 32.7396 45.3604 32.4496V29.1996C45.3804 28.6496 45.5104 28.1696 45.7404 27.7796C45.9704 27.3796 46.2504 27.0697 46.5704 26.8297C46.8904 26.5897 47.2104 26.3996 47.5504 26.2796C47.9204 26.1596 48.2703 26.0896 48.6203 26.0896ZM63.0004 33.5296C62.4704 33.5296 61.9403 33.4696 61.4203 33.3496C60.9103 33.2296 60.4203 33.0496 59.9503 32.8096C59.4803 32.5696 59.0704 32.2396 58.7104 31.8496C58.3504 31.4496 58.1603 30.9796 58.1303 30.4296V29.7896V27.1696C58.1303 26.8796 58.2304 26.6497 58.4404 26.4697C58.6504 26.2797 58.9004 26.1796 59.1904 26.1796C59.8004 26.2296 60.1304 26.5596 60.1904 27.1796V27.8496V29.9596C60.2104 30.2796 60.3304 30.5396 60.5404 30.7596C60.7604 30.9596 61.0103 31.1296 61.2703 31.2496C61.5503 31.3696 61.8304 31.4596 62.1104 31.5296C62.4104 31.5896 62.7004 31.6197 63.0004 31.6197C63.3004 31.6197 63.5904 31.5896 63.8704 31.5296C64.1704 31.4696 64.4504 31.3796 64.7104 31.2496C64.9904 31.1296 65.2303 30.9596 65.4503 30.7596C65.6703 30.5496 65.8004 30.2796 65.8204 29.9596V27.8496V27.1796C65.8204 26.8896 65.9203 26.6596 66.1303 26.4796C66.3403 26.2896 66.5903 26.1896 66.8803 26.1896C67.4903 26.2396 67.8304 26.5696 67.8904 27.1896V29.8097V30.4496C67.8604 30.9996 67.6604 31.4797 67.2904 31.8697C66.9304 32.2697 66.5204 32.5897 66.0504 32.8297C65.5804 33.0597 65.0903 33.2397 64.5603 33.3697C64.0603 33.4697 63.5404 33.5296 63.0004 33.5296ZM79.5704 27.2096C79.5704 27.4696 79.4704 27.6796 79.2604 27.8496C79.0704 28.0096 78.8304 28.0896 78.5404 28.0896H72.0603C71.9303 28.0896 71.8203 28.1196 71.7403 28.1696C71.6603 28.2196 71.6003 28.2796 71.5603 28.3396C71.5203 28.3896 71.5004 28.4396 71.5004 28.4796C71.5004 28.5296 71.5203 28.5897 71.5603 28.6497C71.6003 28.6997 71.6603 28.7496 71.7403 28.7996C71.8203 28.8396 71.9303 28.8697 72.0603 28.8797H77.0704C77.7104 28.8897 78.2404 29.0196 78.6604 29.2596C79.0804 29.4896 79.3704 29.7796 79.5504 30.0996C79.7304 30.4196 79.8304 30.7396 79.8304 31.0596C79.8304 31.3796 79.7404 31.6996 79.5504 32.0196C79.3704 32.3396 79.0704 32.6196 78.6504 32.8596C78.2404 33.0896 77.7204 33.2096 77.0704 33.2096C76.9604 33.2196 76.8804 33.2297 76.8304 33.2297H70.8904C70.6004 33.2297 70.3604 33.1496 70.1604 32.9896C69.9704 32.8196 69.8704 32.6096 69.8704 32.3596C69.8704 32.0996 69.9704 31.8897 70.1804 31.7197C70.3704 31.5597 70.6104 31.4797 70.9004 31.4797H77.2104C77.3604 31.4897 77.4904 31.4696 77.5804 31.4196C77.6804 31.3696 77.7603 31.3096 77.8103 31.2496C77.8603 31.1896 77.8904 31.1296 77.8904 31.0696C77.8904 31.0396 77.8603 30.9896 77.8103 30.9196C77.7603 30.8396 77.6804 30.7797 77.5804 30.7397C77.4904 30.6897 77.3704 30.6597 77.2104 30.6497H72.1904C71.6004 30.6397 71.1104 30.5196 70.7204 30.2796C70.3304 30.0396 70.0604 29.7496 69.8904 29.4396C69.7204 29.1296 69.6504 28.8097 69.6504 28.4897C69.6504 28.1697 69.7304 27.8597 69.8904 27.5597C70.0604 27.2397 70.3404 26.9696 70.7204 26.7496C71.1104 26.5196 71.6004 26.3896 72.1904 26.3696C72.2904 26.3596 72.3703 26.3496 72.4203 26.3496H78.5603C78.8503 26.3496 79.0903 26.4396 79.2803 26.6096C79.4703 26.7596 79.5704 26.9696 79.5704 27.2096ZM82.5804 26.1696C82.8604 26.1796 83.0903 26.2796 83.2803 26.4796C83.4703 26.6596 83.5803 26.8896 83.5903 27.1696V32.4697C83.5303 33.0797 83.1904 33.4097 82.5804 33.4697C82.2904 33.4697 82.0404 33.3797 81.8304 33.1897C81.6304 32.9997 81.5203 32.7597 81.5203 32.4697V27.1696C81.5303 26.8796 81.6403 26.6497 81.8403 26.4697C82.0503 26.2697 82.3004 26.1696 82.5804 26.1696ZM81.3004 24.1796C81.3004 23.8896 81.4203 23.6496 81.6703 23.4496C81.9103 23.2496 82.2103 23.1396 82.5603 23.1396C82.9103 23.1396 83.2003 23.2396 83.4503 23.4496C83.6903 23.6496 83.8204 23.8996 83.8204 24.1796C83.8204 24.4796 83.7003 24.7296 83.4503 24.9296C83.2103 25.1296 82.9103 25.2397 82.5603 25.2397C82.2103 25.2397 81.9203 25.1396 81.6703 24.9296C81.4203 24.7196 81.3004 24.4796 81.3004 24.1796ZM88.5704 33.2696C87.6704 33.2396 86.9903 33.0296 86.5303 32.6396C86.0703 32.2396 85.7404 31.7996 85.5404 31.3096C85.3404 30.8096 85.2304 30.2996 85.2304 29.7896C85.2304 29.2596 85.3303 28.7496 85.5203 28.2596C85.7203 27.7596 86.0603 27.3196 86.5203 26.9296C86.9903 26.5296 87.5804 26.3296 88.3004 26.3196H94.1204C94.4104 26.3196 94.6503 26.4197 94.8403 26.6297C95.0403 26.8197 95.1504 27.0596 95.1504 27.3496C95.1504 27.6396 95.0503 27.8797 94.8403 28.0797C94.6503 28.2697 94.4104 28.3696 94.1204 28.3696H88.2403C88.0503 28.3696 87.8804 28.4496 87.7304 28.6096C87.5904 28.7596 87.4804 28.9496 87.4104 29.1596C87.3504 29.3596 87.3204 29.5696 87.3204 29.7696C87.3204 29.9796 87.3504 30.1996 87.4104 30.4096C87.4804 30.6096 87.5904 30.7996 87.7304 30.9596C87.8704 31.1096 88.0403 31.1896 88.2403 31.1996H94.1204C94.4104 31.1996 94.6503 31.2997 94.8403 31.5097C95.0403 31.6997 95.1504 31.9397 95.1504 32.2297C95.1504 32.5197 95.0503 32.7596 94.8403 32.9496C94.6503 33.1496 94.4104 33.2597 94.1204 33.2597H88.5704V33.2696Z" fill="#4158A4"/>
<path d="M35.0598 13.18L29.1798 9.75995V5.03995C29.1798 1.67995 25.5798 -0.420049 22.6898 1.25995L18.6398 3.61995L14.5398 1.22995C11.6598 -0.450048 8.04977 1.64995 8.04977 5.00995V9.78995L2.16977 13.21C-0.710234 14.89 -0.710234 19.08 2.16977 20.76L8.04977 24.18V28.9C8.04977 32.26 11.6498 34.36 14.5398 32.68L18.5898 30.32L22.6898 32.7099C25.5698 34.3899 29.1798 32.29 29.1798 28.93V24.15L35.0598 20.73C37.9398 19.06 37.9398 14.86 35.0598 13.18ZM32.8398 20.65L27.1198 23.98V22.71C27.1198 21.66 28.0298 20.84 29.0598 20.96C29.2798 20.99 29.4998 21 29.7298 20.99C31.8198 20.9 33.5198 19.2 33.6298 17.09C33.7398 14.75 31.9198 12.82 29.6298 12.78C27.3498 12.74 25.4898 14.64 25.4898 16.95V24.93L16.2398 30.31C13.3598 31.99 9.74977 29.89 9.74977 26.53V7.20995C9.74977 3.84995 13.3498 1.74995 16.2398 3.42995L21.2898 6.35995V10.01C21.2898 11.68 19.8498 13 18.1998 12.79C17.8498 12.75 17.4898 12.73 17.1298 12.75C13.7998 12.89 11.0898 15.6 10.9298 18.95C10.7498 22.67 13.6598 25.76 17.2998 25.82C20.9398 25.88 23.8998 22.85 23.8998 19.19V7.87995L32.8598 13.1C35.7298 14.77 35.7298 18.97 32.8398 20.65ZM31.4798 14.45C31.7798 14.3 32.2898 14.71 32.6298 15.38C32.9698 16.05 33.0098 16.72 32.7198 16.87C32.4198 17.02 31.9098 16.61 31.5698 15.94C31.2298 15.27 31.1898 14.61 31.4798 14.45ZM14.0898 23.32C13.5898 23.58 12.7098 22.87 12.1298 21.74C11.5498 20.61 11.4798 19.48 11.9798 19.21C12.4798 18.95 13.3598 19.66 13.9398 20.79C14.5298 21.93 14.5998 23.07 14.0898 23.32Z" fill="#E03F13"/>
</svg>
