<svg width="1326" height="113" viewBox="0 0 1326 113" fill="none" xmlns="http://www.w3.org/2000/svg">
<path d="M847.062 111.91L873.603 0.00976562L917.883 78.0198L962.323 0.00976562L988.863 111.91H966.643L952.093 48.9298L917.883 111.91L883.833 48.9298L869.282 111.91H847.062Z" fill="#3C56D6"/>
<path d="M993.883 36.54C1005.36 36.54 1014.66 45.23 1014.66 55.95V74.01C1014.66 76 1015.14 78.19 1016.1 80.58C1017.06 82.97 1018.55 85.26 1020.58 87.45C1022.6 89.64 1025.22 91.4601 1028.41 92.9001C1031.61 94.3401 1035.5 95.0701 1040.08 95.0701C1044.77 95.0701 1048.71 94.32 1051.91 92.83C1055.11 91.34 1057.69 89.4501 1059.66 87.1601C1061.63 84.8701 1063.07 82.53 1063.98 80.14C1064.88 77.75 1065.34 75.7101 1065.34 74.0201V55.9601C1065.34 45.2401 1074.64 36.55 1086.12 36.55V74.0201C1086.12 79.2 1084.92 84.1 1082.52 88.73C1080.12 93.36 1076.82 97.3901 1072.61 100.82C1068.4 104.25 1063.52 106.97 1057.98 108.96C1052.44 110.95 1046.47 111.95 1040.08 111.95C1033.69 111.95 1027.72 110.96 1022.18 108.96C1016.64 106.97 1011.73 104.26 1007.47 100.82C1003.21 97.3901 999.883 93.35 997.483 88.73C995.083 84.1 993.883 79.2 993.883 74.0201V36.54V36.54Z" fill="#3C56D6"/>
<path d="M1099.34 87.2998H1106.26C1112.81 87.2998 1119.17 89.3798 1124.27 93.2198C1125.21 93.9298 1126.28 94.5898 1127.48 95.2098C1131.53 97.2998 1136.91 98.3499 1143.63 98.3499C1147.79 98.3499 1151.67 97.9499 1155.3 97.1599C1158.92 96.3599 1161.83 95.1198 1164.01 93.4298C1166.19 91.7398 1167.29 89.4998 1167.29 86.7098C1167.29 84.6198 1166.25 83.1298 1164.17 82.2298C1162.09 81.3298 1159.4 80.7898 1156.1 80.5898C1152.8 80.3898 1149.33 80.2898 1145.71 80.2898H1129.09C1124.51 80.2898 1119.92 79.6399 1115.34 78.3499C1110.76 77.0599 1106.95 74.9898 1103.91 72.1498C1100.87 69.3098 1099.35 65.6098 1099.35 61.0298C1099.35 56.4498 1100.71 52.5699 1103.43 49.3799C1106.15 46.1999 1109.69 43.6298 1114.06 41.6898C1118.43 39.7498 1123.14 38.3298 1128.21 37.4298C1133.27 36.5298 1138.15 36.0898 1142.84 36.0898C1147 36.0898 1151.45 36.4898 1156.19 37.2798C1160.93 38.0798 1165.46 39.3998 1169.78 41.2398C1174.1 43.0798 1177.69 45.4898 1180.57 48.4798C1183.45 51.4698 1185.1 55.1498 1185.53 59.5298C1185.53 60.0298 1185.58 60.4298 1185.69 60.7198H1179.85C1173.17 60.7198 1166.82 58.4099 1161.54 54.5699C1161.52 54.5499 1161.49 54.5398 1161.47 54.5198C1159.18 52.8798 1156.41 51.6298 1153.16 50.7898C1149.91 49.9498 1146.58 49.5198 1143.17 49.5198C1139.76 49.5198 1136.24 49.8398 1132.62 50.4898C1129 51.1398 1125.93 52.2599 1123.43 53.8499C1120.92 55.4399 1119.67 57.6799 1119.67 60.5699C1119.67 62.7599 1120.6 64.3298 1122.47 65.2698C1124.33 66.2198 1126.73 66.7898 1129.66 66.9898C1132.59 67.1898 1135.6 67.2898 1138.69 67.2898H1155.8C1159.21 67.2898 1162.78 67.5398 1166.51 68.0398C1170.24 68.5398 1173.73 69.4298 1176.98 70.7298C1180.23 72.0198 1182.87 73.8898 1184.89 76.3298C1186.91 78.7698 1187.93 81.8799 1187.93 85.6599C1187.93 90.6399 1186.65 94.8398 1184.09 98.2798C1181.53 101.71 1178.1 104.48 1173.78 106.57C1169.46 108.66 1164.61 110.15 1159.23 111.05C1153.85 111.95 1148.38 112.39 1142.84 112.39C1138.79 112.39 1134.29 112.02 1129.33 111.27C1124.37 110.52 1120.03 109.26 1116.3 107.46C1113.95 106.37 1111.48 104.8 1108.87 102.76C1106.26 100.72 1104.02 98.4598 1102.16 95.9698C1100.29 93.4798 1099.36 90.9898 1099.36 88.4998V87.2998H1099.34Z" fill="#3C56D6"/>
<path d="M1201.53 111.94V47.5802C1201.53 41.4902 1206.47 36.5502 1212.56 36.5502C1218.65 36.5502 1223.59 41.4902 1223.59 47.5802V111.94H1201.53ZM1212.4 26.9902C1209.42 26.9902 1206.91 26.0702 1204.89 24.2302C1202.86 22.3902 1201.85 20.0802 1201.85 17.2902C1201.85 14.5002 1202.86 12.1602 1204.89 10.2702C1206.91 8.38017 1209.42 7.43018 1212.4 7.43018C1215.38 7.43018 1217.89 8.38017 1219.91 10.2702C1221.93 12.1602 1222.95 14.5002 1222.95 17.2902C1222.95 19.9802 1221.94 22.2702 1219.91 24.1602C1217.89 26.0402 1215.38 26.9902 1212.4 26.9902Z" fill="#3C56D6"/>
<path d="M1236.74 74.1701C1236.74 68.9001 1237.94 63.9901 1240.34 59.4601C1242.74 54.9301 1246.04 50.9302 1250.25 47.4402C1254.46 43.9602 1259.33 41.2401 1264.88 39.3001C1270.42 37.3601 1276.39 36.3901 1282.78 36.3901C1289.17 36.3901 1295.25 37.4302 1301 39.5302C1306.75 41.6202 1311.82 44.5301 1316.19 48.2601C1320.56 51.9901 1323.81 56.3502 1325.94 61.3202L1314.56 64.0201C1310.24 65.0401 1305.72 63.7701 1302.61 60.7901C1301.31 59.5501 1299.76 58.3501 1297.96 57.2101C1293.8 54.5701 1288.74 53.2502 1282.77 53.2502C1277.87 53.2502 1273.42 54.1701 1269.42 56.0101C1265.42 57.8501 1262.28 60.3701 1259.99 63.5501C1257.7 66.7401 1256.55 70.3201 1256.55 74.3001C1256.55 78.0801 1257.72 81.5702 1260.07 84.7502C1262.41 87.9402 1265.56 90.4701 1269.5 92.3601C1273.44 94.2501 1277.87 95.2001 1282.77 95.2001C1286.5 95.2001 1289.91 94.6002 1293 93.4102C1296.09 92.2202 1298.67 90.7701 1300.75 89.0801C1300.77 89.0601 1300.79 89.0502 1300.81 89.0302C1304.14 86.3102 1308.72 85.3701 1312.92 86.6701L1324.49 90.2701C1320.76 96.8401 1315.16 102.12 1307.7 106.1C1300.24 110.08 1291.87 112.07 1282.6 112.07C1276.31 112.07 1270.4 111.08 1264.86 109.08C1259.32 107.09 1254.44 104.38 1250.23 100.94C1246.02 97.5102 1242.72 93.5001 1240.32 88.9201C1237.94 84.3701 1236.74 79.4401 1236.74 74.1701Z" fill="#3C56D6"/>
<path d="M119.033 42.6599L99.0625 31.1299V15.2399C99.0625 3.9299 86.8225 -3.1301 77.0325 2.5199L63.2725 10.4599L49.3425 2.41991C39.5525 -3.23009 27.3125 3.82991 27.3125 15.1399V31.2299L7.3425 42.7599C-2.4475 48.4099 -2.4475 62.5499 7.3425 68.1999L27.3125 79.7299V95.6199C27.3125 106.93 39.5525 113.99 49.3425 108.34L63.1025 100.4L77.0325 108.44C86.8225 114.09 99.0625 107.03 99.0625 95.7199V79.6299L119.033 68.0999C128.823 62.4499 128.823 48.3099 119.033 42.6599ZM111.512 67.8099L92.0925 79.0199V74.7399C92.0925 71.1999 95.1725 68.4199 98.6825 68.8499C99.4325 68.9399 100.193 68.9699 100.973 68.9399C108.073 68.6499 113.852 62.9199 114.202 55.8199C114.592 47.9499 108.382 41.4299 100.622 41.2999C92.8625 41.1699 86.5625 47.5699 86.5625 55.3299V82.1999L55.1625 100.33C45.3725 105.98 33.1325 98.9199 33.1325 87.6099V22.5299C33.1325 11.2199 45.3725 4.15991 55.1625 9.80991L72.2825 19.6999V31.9999C72.2825 37.6299 67.3725 42.0599 61.7825 41.3699C60.5925 41.2199 59.3825 41.1699 58.1425 41.2199C46.8425 41.6899 37.6425 50.8099 37.0825 62.1099C36.4725 74.6499 46.3425 85.0299 58.7025 85.2299C71.0625 85.4299 81.0925 75.2399 81.0925 62.8899V24.7799L111.522 42.3499C121.302 48.0199 121.302 62.1499 111.512 67.8099ZM106.892 46.9299C107.892 46.4099 109.653 47.8199 110.812 50.0699C111.972 52.3199 112.103 54.5699 111.103 55.0799C110.103 55.5999 108.342 54.1899 107.182 51.9399C106.022 49.6899 105.892 47.4499 106.892 46.9299ZM47.8625 76.8099C46.1625 77.6899 43.1925 75.2999 41.2125 71.4799C39.2425 67.6599 39.0225 63.8499 40.7225 62.9699C42.4225 62.0899 45.3925 64.4799 47.3725 68.2999C49.3425 72.1299 49.5625 75.9399 47.8625 76.8099Z" fill="#E03E10"/>
<path d="M146.652 75.3H168.662C175.362 75.3 181.932 77.75 186.672 82.5C186.862 82.69 187.052 82.87 187.262 83.05C189.602 85.13 192.512 86.65 195.972 87.61C199.432 88.57 202.822 89.05 206.122 89.05C209.532 89.05 213.072 88.6 216.752 87.69C220.242 86.83 223.232 85.51 225.722 83.74C228.252 81.93 229.882 79.11 229.942 76C229.992 73.34 229.092 71.32 227.222 69.95C225.412 68.62 223.092 67.71 220.272 67.23C217.442 66.75 214.652 66.51 211.882 66.51H186.302C181.932 66.51 177.432 65.93 172.792 64.75C168.152 63.58 163.862 61.77 159.922 59.31C155.982 56.86 152.782 53.77 150.332 50.04C147.882 46.31 146.652 41.83 146.652 36.61C146.652 31.39 147.902 26.78 150.412 22.78C152.912 18.78 156.272 15.35 160.482 12.47C164.692 9.58999 169.402 7.21999 174.632 5.35999C179.852 3.49999 185.232 2.14 190.782 1.28C196.322 0.429999 201.652 0 206.772 0C213.592 0 220.362 0.719988 227.072 2.15999C233.782 3.59999 239.862 5.80999 245.292 8.78999C250.732 11.77 255.092 15.56 258.402 20.14C261.702 24.72 263.362 30.16 263.362 36.45H244.442C237.102 36.45 230.052 33.61 224.752 28.54C222.562 26.46 219.872 24.92 216.682 23.9C213.482 22.89 210.132 22.38 206.612 22.38C203.312 22.38 199.872 22.83 196.302 23.74C192.732 24.65 189.722 26.06 187.272 27.98C184.822 29.9 183.592 32.35 183.592 35.33C183.592 38 184.632 39.99 186.712 41.32C188.792 42.65 191.242 43.53 194.062 43.96C196.882 44.39 199.412 44.6 201.652 44.6H226.752C231.332 44.6 235.942 45.19 240.582 46.36C245.222 47.53 249.482 49.34 253.372 51.8C257.262 54.25 260.402 57.4 262.802 61.23C265.202 65.06 266.402 69.7 266.402 75.14C266.402 80.68 265.152 85.51 262.642 89.61C260.142 93.71 256.752 97.18 252.492 100C248.232 102.83 243.512 105.09 238.342 106.79C233.172 108.5 227.892 109.75 222.512 110.55C217.132 111.35 212.042 111.75 207.242 111.75C202.762 111.75 197.812 111.41 192.372 110.71C186.932 110.02 181.552 108.85 176.222 107.19C170.892 105.54 165.992 103.33 161.512 100.56C157.032 97.79 153.442 94.33 150.722 90.17C148.012 86.01 146.652 81.05 146.652 75.3Z" fill="#E03E10"/>
<path d="M282.652 36.54C298.192 36.54 310.792 48.3001 310.792 62.8201V74.0201C310.792 76.2101 311.432 78.5201 312.712 80.9601C313.992 83.4001 315.962 85.4601 318.632 87.1601C321.292 88.8501 324.702 89.7 328.862 89.7C333.122 89.7 336.562 88.8301 339.172 87.0901C341.782 85.3501 343.702 83.2601 344.922 80.8201C346.142 78.3801 346.762 76.1201 346.762 74.0301V62.83C346.762 48.32 359.362 36.55 374.892 36.55V74.0201C374.892 79.2 373.692 84.1 371.292 88.73C368.892 93.36 365.592 97.3901 361.382 100.82C357.172 104.25 352.292 106.97 346.752 108.96C341.212 110.95 335.242 111.95 328.852 111.95C322.462 111.95 316.492 110.96 310.952 108.96C305.412 106.97 300.502 104.26 296.242 100.82C291.982 97.3901 288.652 93.35 286.252 88.73C283.852 84.1 282.652 79.2 282.652 74.0201V36.54V36.54Z" fill="#E03E10"/>
<path d="M391.633 36.3902H411.453C416.133 36.3902 419.923 39.9302 419.923 44.3002C422.583 42.1102 425.973 40.2502 430.073 38.7002C434.173 37.1602 438.673 36.3902 443.583 36.3902C449.443 36.3902 454.693 37.4902 459.333 39.6702C463.973 41.8602 467.243 44.7002 469.163 48.1802C472.363 44.7002 476.513 41.8303 481.633 39.6003C486.753 37.3603 492.343 36.2402 498.423 36.2402C509.823 36.2402 518.133 39.2803 523.363 45.3503C528.583 51.4203 531.193 60.0302 531.193 71.1802V111.94H504.173V74.0202C504.173 62.9702 499.913 57.4502 491.383 57.4502C486.483 57.4502 482.593 59.0902 479.713 62.3802C476.833 65.6602 475.393 69.5502 475.393 74.0202V111.94H448.373V74.6202C448.373 69.6402 447.443 65.5102 445.573 62.2302C443.703 58.9502 440.643 57.3002 436.383 57.3002C432.763 57.3002 429.723 58.1002 427.273 59.6902C424.823 61.2802 422.953 63.1802 421.683 65.3602C420.403 67.5502 419.763 69.5402 419.763 71.3302C419.763 73.4202 419.763 76.2802 419.763 79.9102C419.763 83.5402 419.783 87.4302 419.843 91.5602C419.893 95.6902 419.923 99.6002 419.923 103.28C419.923 106.96 419.923 109.85 419.923 111.94H391.633V36.3902V36.3902Z" fill="#E03E10"/>
<path d="M597.612 58.3401C591.642 58.3401 586.712 59.6601 582.822 62.3001C578.932 64.9401 576.992 69.4401 576.992 75.8101V84.1701C576.992 99.3401 563.822 111.64 547.582 111.64C547.582 103.58 547.552 95.8701 547.502 88.5001C547.452 81.1401 547.422 73.4201 547.422 65.3601C547.422 59.7901 548.752 54.8101 551.422 50.4301C554.082 46.0501 557.712 42.5701 562.292 39.9801C566.872 37.3901 571.992 36.1001 577.642 36.1001H607.052V49.3901C607.042 54.2701 602.842 58.2601 597.612 58.3401Z" fill="#E03E10"/>
<path d="M723.812 111.94V63.87C723.812 48.62 737.053 36.25 753.383 36.25V47.15C756.043 44.36 759.833 41.88 764.733 39.68C769.633 37.49 774.963 36.4 780.723 36.4C789.463 36.4 796.763 38.19 802.623 41.77C808.483 45.35 812.853 50.28 815.733 56.55C818.613 62.82 820.052 69.89 820.052 77.75V111.94H790.483V80.14C790.483 76.86 790.082 73.47 789.282 69.99C788.482 66.51 786.912 63.55 784.562 61.11C782.213 58.67 778.643 57.45 773.853 57.45C768.843 57.45 764.843 58.7 761.863 61.18C758.883 63.67 756.692 66.63 755.312 70.06C753.923 73.49 753.233 76.61 753.233 79.39L753.393 111.94H723.812V111.94Z" fill="#E03E10"/>
<path d="M661.552 111.94C655.802 111.94 650.202 111.04 644.762 109.25C639.322 107.46 634.392 104.92 629.972 101.64C625.552 98.3602 622.032 94.3802 619.422 89.7002C616.812 85.0202 615.502 79.8502 615.502 74.1702C615.502 68.5002 616.802 63.3202 619.422 58.6402C622.032 53.9602 625.552 49.9602 629.972 46.6202C634.392 43.2902 639.322 40.7202 644.762 38.9302C650.202 37.1402 655.792 36.2402 661.552 36.2402C667.312 36.2402 672.902 37.1402 678.342 38.9302C683.782 40.7202 688.702 43.2902 693.132 46.6202C697.552 49.9602 701.072 53.9602 703.682 58.6402C706.292 63.3202 707.602 68.4902 707.602 74.1702C707.602 79.8402 706.292 85.0202 703.682 89.7002C701.072 94.3802 697.552 98.3602 693.132 101.64C688.712 104.92 683.782 107.46 678.342 109.25C672.902 111.04 667.312 111.94 661.552 111.94ZM642.372 74.1702C642.372 77.2602 643.272 79.9402 645.092 82.2302C646.902 84.5202 649.272 86.3402 652.202 87.6802C655.132 89.0202 658.252 89.7002 661.552 89.7002C664.752 89.7002 667.812 89.0502 670.742 87.7602C673.672 86.4702 676.072 84.6502 677.932 82.3102C679.792 79.9702 680.732 77.2602 680.732 74.1702C680.732 71.0902 679.802 68.3502 677.932 65.9602C676.062 63.5702 673.672 61.7302 670.742 60.4402C667.812 59.1502 664.752 58.5002 661.552 58.5002C658.252 58.5002 655.132 59.1502 652.202 60.4402C649.272 61.7302 646.902 63.5802 645.092 65.9602C643.272 68.3402 642.372 71.0802 642.372 74.1702Z" fill="#E03E10"/>
</svg>
