<svg width="50" height="43" viewBox="0 0 50 43" fill="none" xmlns="http://www.w3.org/2000/svg">
<path d="M47.7058 3.92322L39.0045 0.29812C38.05 -0.0994385 36.9552 -0.0993409 36.0008 0.298218L31.8231 2.03835C31.4497 2.19402 31.273 2.62273 31.4286 2.99617C31.5841 3.3696 32.0129 3.54636 32.3864 3.3907L36.5641 1.65046C37.1603 1.40203 37.8446 1.40193 38.4413 1.65037L47.1422 5.27527C47.9884 5.6283 48.5354 6.42214 48.5354 7.29744V38.6207C48.5354 39.8387 47.4892 40.8297 46.2034 40.8297H45.0159C44.6113 40.8297 44.2835 41.1575 44.2835 41.5621C44.2835 41.9667 44.6113 42.2945 45.0159 42.2945H46.2034C48.2969 42.2945 50.0003 40.6465 50.0003 38.6207V7.29744C50.0003 5.82908 49.0997 4.50466 47.7058 3.92322V3.92322Z" fill="#939393"/>
<path d="M41.8232 40.8295H29.5166C30.0233 40.2536 30.3008 39.5228 30.3008 38.7494C30.3008 37.9777 30.0214 37.2703 29.5591 36.7219C29.8506 36.5732 30.1205 36.3786 30.3588 36.1404C30.9537 35.5453 31.2813 34.7542 31.2813 33.9125C31.2813 33.1102 30.9793 32.3774 30.4837 31.8205C30.7291 31.6816 30.9576 31.5093 31.1623 31.3044C31.7572 30.7096 32.0849 29.9185 32.0849 29.0766C32.0849 28.2766 31.7848 27.5456 31.292 26.9893C31.5415 26.8493 31.7739 26.6748 31.9823 26.4669C32.5769 25.871 32.9042 25.0801 32.9042 24.2396C32.9042 22.5019 31.4909 21.0882 29.7537 21.0882H26.4695V7.2972C26.4695 6.42181 27.0165 5.62796 27.8624 5.27513L29.1945 4.72044C29.568 4.56498 29.7446 4.13626 29.5892 3.76273C29.4336 3.38929 29.0049 3.21234 28.6314 3.3681L27.2988 3.92298C25.9052 4.50433 25.0047 5.82884 25.0047 7.2972V21.0883H21.9444C22.9635 17.868 22.8768 14.5072 21.6875 10.6065C21.5068 10.0158 21.1475 9.5098 20.6479 9.14329C20.1514 8.77904 19.5629 8.58636 18.946 8.58636C18.1513 8.58636 17.4123 8.90374 16.865 9.48001C16.3181 10.0562 16.0396 10.8105 16.0808 11.6038C16.3098 16.0078 14.2783 17.5237 11.4667 19.6218C10.541 20.3125 9.5293 21.068 8.53496 21.9945V21.0345C8.53496 20.6299 8.20713 20.3021 7.80254 20.3021H0.732422C0.327832 20.3021 0 20.6299 0 21.0345V41.807C0 42.2116 0.327832 42.5394 0.732422 42.5394H7.80273C8.20732 42.5394 8.53516 42.2116 8.53516 41.807V39.9644C9.92627 40.0967 10.9423 40.374 11.9294 41.1305C12.5774 41.6272 13.3763 41.9007 14.1787 41.9007H27.0958C27.6235 42.1579 28.2086 42.2943 28.8017 42.2943H41.8231C42.2277 42.2943 42.5556 41.9664 42.5556 41.5619C42.5556 41.1573 42.2277 40.8295 41.8232 40.8295V40.8295ZM12.8205 39.9678C11.4395 38.9095 9.96348 38.6155 8.53516 38.4921V29.9399C8.53516 29.5353 8.20732 29.2075 7.80273 29.2075C7.39814 29.2075 7.07031 29.5353 7.07031 29.9399V41.0746H1.46484V21.767H7.07031V26.7486C7.07031 27.1532 7.39814 27.481 7.80273 27.481C8.20732 27.481 8.53516 27.1532 8.53516 26.7486V24.0752C9.76035 22.7232 11.0723 21.7442 12.343 20.7959C15.1563 18.6966 17.8136 16.7136 17.5439 11.5279C17.5237 11.1397 17.66 10.7706 17.9277 10.4887C18.1955 10.2066 18.5572 10.0513 18.9463 10.0513C19.2493 10.0513 19.5381 10.1457 19.7815 10.3244C20.0246 10.5028 20.1993 10.7485 20.2868 11.0345C21.498 15.0077 21.4791 18.3504 20.2271 21.5544C20.1391 21.7798 20.1681 22.0341 20.3045 22.234C20.4409 22.4339 20.6673 22.5535 20.9093 22.5535H29.7539C30.6834 22.5535 31.4396 23.31 31.4396 24.24C31.4396 24.6897 31.2641 25.1132 30.9466 25.4315C30.6272 25.75 30.2038 25.9255 29.7539 25.9255H26.7451C26.3405 25.9255 26.0127 26.2534 26.0127 26.6579C26.0127 27.0625 26.3405 27.3904 26.7451 27.3904H28.9346C29.864 27.3904 30.6201 28.1469 30.6201 29.077C30.6201 29.5275 30.4449 29.9508 30.1266 30.2691C29.8084 30.5873 29.3851 30.7625 28.9346 30.7625H26.7451C26.3405 30.7625 26.0127 31.0904 26.0127 31.495C26.0127 31.8995 26.3405 32.2274 26.7451 32.2274H28.1308C29.0603 32.2274 29.8164 32.9835 29.8164 33.9129C29.8164 34.3633 29.6411 34.7868 29.3229 35.105C29.004 35.424 28.5806 35.5994 28.1308 35.5994H27.1503H25.9413C25.5367 35.5994 25.2089 35.9273 25.2089 36.3319C25.2089 36.7365 25.5367 37.0643 25.9413 37.0643H27.1503C28.0798 37.0643 28.8359 37.8204 28.8359 38.7498C28.8359 39.2002 28.6604 39.6241 28.3431 39.9422C28.0456 40.239 27.5757 40.4284 27.224 40.4346C27.1997 40.435 14.1787 40.4364 14.1787 40.4364C13.6967 40.4359 13.2143 40.2697 12.8205 39.9678V39.9678Z" fill="#939393"/>
<path d="M40.1459 7.62275C40.1459 6.08369 38.8938 4.83154 37.3547 4.83154C35.8156 4.83154 34.5635 6.08369 34.5635 7.62275C34.5635 9.16182 35.8156 10.414 37.3547 10.414C38.8938 10.414 40.1459 9.16182 40.1459 7.62275ZM36.0283 7.62275C36.0283 6.89141 36.6233 6.29639 37.3547 6.29639C38.086 6.29639 38.6811 6.89141 38.6811 7.62275C38.6811 8.3541 38.086 8.94912 37.3547 8.94912C36.6233 8.94912 36.0283 8.3542 36.0283 7.62275Z" fill="#939393"/>
<path d="M37.8126 32.6139H36.499C35.8071 32.6139 35.2442 32.0509 35.2442 31.359C35.2442 30.9544 34.9164 30.6266 34.5118 30.6266C34.1072 30.6266 33.7794 30.9544 33.7794 31.359C33.7794 32.8333 34.9587 34.0364 36.4233 34.0768V35.6977C36.4233 36.1022 36.7512 36.4301 37.1558 36.4301C37.5604 36.4301 37.8882 36.1022 37.8882 35.6977V34.0768C39.3529 34.0364 40.5322 32.8333 40.5322 31.359V30.345C40.5322 29.4043 39.9312 28.5771 39.0364 28.2862L35.7278 27.2115C35.4386 27.1175 35.2442 26.8501 35.2442 26.546V25.0941C35.2442 24.5322 35.7014 24.075 36.2633 24.075H38.0484C38.6104 24.075 39.0675 24.5322 39.0675 25.0941C39.0675 25.4987 39.3953 25.8266 39.7999 25.8266C40.2045 25.8266 40.5323 25.4987 40.5323 25.0941C40.5323 23.7245 39.4181 22.6102 38.0484 22.6102H37.8882V20.9912C37.8882 20.5866 37.5604 20.2588 37.1558 20.2588C36.7512 20.2588 36.4233 20.5866 36.4233 20.9912V22.6102H36.2632C34.8937 22.6102 33.7793 23.7244 33.7793 25.0941V26.546C33.7793 27.4867 34.3804 28.314 35.2751 28.6047L38.5836 29.6794C38.873 29.7734 39.0673 30.0409 39.0673 30.345V31.359C39.0675 32.0509 38.5045 32.6139 37.8126 32.6139V32.6139Z" fill="#939393"/>
</svg>
