<svg width="50" height="50" viewBox="0 0 50 50" fill="none" xmlns="http://www.w3.org/2000/svg">
<g clip-path="url(#clip0_1231_1762)">
<path d="M26.8117 25.3123C27.5858 24.907 28.2016 24.254 28.5609 23.4575C28.9201 22.6611 29.0019 21.7672 28.7932 20.9187C28.5846 20.0703 28.0975 19.3163 27.4099 18.7773C26.7222 18.2382 25.8737 17.9453 25 17.9453C24.1263 17.9453 23.2778 18.2382 22.5901 18.7773C21.9025 19.3163 21.4154 20.0703 21.2068 20.9187C20.9981 21.7672 21.0799 22.6611 21.4391 23.4575C21.7984 24.254 22.4142 24.907 23.1883 25.3123C22.1204 25.6881 21.1952 26.3857 20.5403 27.3092C19.8853 28.2326 19.5328 29.3364 19.5312 30.4685C19.5312 30.6757 19.6136 30.8744 19.7601 31.0209C19.9066 31.1675 20.1053 31.2498 20.3125 31.2498H29.6875C29.8947 31.2498 30.0934 31.1675 30.2399 31.0209C30.3864 30.8744 30.4688 30.6757 30.4688 30.4685C30.4672 29.3364 30.1147 28.2326 29.4597 27.3092C28.8048 26.3857 27.8796 25.6881 26.8117 25.3123V25.3123ZM25 19.531C25.4635 19.531 25.9167 19.6685 26.3021 19.926C26.6875 20.1835 26.9879 20.5496 27.1653 20.9779C27.3427 21.4061 27.3891 21.8774 27.2987 22.332C27.2083 22.7867 26.9851 23.2043 26.6573 23.532C26.3295 23.8598 25.9119 24.083 25.4572 24.1735C25.0026 24.2639 24.5314 24.2175 24.1031 24.0401C23.6748 23.8627 23.3088 23.5623 23.0512 23.1769C22.7937 22.7915 22.6562 22.3383 22.6562 21.8748C22.6562 21.2532 22.9032 20.657 23.3427 20.2175C23.7823 19.7779 24.3784 19.531 25 19.531V19.531ZM21.1719 29.6873C21.3512 28.8042 21.8303 28.0103 22.5279 27.4401C23.2256 26.8699 24.0989 26.5583 25 26.5583C25.9011 26.5583 26.7744 26.8699 27.4721 27.4401C28.1697 28.0103 28.6488 28.8042 28.8281 29.6873H21.1719Z" fill="#939393"/>
<path d="M41.4061 33.594C39.6043 33.5926 37.8579 34.2169 36.4654 35.3604L32.7045 31.5994C34.1908 29.8688 35.0477 27.686 35.1357 25.4065L43.1139 25.1111C43.3364 25.8323 43.814 26.4477 44.4575 26.8421C45.101 27.2365 45.8662 27.3829 46.6098 27.2538C47.3534 27.1247 48.0245 26.7291 48.4974 26.1409C48.9703 25.5528 49.2127 24.8124 49.1792 24.0584C49.1456 23.3045 48.8384 22.5886 48.3151 22.0447C47.7918 21.5009 47.0882 21.1664 46.3361 21.1039C45.584 21.0414 44.8348 21.2552 44.2289 21.7052C43.623 22.1552 43.2019 22.8105 43.0443 23.5486L35.085 23.8432C34.9145 22.3638 34.4208 20.94 33.6388 19.6727C32.8568 18.4053 31.8057 17.3255 30.56 16.5096L32.0529 13.7955C33.1642 14.1834 34.3806 14.1396 35.4611 13.6728C36.5416 13.2061 37.4073 12.3504 37.8867 11.2754C38.366 10.2004 38.4239 8.98456 38.049 7.86885C37.6741 6.75315 36.8937 5.81902 35.8625 5.25161C34.8312 4.68421 33.6245 4.52494 32.4814 4.80539C31.3383 5.08583 30.3422 5.78551 29.6907 6.76574C29.0392 7.74598 28.7797 8.93523 28.9637 10.0978C29.1477 11.2603 29.7618 12.3113 30.6842 13.0424L29.1904 15.758C27.4338 14.9536 25.483 14.6707 23.5702 14.943C21.6574 15.2153 19.863 16.0313 18.4006 17.294L14.6397 13.533C15.9105 11.9788 16.5353 9.99559 16.3848 7.99361C16.2344 5.99163 15.3203 4.12405 13.8315 2.77717C12.3427 1.43029 10.3932 0.707149 8.38625 0.75733C6.37926 0.807511 4.46833 1.62717 3.04873 3.04677C1.62913 4.46638 0.809464 6.3773 0.759283 8.3843C0.709102 10.3913 1.43224 12.3408 2.77912 13.8296C4.12601 15.3183 5.99359 16.2325 7.99556 16.3829C9.99754 16.5333 11.9807 15.9085 13.535 14.6377L17.2959 18.3986C16.3007 19.5476 15.5792 20.9075 15.1858 22.3758C14.7924 23.8441 14.7373 25.3825 15.0248 26.8752L8.16309 28.7221C7.72814 27.8781 6.9985 27.2231 6.11261 26.8814C5.22672 26.5397 4.24623 26.5351 3.35717 26.8685C2.46811 27.2018 1.73235 27.8499 1.2895 28.6898C0.846639 29.5297 0.727497 30.5029 0.954678 31.4249C1.18186 32.3468 1.73956 33.1532 2.52195 33.6912C3.30434 34.2292 4.25699 34.4612 5.19914 34.3433C6.14129 34.2254 7.00738 33.7658 7.63308 33.0516C8.25879 32.3374 8.60056 31.4184 8.59356 30.469C8.59356 30.3908 8.57481 30.3127 8.56934 30.2346L15.4357 28.3861C16.2262 30.6055 17.7608 32.4827 19.7787 33.6986L18.1248 37.0002C16.8109 36.5602 15.379 36.6342 14.1175 37.2073C12.8559 37.7805 11.8583 38.8102 11.3254 40.0893C10.7925 41.3684 10.7639 42.8019 11.2454 44.1012C11.7268 45.4005 12.6826 46.4693 13.9203 47.0923C15.158 47.7153 16.5858 47.8463 17.9162 47.459C19.2466 47.0717 20.381 46.1948 21.0909 45.0049C21.8008 43.8149 22.0337 42.4001 21.7425 41.0454C21.4514 39.6907 20.6578 38.4965 19.5217 37.7033L21.1717 34.4018C22.897 35.1091 24.7846 35.3249 26.6251 35.0253C28.4656 34.7256 30.1871 33.9222 31.599 32.7041L35.36 36.465C34.2389 37.8385 33.6187 39.5526 33.6012 41.3255C33.5837 43.0983 34.17 44.8243 35.2637 46.2197C36.3574 47.615 37.8934 48.5967 39.6191 49.0031C41.3448 49.4096 43.1574 49.2167 44.7589 48.4562C46.3605 47.6957 47.6555 46.4129 48.4311 44.8186C49.2067 43.2243 49.4167 41.4136 49.0265 39.6841C48.6364 37.9547 47.6693 36.4095 46.2843 35.3026C44.8994 34.1958 43.179 33.5932 41.4061 33.594V33.594ZM46.0936 22.6565C46.4026 22.6565 46.7047 22.7481 46.9616 22.9198C47.2186 23.0915 47.4189 23.3355 47.5371 23.621C47.6554 23.9065 47.6863 24.2207 47.626 24.5238C47.5657 24.8269 47.4169 25.1053 47.1984 25.3238C46.9799 25.5423 46.7015 25.6911 46.3984 25.7514C46.0953 25.8117 45.7811 25.7808 45.4956 25.6625C45.2101 25.5443 44.9661 25.344 44.7944 25.087C44.6227 24.8301 44.5311 24.528 44.5311 24.219C44.5311 23.8046 44.6957 23.4071 44.9887 23.1141C45.2817 22.8211 45.6792 22.6565 46.0936 22.6565ZM33.5936 6.2502C34.2116 6.2502 34.8158 6.43348 35.3297 6.77686C35.8436 7.12024 36.2442 7.6083 36.4807 8.17932C36.7172 8.75033 36.7791 9.37867 36.6585 9.98486C36.5379 10.591 36.2403 11.1479 35.8033 11.5849C35.3662 12.0219 34.8094 12.3196 34.2032 12.4402C33.597 12.5607 32.9687 12.4988 32.3977 12.2623C31.8267 12.0258 31.3386 11.6253 30.9952 11.1114C30.6518 10.5975 30.4686 9.99327 30.4686 9.3752C30.4686 8.5464 30.7978 7.75154 31.3839 7.16549C31.9699 6.57944 32.7648 6.2502 33.5936 6.2502V6.2502ZM4.68731 32.8127C4.22376 32.8127 3.77062 32.6752 3.38519 32.4177C2.99977 32.1602 2.69936 31.7941 2.52197 31.3659C2.34458 30.9376 2.29816 30.4664 2.3886 30.0117C2.47903 29.5571 2.70225 29.1395 3.03003 28.8117C3.35781 28.4839 3.77543 28.2607 4.23007 28.1702C4.68471 28.0798 5.15596 28.1262 5.58423 28.3036C6.01249 28.481 6.37853 28.7814 6.63607 29.1668C6.8936 29.5523 7.03106 30.0054 7.03106 30.469C7.03106 31.0906 6.78413 31.6867 6.34459 32.1262C5.90505 32.5658 5.30891 32.8127 4.68731 32.8127ZM20.3123 42.1877C20.3123 42.9603 20.0832 43.7155 19.654 44.3579C19.2248 45.0003 18.6147 45.501 17.9009 45.7966C17.1871 46.0923 16.4017 46.1696 15.644 46.0189C14.8863 45.8682 14.1902 45.4961 13.6439 44.9498C13.0976 44.4035 12.7256 43.7075 12.5749 42.9498C12.4241 42.192 12.5015 41.4066 12.7972 40.6928C13.0928 39.9791 13.5935 39.369 14.2359 38.9398C14.8782 38.5105 15.6335 38.2815 16.4061 38.2815C17.4417 38.2827 18.4345 38.6946 19.1668 39.4269C19.8991 40.1592 20.3111 41.1521 20.3123 42.1877V42.1877ZM2.34356 8.59395C2.34113 7.57845 2.58619 6.57765 3.05752 5.67816C3.52886 4.77866 4.21227 4.00756 5.04863 3.43158C5.88499 2.8556 6.8491 2.49209 7.85754 2.3725C8.86597 2.25292 9.88836 2.38086 10.8362 2.74525C11.7841 3.10964 12.6289 3.69952 13.2976 4.46383C13.9662 5.22814 14.4385 6.14386 14.6737 7.13177C14.9088 8.11967 14.8997 9.14999 14.6471 10.1336C14.3945 11.1172 13.9061 12.0244 13.224 12.7768C13.2601 12.6889 13.2794 12.5951 13.2811 12.5002C13.283 11.8844 13.1628 11.2743 12.9273 10.7053C12.6918 10.1363 12.3458 9.61967 11.9092 9.18536C11.5978 8.87405 11.2444 8.60792 10.8592 8.39473C11.2814 7.95204 11.5644 7.39514 11.6731 6.7931C11.7818 6.19105 11.7114 5.57035 11.4706 5.00795C11.2299 4.44555 10.8293 3.96619 10.3186 3.62932C9.80796 3.29245 9.20963 3.11288 8.59786 3.11288C7.98608 3.11288 7.38776 3.29245 6.87709 3.62932C6.36642 3.96619 5.96585 4.44555 5.72507 5.00795C5.48429 5.57035 5.41388 6.19105 5.52258 6.7931C5.63127 7.39514 5.91429 7.95204 6.33653 8.39473C5.601 8.79882 4.98743 9.39296 4.55991 10.1151C4.13238 10.8373 3.90658 11.661 3.90606 12.5002C3.90765 12.5942 3.92618 12.687 3.96075 12.7744C2.92083 11.6304 2.34429 10.14 2.34356 8.59395V8.59395ZM8.59356 7.8127C8.28453 7.8127 7.98243 7.72106 7.72548 7.54937C7.46853 7.37768 7.26826 7.13365 7.15 6.84814C7.03174 6.56263 7.00079 6.24847 7.06108 5.94537C7.12137 5.64228 7.27019 5.36387 7.48871 5.14535C7.70723 4.92683 7.98564 4.77801 8.28873 4.71772C8.59183 4.65744 8.90599 4.68838 9.1915 4.80664C9.47701 4.9249 9.72104 5.12517 9.89273 5.38212C10.0644 5.63908 10.1561 5.94117 10.1561 6.2502C10.1561 6.6646 9.99144 7.06203 9.69842 7.35506C9.40539 7.64808 9.00796 7.8127 8.59356 7.8127ZM8.59356 9.3752C9.28636 9.3752 9.95952 9.60542 10.5072 10.0297C11.0549 10.4539 11.4461 11.0481 11.6193 11.719H5.567C5.74108 11.0485 6.13262 10.4547 6.6803 10.0306C7.22798 9.60645 7.90086 9.37596 8.59356 9.3752ZM4.41387 13.2268C4.50094 13.2614 4.5936 13.28 4.68731 13.2815H12.4998C12.595 13.2801 12.689 13.2611 12.7772 13.2252C11.6337 14.2655 10.1434 14.842 8.59747 14.842C7.05158 14.842 5.56125 14.2655 4.41778 13.2252L4.41387 13.2268ZM16.4061 25.0002C16.4061 23.3005 16.9101 21.639 17.8544 20.2258C18.7987 18.8125 20.1408 17.7111 21.7111 17.0606C23.2814 16.4102 25.0093 16.24 26.6764 16.5716C28.3434 16.9032 29.8747 17.7216 31.0765 18.9235C32.2784 20.1254 33.0968 21.6566 33.4284 23.3236C33.76 24.9907 33.5898 26.7186 32.9394 28.2889C32.289 29.8592 31.1875 31.2013 29.7742 32.1456C28.361 33.0899 26.6995 33.594 24.9998 33.594C22.7214 33.5913 20.5371 32.685 18.9261 31.0739C17.315 29.4629 16.4087 27.2786 16.4061 25.0002ZM37.2264 46.0393C37.3134 46.0739 37.4061 46.0925 37.4998 46.094H45.3123C45.4075 46.0926 45.5015 46.0736 45.5897 46.0377C44.4462 47.078 42.9559 47.6545 41.41 47.6545C39.8641 47.6545 38.3737 47.078 37.2303 46.0377L37.2264 46.0393ZM41.4061 40.6252C41.097 40.6252 40.7949 40.5336 40.538 40.3619C40.281 40.1902 40.0808 39.9462 39.9625 39.6606C39.8442 39.3751 39.8133 39.061 39.8736 38.7579C39.9339 38.4548 40.0827 38.1764 40.3012 37.9578C40.5197 37.7393 40.7981 37.5905 41.1012 37.5302C41.4043 37.4699 41.7185 37.5009 42.004 37.6191C42.2895 37.7374 42.5335 37.9377 42.7052 38.1946C42.8769 38.4516 42.9686 38.7537 42.9686 39.0627C42.9686 39.4771 42.8039 39.8745 42.5109 40.1676C42.2179 40.4606 41.8205 40.6252 41.4061 40.6252ZM41.4061 42.1877C42.0989 42.1877 42.772 42.4179 43.3197 42.8422C43.8674 43.2664 44.2586 43.8606 44.4318 44.5315H38.3795C38.5536 43.861 38.9451 43.2672 39.4928 42.8431C40.0405 42.419 40.7134 42.1885 41.4061 42.1877V42.1877ZM46.0357 45.5893C46.0721 45.5015 46.0917 45.4077 46.0936 45.3127C46.0955 44.6969 45.9753 44.0868 45.7398 43.5178C45.5043 42.9488 45.1583 42.4322 44.7217 41.9979C44.4103 41.6866 44.0569 41.4204 43.6717 41.2072C44.0939 40.7645 44.3769 40.2076 44.4856 39.6056C44.5943 39.0036 44.5239 38.3828 44.2831 37.8204C44.0424 37.258 43.6418 36.7787 43.1311 36.4418C42.6205 36.1049 42.0221 35.9254 41.4104 35.9254C40.7986 35.9254 40.2003 36.1049 39.6896 36.4418C39.1789 36.7787 38.7784 37.258 38.5376 37.8204C38.2968 38.3828 38.2264 39.0036 38.3351 39.6056C38.4438 40.2076 38.7268 40.7645 39.149 41.2072C38.4135 41.6113 37.7999 42.2055 37.3724 42.9276C36.9449 43.6498 36.7191 44.4735 36.7186 45.3127C36.7202 45.4067 36.7387 45.4995 36.7732 45.5869C35.9609 44.6903 35.4262 43.5771 35.2341 42.3825C35.0421 41.188 35.2009 39.9633 35.6913 38.8572C36.1817 37.7511 36.9826 36.8112 37.9968 36.1514C39.011 35.4916 40.195 35.1404 41.4049 35.1404C42.6148 35.1404 43.7987 35.4916 44.813 36.1514C45.8272 36.8112 46.6281 37.7511 47.1185 38.8572C47.6089 39.9633 47.7677 41.188 47.5756 42.3825C47.3836 43.5771 46.8489 44.6903 46.0365 45.5869L46.0357 45.5893Z" fill="#939393"/>
</g>
<defs>
<clipPath id="clip0_1231_1762">
<rect width="50" height="50" fill="white"/>
</clipPath>
</defs>
</svg>
