<svg width="50" height="50" viewBox="0 0 50 50" fill="none" xmlns="http://www.w3.org/2000/svg">
<g clip-path="url(#clip0_1231_1765)">
<path d="M44.5312 0H5.46875C2.45313 0 0 2.45313 0 5.46875V35.1562C0 38.1719 2.45313 40.625 5.46875 40.625H18.0984C18.2648 41.7445 18.5938 42.8406 19.0992 43.8516L21.957 49.568C22.0891 49.8328 22.3602 50 22.6562 50H39.8438C40.1047 50 40.3484 49.8695 40.4938 49.6523L41.0188 48.8648C42.6602 46.4023 43.5813 43.568 43.7211 40.625H44.5312C47.5461 40.625 50 38.1719 50 35.1562V5.46875C50 2.45313 47.5461 0 44.5312 0ZM42.1875 28.5594C41.7258 28.2906 41.1969 28.125 40.625 28.125C39.6867 28.125 38.8547 28.5484 38.2812 29.2047C37.7078 28.5484 36.8758 28.125 35.9375 28.125C34.9992 28.125 34.1672 28.5484 33.5938 29.2047C33.0203 28.5484 32.1883 28.125 31.25 28.125C30.6781 28.125 30.1492 28.2906 29.6875 28.5594V21.875C29.6875 20.1516 28.2859 18.75 26.5625 18.75C24.8391 18.75 23.4375 20.1516 23.4375 21.875V30.4891C22.7828 29.993 21.9766 29.6875 21.0938 29.6875H18.75C18.3188 29.6875 17.9688 30.0375 17.9688 30.4688V35.1562H5.46875V15.2344L8.28125 13.125C8.47813 12.9781 8.59375 12.7461 8.59375 12.5V5.46875H42.1875V28.5594ZM39.7188 47.9977L39.4258 48.4367H23.1391L20.4969 43.1523C19.8648 41.8883 19.5312 40.4742 19.5312 39.0617V31.2492H21.0938C22.3859 31.2492 23.4375 32.3008 23.4375 33.593V39.0617C23.4375 39.493 23.7875 39.843 24.2188 39.843C24.65 39.843 25 39.493 25 39.0617V21.875C25 21.0133 25.7008 20.3125 26.5625 20.3125C27.4242 20.3125 28.125 21.0133 28.125 21.875V36.7188C28.125 37.15 28.4742 37.5 28.9062 37.5C29.3383 37.5 29.6875 37.15 29.6875 36.7188V31.25C29.6875 30.3883 30.3883 29.6875 31.25 29.6875C32.1117 29.6875 32.8125 30.3883 32.8125 31.25V36.7188C32.8125 37.15 33.1617 37.5 33.5938 37.5C34.0258 37.5 34.375 37.15 34.375 36.7188V31.25C34.375 30.3883 35.0758 29.6875 35.9375 29.6875C36.7992 29.6875 37.5 30.3883 37.5 31.25V36.7188C37.5 37.15 37.8492 37.5 38.2812 37.5C38.7133 37.5 39.0625 37.15 39.0625 36.7188V31.25C39.0625 30.3883 39.7633 29.6875 40.625 29.6875C41.4867 29.6875 42.1875 30.3883 42.1875 31.25V39.8438C42.1875 42.7555 41.3336 45.575 39.7188 47.9984V47.9977ZM48.4375 35.1555C48.4375 37.3094 46.6852 39.0617 44.5312 39.0617H43.75V5.46875C43.75 4.60703 43.0492 3.90625 42.1875 3.90625H7.8125C7.38125 3.90625 7.03125 4.25625 7.03125 4.6875V12.1094L4.21875 14.2188C4.02188 14.3656 3.90625 14.5977 3.90625 14.8438V35.1562C3.90625 36.018 4.60703 36.7188 5.46875 36.7188H17.9688V39.0625H5.46875C3.31484 39.0625 1.5625 37.3102 1.5625 35.1562V5.46875C1.5625 3.31484 3.31484 1.5625 5.46875 1.5625H44.5312C46.6852 1.5625 48.4375 3.31484 48.4375 5.46875V35.1562V35.1555Z" fill="#939393"/>
<path d="M26.5625 14.8436C22.6859 14.8436 19.5312 17.9982 19.5312 21.8748C19.5312 23.1107 19.857 24.3264 20.4727 25.3904C20.6891 25.7646 21.1672 25.8928 21.5398 25.6756C21.9141 25.4592 22.0414 24.9818 21.825 24.6084C21.3469 23.7811 21.0938 22.8357 21.0938 21.874C21.0938 18.8584 23.5469 16.4053 26.5625 16.4053C29.5781 16.4053 32.0312 18.8584 32.0312 21.874C32.0312 22.835 31.7789 23.7811 31.3 24.6084C31.0836 24.9818 31.2117 25.4592 31.5844 25.6756C31.7078 25.7467 31.8422 25.7803 31.975 25.7803C32.2453 25.7803 32.5078 25.6404 32.6516 25.3896C33.2672 24.3256 33.593 23.11 33.593 21.874C33.593 17.9975 30.4391 14.8428 26.5617 14.8428L26.5625 14.8436Z" fill="#939393"/>
<path d="M17.4891 26.5084C17.8867 26.342 18.075 25.8842 17.9086 25.4857C17.4305 24.3412 17.1875 23.1256 17.1875 21.874C17.1875 16.7045 21.393 12.499 26.5625 12.499C31.732 12.499 35.9375 16.7045 35.9375 21.874C35.9375 23.1264 35.6945 24.3412 35.2164 25.4857C35.05 25.8842 35.2375 26.3412 35.6359 26.5076C35.7344 26.549 35.8367 26.5686 35.9375 26.5686C36.243 26.5686 36.5336 26.3881 36.6586 26.0881C37.2172 24.7521 37.5 23.335 37.5 21.874C37.5 15.8428 32.5937 10.9365 26.5625 10.9365C20.5313 10.9365 15.625 15.8428 15.625 21.874C15.625 23.3334 15.9078 24.7514 16.4664 26.0881C16.6328 26.4857 17.0906 26.6732 17.4891 26.5076V26.5084Z" fill="#939393"/>
<path d="M46.0938 16.4062C45.6617 16.4062 45.3125 16.7563 45.3125 17.1875V23.4375C45.3125 23.8687 45.6617 24.2188 46.0938 24.2188C46.5258 24.2188 46.875 23.8687 46.875 23.4375V17.1875C46.875 16.7563 46.5258 16.4062 46.0938 16.4062Z" fill="#939393"/>
<path d="M4.6875 7.03125C4.25625 7.03125 3.90625 7.38125 3.90625 7.8125V10.9375C3.90625 11.3687 4.25625 11.7188 4.6875 11.7188C5.11875 11.7188 5.46875 11.3687 5.46875 10.9375V7.8125C5.46875 7.38125 5.11875 7.03125 4.6875 7.03125Z" fill="#939393"/>
<path d="M4.70313 3.90625H4.69531C4.26406 3.90625 3.91797 4.25625 3.91797 4.6875C3.91797 5.11875 4.27188 5.46875 4.70313 5.46875C5.13438 5.46875 5.48438 5.11875 5.48438 4.6875C5.48438 4.25625 5.13438 3.90625 4.70313 3.90625Z" fill="#939393"/>
</g>
<defs>
<clipPath id="clip0_1231_1765">
<rect width="50" height="50" fill="white"/>
</clipPath>
</defs>
</svg>
