<svg width="49" height="50" viewBox="0 0 49 50" fill="none" xmlns="http://www.w3.org/2000/svg">
<path d="M47.4087 23.8848C45.6041 22.399 42.9394 22.4646 41.2107 24.0404L35.3396 29.3902C34.5038 28.2432 33.1797 27.5444 31.7136 27.5444H25.4985C24.7152 27.5444 23.957 27.4101 23.2454 27.1462C21.4903 26.4957 18.0275 25.6177 14.538 27.0585C13.8737 27.3332 13.2109 27.7435 12.5675 28.2804L6.48971 33.3577C5.54498 32.8012 4.30963 32.9198 3.49987 33.7301L0.722424 36.5072C-0.240466 37.4693 -0.24115 39.0292 0.722424 39.992L9.99449 49.2645C10.9539 50.2247 12.5178 50.2246 13.4794 49.2645L16.2564 46.4867C17.2174 45.5256 17.2174 43.9628 16.2564 43.0018L16.1583 42.9037L16.838 42.2238C18.1022 40.9599 19.8039 40.2941 21.5166 40.41C25.8577 40.6934 34.571 40.4326 37.646 37.3553L47.579 27.4223C48.5759 26.4262 48.4981 24.7832 47.4087 23.8848ZM15.1521 45.3824L12.3754 48.1594C12.023 48.5111 11.4502 48.5103 11.0985 48.1602L1.82672 38.8877C1.82672 38.8877 1.82672 38.8877 1.82633 38.887C1.47574 38.5379 1.47252 37.9666 1.82672 37.6117L4.60416 34.8346C4.95729 34.4823 5.5274 34.4827 5.88024 34.8346C6.16598 35.1204 15.3051 44.2595 15.152 44.1064C15.5046 44.4595 15.5048 45.0288 15.1521 45.3824V45.3824ZM46.4747 26.3179L36.5417 36.2509C33.8655 38.9271 25.3385 39.0935 21.6181 38.851C19.4611 38.7161 17.3156 39.5374 15.7337 41.1194L15.0539 41.7992C4.96803 31.6413 8.44664 35.1448 7.6941 34.3869L13.5686 29.4794C14.0895 29.0447 14.6163 28.716 15.1341 28.5024C18.1297 27.266 21.1612 28.0394 22.7015 28.6107C23.5879 28.9394 24.5291 29.1065 25.4985 29.1065H31.7136C33.3517 29.1065 34.6401 30.4399 34.6273 32.0354C34.6239 32.525 34.2151 32.924 33.7163 32.924H19.7471C19.3158 32.924 18.9661 33.2733 18.9661 33.705C18.9661 34.1368 19.3158 34.4861 19.7471 34.4861H33.7161C35.0703 34.4861 36.1797 33.3916 36.1892 32.0469C36.1922 31.6434 36.142 31.2476 36.0397 30.8655L42.2625 25.1954C43.4199 24.139 45.2047 24.0948 46.4155 25.0924C46.796 25.405 46.8199 25.972 46.4747 26.3179V26.3179Z" fill="#939393"/>
<path d="M24.2141 15.8738C24.4841 16.1362 24.6068 16.5145 24.5432 16.8859L24.1302 19.2938C23.7527 21.4944 26.0644 23.1925 28.0578 22.1433L30.2137 21.0069C30.5481 20.8315 30.9467 20.8315 31.2804 21.0069L33.4286 22.1419C35.4117 23.1906 37.7338 21.5059 37.359 19.2984L36.9494 16.8844C36.8869 16.5136 37.0097 16.1369 37.2785 15.8745L39.0179 14.1782C40.6216 12.614 39.736 9.88806 37.5195 9.56521L35.1078 9.21355C34.7356 9.15867 34.4141 8.92527 34.2479 8.58738L33.1701 6.40212C32.178 4.38972 29.3119 4.39294 28.3199 6.39832L27.2352 8.58972C27.0685 8.92605 26.7474 9.15876 26.376 9.21287L23.9681 9.56453C21.7505 9.88747 20.8656 12.6172 22.4728 14.1798L24.2141 15.8738ZM24.1939 11.1098L26.601 10.7582C27.48 10.6308 28.2404 10.0794 28.6348 9.2823L29.7193 7.09099C30.1392 6.24324 31.349 6.24226 31.7688 7.09324L32.8465 9.27849C33.2397 10.077 34.0009 10.6301 34.8822 10.759L37.2939 11.1106C38.2321 11.2489 38.6068 12.3973 37.9271 13.0601L36.188 14.7564C35.5519 15.3765 35.2606 16.2697 35.4093 17.1453L35.8189 19.5593C35.9776 20.496 34.9992 21.2022 34.1584 20.7614L32.0098 19.6264C31.2199 19.2085 30.2757 19.2077 29.4852 19.6249L27.3293 20.7613C26.4877 21.205 25.5091 20.4925 25.67 19.5577L26.083 17.1498C26.2337 16.2704 25.9419 15.3749 25.3027 14.7541L23.5618 13.06C22.8807 12.3968 23.255 11.248 24.1939 11.1098V11.1098Z" fill="#939393"/>
<path d="M30.7439 2.68711C31.1753 2.68711 31.525 2.33779 31.525 1.90605V0.781055C31.525 0.349316 31.1753 0 30.7439 0C30.3126 0 29.9629 0.349316 29.9629 0.781055V1.90605C29.9629 2.33779 30.3126 2.68711 30.7439 2.68711Z" fill="#939393"/>
<path d="M24.1821 3.87302C24.3995 4.25037 24.8796 4.37224 25.2488 4.15906C25.6225 3.94324 25.7502 3.4657 25.5344 3.09197L24.9719 2.11795C24.7565 1.74343 24.2779 1.61531 23.9052 1.83191C23.5315 2.04773 23.4038 2.52527 23.6196 2.899L24.1821 3.87302Z" fill="#939393"/>
<path d="M19.1855 7.90589L20.1596 8.46799C20.5339 8.68342 21.0113 8.55471 21.2266 8.18196C21.4421 7.80823 21.3139 7.33079 20.9406 7.11487L19.9666 6.55276C19.5917 6.33616 19.1146 6.46585 18.8995 6.8388C18.6841 7.21253 18.8122 7.68997 19.1855 7.90589V7.90589Z" fill="#939393"/>
<path d="M17.8484 14.4576H18.973C19.4044 14.4576 19.7541 14.1083 19.7541 13.6766C19.7541 13.2448 19.4044 12.8955 18.973 12.8955H17.8484C17.4171 12.8955 17.0674 13.2448 17.0674 13.6766C17.0674 14.1083 17.4171 14.4576 17.8484 14.4576Z" fill="#939393"/>
<path d="M41.7344 13.6766C41.7344 14.1083 42.0841 14.4576 42.5154 14.4576H43.64C44.0714 14.4576 44.4211 14.1083 44.4211 13.6766C44.4211 13.2448 44.0714 12.8955 43.64 12.8955H42.5154C42.0841 12.8955 41.7344 13.2448 41.7344 13.6766Z" fill="#939393"/>
<path d="M41.3289 8.46799L42.3029 7.90589C42.6763 7.69006 42.8044 7.21253 42.5889 6.8388C42.3727 6.46585 41.8956 6.33616 41.5219 6.55276L40.5478 7.11487C40.1745 7.33069 40.0464 7.80823 40.2618 8.18196C40.4781 8.5553 40.9551 8.68323 41.3289 8.46799V8.46799Z" fill="#939393"/>
<path d="M36.2393 4.15906C36.609 4.37263 37.0889 4.24978 37.306 3.87302L37.8684 2.899C38.0843 2.52527 37.9565 2.04783 37.5828 1.83191C37.2091 1.61531 36.7312 1.74343 36.5161 2.11795L35.9536 3.09197C35.7377 3.4658 35.8655 3.94324 36.2393 4.15906V4.15906Z" fill="#939393"/>
</svg>
