<svg width="50" height="50" viewBox="0 0 50 50" fill="none" xmlns="http://www.w3.org/2000/svg">
<g clip-path="url(#clip0_1231_1738)">
<path d="M2.53613 14.0917H11.5557C12.954 14.0917 14.0918 12.954 14.0918 11.5556V2.53613C14.0917 1.1377 12.954 0 11.5557 0H6.56348C6.15889 0 5.83105 0.32793 5.83105 0.732422C5.83105 1.13691 6.15889 1.46484 6.56348 1.46484H11.5557C12.1464 1.46484 12.627 1.94541 12.627 2.53613V11.5557C12.627 12.1464 12.1464 12.627 11.5557 12.627H2.53613C1.94541 12.627 1.46484 12.1464 1.46484 11.5557V2.53613C1.46484 1.94541 1.94541 1.46484 2.53613 1.46484H3.14551C3.5501 1.46484 3.87793 1.13691 3.87793 0.732422C3.87793 0.32793 3.55 0 3.14551 0H2.53613C1.1377 0 0 1.1377 0 2.53613V11.5557C0 12.954 1.1377 14.0917 2.53613 14.0917V14.0917Z" fill="#939393"/>
<path d="M4.2932 10.8871C4.67113 11.031 5.09438 10.8414 5.23842 10.4634L5.64916 9.38486H8.44711L8.85336 10.4612C8.964 10.7545 9.24272 10.9353 9.53871 10.9353C9.62465 10.9353 9.71205 10.92 9.79721 10.8879C10.1756 10.7451 10.3666 10.3225 10.2238 9.94404L7.87455 3.71924C7.87211 3.7126 7.86947 3.70596 7.86674 3.69932C7.73119 3.36973 7.41342 3.15674 7.05707 3.15674C7.05678 3.15674 7.05648 3.15674 7.05619 3.15674C6.69955 3.15703 6.38178 3.37061 6.24672 3.70078C6.24447 3.70625 6.24223 3.71182 6.24018 3.71738L3.86947 9.94199C3.72543 10.32 3.91527 10.7432 4.2932 10.8871V10.8871ZM7.05453 5.69482L7.89428 7.92002H6.20707L7.05453 5.69482Z" fill="#939393"/>
<path d="M16.5166 4.62158H21.8437C22.2482 4.62158 22.5761 4.29365 22.5761 3.88916C22.5761 3.48467 22.2482 3.15674 21.8437 3.15674H16.5166C16.112 3.15674 15.7842 3.48467 15.7842 3.88916C15.7842 4.29365 16.1121 4.62158 16.5166 4.62158Z" fill="#939393"/>
<path d="M16.5166 7.77832H19.8707C20.2753 7.77832 20.6031 7.45039 20.6031 7.0459C20.6031 6.64141 20.2753 6.31348 19.8707 6.31348H16.5166C16.112 6.31348 15.7842 6.64141 15.7842 7.0459C15.7842 7.45039 16.1121 7.77832 16.5166 7.77832Z" fill="#939393"/>
<path d="M16.5166 10.9351H19.8707C20.2753 10.9351 20.6031 10.6071 20.6031 10.2026C20.6031 9.79814 20.2753 9.47021 19.8707 9.47021H16.5166C16.112 9.47021 15.7842 9.79814 15.7842 10.2026C15.7842 10.6071 16.1121 10.9351 16.5166 10.9351Z" fill="#939393"/>
<path d="M16.5166 20.4053H21.8437C22.2482 20.4053 22.5761 20.0773 22.5761 19.6729C22.5761 19.2684 22.2482 18.9404 21.8437 18.9404H16.5166C16.112 18.9404 15.7842 19.2684 15.7842 19.6729C15.7842 20.0773 16.1121 20.4053 16.5166 20.4053Z" fill="#939393"/>
<path d="M16.5166 23.562H19.8707C20.2753 23.562 20.6031 23.2341 20.6031 22.8296C20.6031 22.4251 20.2753 22.0972 19.8707 22.0972H16.5166C16.112 22.0972 15.7842 22.4251 15.7842 22.8296C15.7842 23.2341 16.1121 23.562 16.5166 23.562Z" fill="#939393"/>
<path d="M16.5166 26.7188H19.8707C20.2753 26.7188 20.6031 26.3908 20.6031 25.9863C20.6031 25.5818 20.2753 25.2539 19.8707 25.2539H16.5166C16.112 25.2539 15.7842 25.5818 15.7842 25.9863C15.7842 26.3908 16.1121 26.7188 16.5166 26.7188Z" fill="#939393"/>
<path d="M29.9611 14.0918H38.9804C40.3789 14.0918 41.5167 12.954 41.5167 11.5555V2.53633C41.5166 1.13779 40.3789 0 38.9804 0H29.9611C28.5626 0 27.4248 1.13779 27.4248 2.53633V11.5556C27.4248 12.954 28.5625 14.0918 29.9611 14.0918ZM28.8896 2.53633C28.8896 1.94551 29.3703 1.46484 29.9611 1.46484H38.9804C39.5712 1.46484 40.0519 1.94551 40.0519 2.53633V11.5556C40.0519 12.1464 39.5712 12.6271 38.9804 12.6271H29.9611C29.3703 12.6271 28.8896 12.1464 28.8896 11.5556V2.53633Z" fill="#939393"/>
<path d="M35.0542 10.9352C35.9097 10.9352 36.6771 10.6543 37.2738 10.1229C37.3907 10.0187 37.502 9.9041 37.6042 9.78203C37.8641 9.47207 37.8233 9.01006 37.5133 8.75029C37.2033 8.49053 36.7413 8.53115 36.4815 8.84111C36.4248 8.90879 36.3637 8.97197 36.2996 9.029C35.9708 9.32188 35.5519 9.47031 35.0542 9.47031C33.7175 9.47031 32.6299 8.38271 32.6299 7.046C32.6299 5.70928 33.7175 4.62168 35.0542 4.62168C35.5401 4.62168 36.0086 4.76465 36.4092 5.03525C36.7443 5.26162 37.1996 5.17353 37.4261 4.83828C37.6524 4.50312 37.5644 4.04785 37.2291 3.82139C36.5854 3.38662 35.8334 3.15674 35.0542 3.15674C32.9097 3.15674 31.165 4.90146 31.165 7.0459C31.165 9.19033 32.9097 10.9352 35.0542 10.9352Z" fill="#939393"/>
<path d="M38.9795 15.7842H34.4707C34.0661 15.7842 33.7383 16.1121 33.7383 16.5166C33.7383 16.9211 34.0661 17.249 34.4707 17.249H38.9795C39.5707 17.249 40.0517 17.7296 40.0517 18.3203V27.3398C40.0517 27.9306 39.5706 28.4111 38.9795 28.4111H29.9609C29.3702 28.4111 28.8896 27.9306 28.8896 27.3398V18.3203C28.8896 17.7296 29.3702 17.249 29.9609 17.249H31.0528C31.4574 17.249 31.7853 16.9211 31.7853 16.5166C31.7853 16.1121 31.4574 15.7842 31.0528 15.7842H29.9609C28.5626 15.7842 27.4248 16.9219 27.4248 18.3203V27.3398C27.4248 28.7383 28.5625 29.876 29.9609 29.876H38.9795C40.3784 29.876 41.5165 28.7383 41.5165 27.3398V18.3203C41.5165 16.922 40.3784 15.7842 38.9795 15.7842V15.7842Z" fill="#939393"/>
<path d="M31.5693 25.8838C31.5759 26.111 31.6282 26.3438 31.7986 26.5062C31.9357 26.6424 32.1213 26.7188 32.3146 26.7188H32.3173C32.3714 26.7186 33.6459 26.7136 34.1549 26.7048C36.0189 26.6722 37.3718 25.0424 37.3718 22.8296C37.3718 20.5033 36.0528 18.9404 34.0898 18.9404H32.3018C32.1073 18.9404 31.9208 19.0178 31.7833 19.1555C31.646 19.2932 31.5689 19.4798 31.5693 19.6742V19.6792V19.6794V25.8838ZM34.0899 20.4053C35.4298 20.4053 35.907 21.6576 35.907 22.8296C35.907 24.014 35.3573 25.2187 34.1294 25.2401C33.8813 25.2444 33.4335 25.2479 33.0445 25.2503C33.0422 24.5036 33.0388 23.379 33.0388 22.8227C33.0388 22.358 33.0368 21.1818 33.0355 20.4053H34.0899Z" fill="#939393"/>
<path d="M43.9404 4.62158H49.2675C49.6721 4.62158 49.9999 4.29365 49.9999 3.88916C49.9999 3.48467 49.6721 3.15674 49.2675 3.15674H43.9404C43.5358 3.15674 43.208 3.48467 43.208 3.88916C43.208 4.29365 43.5359 4.62158 43.9404 4.62158Z" fill="#939393"/>
<path d="M43.9404 7.77832H47.2945C47.6991 7.77832 48.027 7.45039 48.027 7.0459C48.027 6.64141 47.6991 6.31348 47.2945 6.31348H43.9404C43.5358 6.31348 43.208 6.64141 43.208 7.0459C43.208 7.45039 43.5359 7.77832 43.9404 7.77832Z" fill="#939393"/>
<path d="M43.9404 10.9351H47.2945C47.6991 10.9351 48.027 10.6071 48.027 10.2026C48.027 9.79814 47.6991 9.47021 47.2945 9.47021H43.9404C43.5358 9.47021 43.208 9.79814 43.208 10.2026C43.208 10.6071 43.5359 10.9351 43.9404 10.9351Z" fill="#939393"/>
<path d="M49.2675 18.9404H43.9404C43.5358 18.9404 43.208 19.2684 43.208 19.6729C43.208 20.0773 43.5358 20.4053 43.9404 20.4053H49.2675C49.6721 20.4053 49.9999 20.0773 49.9999 19.6729C49.9999 19.2684 49.6721 18.9404 49.2675 18.9404Z" fill="#939393"/>
<path d="M47.2945 22.0972H43.9404C43.5358 22.0972 43.208 22.4251 43.208 22.8296C43.208 23.2341 43.5358 23.562 43.9404 23.562H47.2945C47.6991 23.562 48.027 23.2341 48.027 22.8296C48.027 22.4251 47.6991 22.0972 47.2945 22.0972Z" fill="#939393"/>
<path d="M47.2945 25.2539H43.9404C43.5358 25.2539 43.208 25.5818 43.208 25.9863C43.208 26.3908 43.5358 26.7188 43.9404 26.7188H47.2945C47.6991 26.7188 48.027 26.3908 48.027 25.9863C48.027 25.5817 47.6991 25.2539 47.2945 25.2539Z" fill="#939393"/>
<path d="M25.3316 34.8928L24.1665 31.1225C23.7343 29.7223 22.2523 28.8888 20.8635 29.2643C20.3974 29.3902 19.984 29.6309 19.6536 29.9625C19.1011 28.7558 17.7748 28.1001 16.4817 28.4497C16.0102 28.5771 15.5928 28.8218 15.2605 29.1592C14.9864 28.6076 14.5471 28.179 14.0252 27.9188C14.0691 27.7306 14.0918 27.5365 14.0918 27.3394V18.3198C14.0918 16.9214 12.9541 15.7837 11.5557 15.7837H2.53613C1.13779 15.7837 0 16.9214 0 18.3198V27.3394C0 28.7378 1.1377 29.8755 2.53613 29.8755H5.729L7.2835 34.9076C6.86367 34.8322 6.42871 34.8578 6.00928 34.9872C4.86816 35.3399 4.10156 36.3786 4.10156 37.5718C4.10156 37.8392 4.14229 38.1076 4.22305 38.3709L6.74678 46.5406C7.04863 47.5141 7.64404 48.3455 8.46953 48.946L9.73027 49.8601C9.86016 49.9542 10.0105 49.9995 10.1596 49.9995C10.3862 49.9995 10.6099 49.8945 10.7531 49.697C10.9905 49.3695 10.9176 48.9115 10.59 48.674L9.33027 47.7606C8.76299 47.348 8.35352 46.7762 8.14609 46.1075L5.62305 37.94C5.41484 37.2953 5.7915 36.5784 6.4416 36.3869C7.07412 36.1771 7.81074 36.5647 7.99326 37.206L9.38877 41.7229L8.94424 42.5649C8.75527 42.9227 8.89219 43.3657 9.2499 43.5546C9.35898 43.6122 9.47588 43.6395 9.59121 43.6395C9.8541 43.6395 10.1083 43.4975 10.2396 43.2489L10.8259 42.1386C10.9166 41.9668 10.9353 41.766 10.8779 41.5804L5.89902 25.4629C5.48633 23.8443 7.72842 23.1877 8.28272 24.7755L12.0546 36.9839C12.3762 37.9035 13.7089 37.4834 13.4542 36.5515L11.6488 30.7078C11.6482 30.7061 11.6475 30.7044 11.647 30.7026C11.5486 30.3795 11.5842 30.0387 11.7476 29.7423C11.9114 29.4449 12.1828 29.2321 12.5109 29.1435C13.1473 28.9721 13.8305 29.3656 14.0329 30.0221L15.8247 35.8191C16.1463 36.7388 17.479 36.3187 17.2243 35.3867C17.2243 35.3867 16.0022 31.4301 16.0017 31.4279C15.9013 31.1031 15.9362 30.7604 16.1002 30.4628C16.264 30.1656 16.5353 29.9529 16.8642 29.8641C17.501 29.6923 18.1834 30.0858 18.3862 30.7411L19.5949 34.6544C19.8677 35.57 21.2871 35.1229 20.9945 34.222L20.3806 32.2345C20.2835 31.9123 20.3191 31.5728 20.4819 31.2773C20.6459 30.98 20.9172 30.7673 21.2459 30.6784C21.8828 30.506 22.5647 30.8994 22.7671 31.5548L23.9322 35.3253C24.0517 35.7117 24.4613 35.9286 24.8482 35.8088C25.2346 35.6894 25.4511 35.2793 25.3316 34.8928V34.8928ZM6.95312 21.8458C6.82178 21.8458 6.57754 21.8465 6.30918 21.8475H5.85166V20.4051H6.95312C7.35029 20.4051 7.67344 20.7282 7.67344 21.1254C7.67344 21.5227 7.35029 21.8458 6.95312 21.8458ZM10.9381 28.4088L9.70137 24.4048C9.70147 24.4028 9.70186 24.4009 9.70195 24.3989C9.704 24.3592 9.70508 24.3191 9.70508 24.2789C9.70508 23.4968 9.33359 22.8003 8.7582 22.3552C8.99785 22.0046 9.13828 21.5811 9.13828 21.1253C9.13828 19.9204 8.15801 18.9401 6.95312 18.9401H5.11924C4.71465 18.9401 4.38682 19.2681 4.38682 19.6726V25.9859C4.38682 26.1814 4.46504 26.3688 4.604 26.5064C4.63867 26.5407 4.67637 26.5712 4.7165 26.5976L5.27666 28.4107H2.53623C1.94551 28.4107 1.46494 27.9302 1.46494 27.3395V18.3199C1.46494 17.7292 1.94551 17.2486 2.53623 17.2486H11.5558C12.1465 17.2486 12.6271 17.7292 12.6271 18.3199V27.3395C12.6271 27.4453 12.6112 27.5488 12.5815 27.6479C12.4313 27.6619 12.2801 27.6885 12.1294 27.7291C11.6719 27.8527 11.2653 28.0868 10.9381 28.4088V28.4088Z" fill="#939393"/>
<path d="M27.6348 45.6874L27.4435 42.2024C27.4225 41.8181 27.3545 41.439 27.242 41.0769L26.3407 38.1589C26.2212 37.7725 25.8115 37.5561 25.4246 37.6753C25.0382 37.7948 24.8216 38.2048 24.941 38.5914L25.8428 41.5105C25.92 41.7587 25.9664 42.0184 25.9809 42.2825L26.1772 45.8577C26.1804 45.9173 26.191 45.9765 26.2086 46.0336L27.274 49.4838C27.3711 49.7984 27.6609 50.0003 27.9736 50.0003C28.0451 50.0003 28.118 49.9898 28.19 49.9675C28.5765 49.8482 28.7931 49.4381 28.6737 49.0516L27.6348 45.6874Z" fill="#939393"/>
</g>
<defs>
<clipPath id="clip0_1231_1738">
<rect width="50" height="50" fill="white"/>
</clipPath>
</defs>
</svg>
