<svg width="50" height="50" viewBox="0 0 50 50" fill="none" xmlns="http://www.w3.org/2000/svg">
<path d="M8.90527 22.8472V24.88C8.90527 25.2853 9.23389 25.6139 9.63916 25.6139C10.0444 25.6139 10.373 25.2853 10.373 24.88V22.8472C10.373 22.4419 10.0445 22.1133 9.63916 22.1133C9.23389 22.1133 8.90527 22.4418 8.90527 22.8472V22.8472Z" fill="#939393"/>
<path d="M13.5684 20.8599C13.5684 20.4546 13.2397 20.126 12.8345 20.126C12.4292 20.126 12.1006 20.4546 12.1006 20.8599V24.8792C12.1006 25.2845 12.4291 25.6131 12.8345 25.6131C13.2397 25.6131 13.5684 25.2845 13.5684 24.8792V20.8599Z" fill="#939393"/>
<path d="M15.2949 18.8735V24.8795C15.2949 25.2848 15.6234 25.6134 16.0288 25.6134C16.4341 25.6134 16.7627 25.2848 16.7627 24.8795V18.8735C16.7627 18.4683 16.4341 18.1396 16.0288 18.1396C15.6234 18.1396 15.2949 18.4682 15.2949 18.8735V18.8735Z" fill="#939393"/>
<path d="M18.4902 16.8872V24.8797C18.4902 25.285 18.8188 25.6136 19.2241 25.6136C19.6294 25.6136 19.958 25.285 19.958 24.8797V16.8872C19.958 16.4819 19.6295 16.1533 19.2241 16.1533C18.8188 16.1533 18.4902 16.4819 18.4902 16.8872Z" fill="#939393"/>
<path d="M36.8251 17.4208C37.4989 17.4208 38.1488 17.6192 38.7045 17.9946C39.0403 18.2215 39.4966 18.1332 39.7234 17.7974C39.9503 17.4615 39.862 17.0053 39.5262 16.7784C38.727 16.2385 37.793 15.9531 36.8251 15.9531C34.1618 15.9531 31.9951 18.1198 31.9951 20.7831C31.9951 23.4464 34.1618 25.6131 36.8251 25.6131C39.3392 25.6131 41.095 23.6269 41.095 20.7831C41.095 20.3778 40.7664 20.0492 40.3611 20.0492H37.9104C37.5052 20.0492 37.1766 20.3777 37.1766 20.7831C37.1766 21.1884 37.5051 21.517 37.9104 21.517H39.5788C39.3107 23.4411 37.9812 24.1454 36.8251 24.1454C34.9711 24.1454 33.4628 22.6371 33.4628 20.7831C33.4628 18.9292 34.9711 17.4208 36.8251 17.4208V17.4208Z" fill="#939393"/>
<path d="M27.4818 24.145C26.6012 24.1654 25.8498 23.5219 25.7287 22.6543C25.7176 22.5746 25.7119 22.493 25.7119 22.4117C25.7119 22.0064 25.3833 21.6778 24.978 21.6778C24.5728 21.6778 24.2441 22.0064 24.2441 22.4117C24.2441 22.5607 24.2546 22.7107 24.275 22.8573C24.4957 24.4392 25.8526 25.6133 27.4459 25.6132C27.4676 25.6132 27.4896 25.6129 27.5113 25.6125C29.1808 25.5789 30.5563 24.2474 30.6427 22.5811C30.6888 21.6938 30.3778 20.8511 29.7673 20.208C29.1653 19.5739 28.3191 19.2104 27.4457 19.2104C27.154 19.2104 26.9061 19.2266 26.6847 19.2574L26.989 17.4209H29.398C29.8032 17.4209 30.1318 17.0923 30.1318 16.687C30.1318 16.2817 29.8032 15.9531 29.398 15.9531H26.3667C26.0077 15.9531 25.7014 16.2129 25.6428 16.567L25.0422 20.1915C24.9259 20.806 25.6518 21.2689 26.1721 20.9311C26.5117 20.7781 26.7838 20.6779 27.4457 20.6779C27.9255 20.6779 28.372 20.8699 28.7029 21.2185C29.0336 21.5668 29.202 22.0236 29.1771 22.5049C29.1302 23.4063 28.3855 24.1268 27.4818 24.145V24.145Z" fill="#939393"/>
<path d="M35.077 43.4059H2.69082C2.01641 43.4059 1.46777 42.8572 1.46777 42.1827V35.3037H11.3666C11.7719 35.3037 12.1005 34.9751 12.1005 34.5698C12.1005 34.1646 11.7719 33.8359 11.3666 33.8359H1.46768V7.8168C1.46768 7.14238 2.01631 6.59375 2.69072 6.59375H35.5264C35.9316 6.59375 36.2603 6.26514 36.2603 5.85986C36.2603 5.45459 35.9316 5.12598 35.5264 5.12598H2.69082C1.20713 5.12598 0 6.33311 0 7.8168V42.1828C0 43.6665 1.20713 44.8736 2.69082 44.8736H35.077C35.4822 44.8736 35.8108 44.545 35.8108 44.1397C35.8107 43.7345 35.4822 43.4059 35.077 43.4059V43.4059Z" fill="#939393"/>
<path d="M5.47266 39.3548C5.47266 39.7601 5.80117 40.0887 6.20654 40.0887H17.7833C18.1113 41.3834 19.2861 42.3443 20.6814 42.3443C22.0767 42.3443 23.2516 41.3834 23.5795 40.0887H43.7944C44.1997 40.0887 44.5283 39.7601 44.5283 39.3548C44.5283 38.9495 44.1997 38.6209 43.7944 38.6209H23.5795C23.2515 37.3262 22.0767 36.3652 20.6814 36.3652C19.2861 36.3652 18.1113 37.3262 17.7833 38.6209H6.20654C5.80127 38.6209 5.47266 38.9494 5.47266 39.3548ZM20.6814 37.8329C21.5205 37.8329 22.2032 38.5156 22.2032 39.3548C22.2032 40.1939 21.5205 40.8767 20.6814 40.8767C19.8423 40.8767 19.1596 40.1939 19.1596 39.3548C19.1596 38.5156 19.8423 37.8329 20.6814 37.8329Z" fill="#939393"/>
<path d="M50.0003 7.8168C50.0003 6.33311 48.7932 5.12598 47.3095 5.12598H38.4622C38.0569 5.12598 37.7283 5.45449 37.7283 5.85986C37.7283 6.26514 38.0569 6.59375 38.4622 6.59375H47.3095C47.9839 6.59375 48.5325 7.14238 48.5325 7.8168V33.836H14.3022C13.897 33.836 13.5684 34.1645 13.5684 34.5699C13.5684 34.9752 13.897 35.3038 14.3022 35.3038H48.5325V42.1828C48.5325 42.8572 47.9839 43.406 47.3095 43.406H38.0126C37.6073 43.406 37.2787 43.7346 37.2787 44.1398C37.2787 44.5451 37.6073 44.8737 38.0126 44.8737H47.3095C48.7932 44.8737 50.0003 43.6667 50.0003 42.1829V7.8168Z" fill="#939393"/>
</svg>
