<svg width="16" height="16" viewBox="0 0 16 16" fill="none" xmlns="http://www.w3.org/2000/svg">
<path d="M15.4837 10.0838H14.3149V3.71465C14.3149 3.42947 14.0838 3.19833 13.7986 3.19833H10.2015V2.0295C10.2015 1.74432 9.97033 1.51318 9.68515 1.51318H6.31485C6.02967 1.51318 5.79854 1.74432 5.79854 2.0295V3.19833H2.20141C1.91623 3.19833 1.68509 3.42947 1.68509 3.71465V10.0838H0.516318C0.231138 10.0838 0 10.315 0 10.6001V13.9704C0 14.2556 0.231138 14.4868 0.516318 14.4868H3.88655C4.17173 14.4868 4.40287 14.2556 4.40287 13.9704V10.6001C4.40287 10.315 4.17173 10.0838 3.88655 10.0838H2.71772V4.23097H5.79854V5.39979C5.79854 5.68497 6.02967 5.91611 6.31485 5.91611H7.48368V10.0838H6.31485C6.02967 10.0838 5.79854 10.315 5.79854 10.6001V13.9704C5.79854 14.2556 6.02967 14.4868 6.31485 14.4868H9.68515C9.97033 14.4868 10.2015 14.2556 10.2015 13.9704V10.6001C10.2015 10.315 9.97033 10.0838 9.68515 10.0838H8.51632V5.91611H9.68515C9.97033 5.91611 10.2015 5.68497 10.2015 5.39979V4.23097H13.2823V10.0838H12.1134C11.8283 10.0838 11.5971 10.315 11.5971 10.6001V13.9704C11.5971 14.2556 11.8283 14.4868 12.1134 14.4868H15.4837C15.7689 14.4868 16 14.2556 16 13.9704V10.6001C16 10.315 15.7689 10.0838 15.4837 10.0838ZM3.37024 13.4541H1.03264V11.1165H3.37024V13.4541ZM9.16883 13.4541H6.83117V11.1165H9.16883V13.4541ZM9.16883 4.88348H6.83117V2.54582H9.16883V4.88348ZM14.9674 13.4541H12.6298V11.1165H14.9674V13.4541Z" fill="white"/>
</svg>
