<svg width="24" height="24" viewBox="0 0 24 24" fill="none" xmlns="http://www.w3.org/2000/svg">
<g clip-path="url(#clip0_515_4868)">
<path d="M23.8 22.835L22.3902 23.8982C22.3026 23.9642 22.1959 24 22.0862 24L19.6086 23.9999C19.4747 23.9999 19.3463 23.9467 19.2516 23.852L10.8724 15.4728C9.95732 15.8251 8.99357 16.0036 8.00263 16.0036C3.59048 16.0034 0.000976562 12.4139 0.000976562 8.00184C0.000976562 3.58964 3.59052 0 8.00273 0C12.4147 0 16.0042 3.58955 16.0043 8.00175C16.0043 9.10941 15.7836 10.177 15.3477 11.1804L16.6022 12.4273L18.6055 12.4417C18.7381 12.4427 18.865 12.4957 18.9588 12.5895L19.9528 13.5834C20.0487 13.6793 20.1021 13.8098 20.1006 13.9455L20.0776 16.2677L22.7053 16.5023C22.8232 16.5128 22.9337 16.5645 23.0174 16.6482L23.853 17.4836C23.9476 17.5783 24.0009 17.7067 24.0009 17.8407V22.4319C24.0008 22.5904 23.9264 22.7397 23.8 22.835ZM22.433 17.4918L19.5233 17.232C19.261 17.2085 19.0608 16.9875 19.0634 16.7241L19.089 14.1476L18.3913 13.45L16.3889 13.4356C16.2568 13.4346 16.1304 13.3819 16.0367 13.2888L14.386 11.6481C14.3302 11.5926 14.288 11.5244 14.263 11.4499C14.2208 11.3241 14.2298 11.1868 14.2881 11.0677C14.7569 10.1086 14.9947 9.07711 14.9947 8.00189C14.9946 4.14647 11.858 1.00983 8.00277 1.00983C4.14735 1.00983 1.01071 4.14647 1.01071 8.00203C1.01071 11.8573 4.1473 14.9938 8.00268 14.994C8.97079 14.994 9.90871 14.7994 10.7904 14.4155C10.9805 14.3328 11.2021 14.3748 11.3489 14.5215L19.8177 22.9902L21.9171 22.9903L22.9911 22.1804V18.0499H22.9911L22.433 17.4918Z" fill="white"/>
<path d="M13.4996 8.50684C13.2208 8.50684 12.9947 8.28071 12.9947 8.00199L12.9946 7.97551C12.9946 7.6967 13.2207 7.47066 13.4995 7.47066C13.7782 7.47066 14.0043 7.6967 14.0043 7.97551L14.0044 8.00199C14.0044 8.28081 13.7784 8.50684 13.4996 8.50684Z" fill="white"/>
<path d="M13.4451 7.07059C13.1757 7.14277 12.899 6.98246 12.8271 6.71317C12.82 6.68654 12.8127 6.66001 12.8054 6.63409C12.5046 5.57528 11.8475 4.63108 10.9552 3.97548C10.7305 3.8103 10.6822 3.49441 10.8473 3.26973C10.9462 3.13506 11.0993 3.06377 11.2545 3.06377C11.3583 3.06377 11.463 3.09573 11.553 3.16188C12.6251 3.9497 13.4149 5.08483 13.7767 6.35874C13.7856 6.38987 13.7942 6.42123 13.8025 6.45268C13.8745 6.72203 13.7145 6.99868 13.4451 7.07059Z" fill="white"/>
<path d="M15.5766 16.29L15.5688 16.2824C15.3698 16.0871 15.3667 15.7675 15.562 15.5685C15.6608 15.4677 15.7915 15.4172 15.9224 15.4172C16.0499 15.4172 16.1776 15.4652 16.2759 15.5616L16.2837 15.5693C16.4827 15.7645 16.4858 16.0842 16.2905 16.2832C16.0953 16.4823 15.7756 16.4854 15.5766 16.29Z" fill="white"/>
<path d="M20.3661 21.0797L16.5661 17.2797C16.3689 17.0826 16.3689 16.7629 16.5661 16.5657C16.6647 16.4672 16.7938 16.4179 16.923 16.4179C17.0522 16.4179 17.1814 16.4672 17.28 16.5657L21.0801 20.3657C21.2772 20.5628 21.2772 20.8825 21.0801 21.0797C20.8829 21.2768 20.5633 21.2769 20.3661 21.0797Z" fill="white"/>
<path d="M5.49054 7.49414C4.95523 7.49414 4.45193 7.28569 4.07332 6.90708C3.29196 6.12563 3.29196 4.85419 4.07337 4.07264C4.45188 3.69413 4.95518 3.48567 5.49049 3.48567C6.02585 3.48567 6.52906 3.69413 6.90772 4.07274C7.68908 4.85419 7.68908 6.12562 6.90767 6.90717C6.52915 7.28573 6.02581 7.49414 5.49054 7.49414ZM6.19376 4.78669C6.00584 4.59881 5.75613 4.49541 5.49045 4.49541C5.22476 4.49541 4.97506 4.59886 4.78718 4.78669C4.39948 5.17448 4.39948 5.80547 4.78718 6.19322C4.97506 6.38109 5.22476 6.4845 5.49045 6.4845C5.75613 6.4845 6.00584 6.38105 6.19371 6.19322C6.58146 5.80538 6.58146 5.17444 6.19376 4.78669Z" fill="white"/>
</g>
<defs>
<clipPath id="clip0_515_4868">
<rect width="24" height="24" fill="white" transform="matrix(1 0 0 -1 0 24)"/>
</clipPath>
</defs>
</svg>
