<svg width="9" height="15" viewBox="0 0 9 15" fill="none" xmlns="http://www.w3.org/2000/svg">
<g clip-path="url(#clip0_515:4531)">
<path d="M1.3 0C1.51217 0 1.71566 0.0842856 1.86569 0.234315C2.01571 0.384344 2.1 0.587827 2.1 0.8V13.6C2.1 13.8122 2.01571 14.0157 1.86569 14.1657C1.71566 14.3157 1.51217 14.4 1.3 14.4C1.08783 14.4 0.884344 14.3157 0.734315 14.1657C0.584286 14.0157 0.5 13.8122 0.5 13.6V0.8C0.5 0.587827 0.584286 0.384344 0.734315 0.234315C0.884344 0.0842856 1.08783 0 1.3 0ZM7.7 0C7.91217 0 8.11566 0.0842856 8.26569 0.234315C8.41572 0.384344 8.5 0.587827 8.5 0.8V13.6C8.5 13.8122 8.41572 14.0157 8.26569 14.1657C8.11566 14.3157 7.91217 14.4 7.7 14.4C7.48783 14.4 7.28434 14.3157 7.13431 14.1657C6.98428 14.0157 6.9 13.8122 6.9 13.6V0.8C6.9 0.587827 6.98428 0.384344 7.13431 0.234315C7.28434 0.0842856 7.48783 0 7.7 0Z" fill="#F8F8F8"/>
</g>
<defs>
<clipPath id="clip0_515:4531">
<rect width="8" height="14.4" fill="white" transform="translate(0.5)"/>
</clipPath>
</defs>
</svg>
