<svg width="7" height="10" viewBox="0 0 7 10" fill="white" xmlns="http://www.w3.org/2000/svg">
<path d="M0.306829 9.94307C0.374232 9.98514 0.449909 10.0044 0.525739 9.99876C0.601568 9.99312 0.674687 9.96281 0.737246 9.91107L6.15391 5.41107C6.20926 5.36506 6.25449 5.30363 6.28573 5.23205C6.31697 5.16047 6.33329 5.08088 6.33329 5.00007C6.33329 4.91927 6.31697 4.83968 6.28573 4.7681C6.25449 4.69652 6.20926 4.63509 6.15391 4.58908L0.737246 0.0890755C0.674735 0.0371718 0.601583 0.00677802 0.52571 0.00118502C0.449837 -0.00440797 0.374135 0.015013 0.3068 0.0573451C0.239465 0.0996772 0.183064 0.163307 0.143703 0.241345C0.104342 0.319384 0.0835218 0.408856 0.0834961 0.500075V9.50007C0.0834836 9.59134 0.104289 9.68087 0.143657 9.75897C0.183026 9.83706 0.239455 9.90073 0.306829 9.94307Z" stroke="inherit" fill="inherit"/>
</svg>
