<svg width="61" height="60" viewBox="0 0 61 60" fill="none" xmlns="http://www.w3.org/2000/svg">
<path d="M1 60H13C13.2652 60 13.5196 59.8946 13.7071 59.7071C13.8946 59.5196 14 59.2652 14 59V51C13.9987 49.7184 13.6457 48.4618 12.9793 47.3671C12.3129 46.2724 11.3588 45.3817 10.221 44.792C11.0052 44.1315 11.5674 43.2459 11.8314 42.2551C12.0954 41.2644 12.0484 40.2164 11.6969 39.2533C11.3453 38.2901 10.7061 37.4583 9.86599 36.8706C9.02584 36.2829 8.02531 35.9677 7 35.9677C5.97469 35.9677 4.97416 36.2829 4.13401 36.8706C3.29385 37.4583 2.65468 38.2901 2.30312 39.2533C1.95155 40.2164 1.90459 41.2644 2.16858 42.2551C2.43258 43.2459 2.99478 44.1315 3.779 44.792C2.64117 45.3817 1.68707 46.2724 1.0207 47.3671C0.354329 48.4618 0.00126618 49.7184 0 51V59C0 59.2652 0.105357 59.5196 0.292893 59.7071C0.48043 59.8946 0.734784 60 1 60ZM4 41C4 40.4067 4.17595 39.8266 4.50559 39.3333C4.83524 38.8399 5.30377 38.4554 5.85195 38.2284C6.40013 38.0013 7.00333 37.9419 7.58527 38.0576C8.16721 38.1734 8.70176 38.4591 9.12132 38.8787C9.54088 39.2982 9.8266 39.8328 9.94236 40.4147C10.0581 40.9967 9.9987 41.5999 9.77164 42.148C9.54458 42.6962 9.16006 43.1648 8.66671 43.4944C8.17336 43.8241 7.59334 44 7 44C6.20435 44 5.44129 43.6839 4.87868 43.1213C4.31607 42.5587 4 41.7956 4 41ZM2 51C2 49.6739 2.52678 48.4021 3.46447 47.4645C4.40215 46.5268 5.67392 46 7 46C8.32608 46 9.59785 46.5268 10.5355 47.4645C11.4732 48.4021 12 49.6739 12 51V58H2V51ZM16 53V59C16 59.2652 16.1054 59.5196 16.2929 59.7071C16.4804 59.8946 16.7348 60 17 60H25C25.2652 60 25.5196 59.8946 25.7071 59.7071C25.8946 59.5196 26 59.2652 26 59V53C25.9996 52.1812 25.7982 51.375 25.4134 50.6523C25.0286 49.9296 24.4721 49.3124 23.793 48.855C24.3624 48.2996 24.7532 47.5871 24.9157 46.8085C25.0781 46.0299 25.0048 45.2206 24.705 44.4839C24.4052 43.7472 23.8926 43.1166 23.2326 42.6726C22.5727 42.2287 21.7954 41.9916 21 41.9916C20.2046 41.9916 19.4273 42.2287 18.7674 42.6726C18.1074 43.1166 17.5948 43.7472 17.295 44.4839C16.9952 45.2206 16.9219 46.0299 17.0843 46.8085C17.2468 47.5871 17.6376 48.2996 18.207 48.855C17.5279 49.3124 16.9714 49.9296 16.5866 50.6523C16.2018 51.375 16.0004 52.1812 16 53ZM19 46C19 45.6044 19.1173 45.2178 19.3371 44.8889C19.5568 44.56 19.8692 44.3036 20.2346 44.1522C20.6001 44.0009 21.0022 43.9613 21.3902 44.0384C21.7781 44.1156 22.1345 44.3061 22.4142 44.5858C22.6939 44.8655 22.8844 45.2219 22.9616 45.6098C23.0387 45.9978 22.9991 46.3999 22.8478 46.7654C22.6964 47.1308 22.44 47.4432 22.1111 47.6629C21.7822 47.8827 21.3956 48 21 48C20.4696 48 19.9609 47.7893 19.5858 47.4142C19.2107 47.0391 19 46.5304 19 46ZM18 53C18 52.2044 18.3161 51.4413 18.8787 50.8787C19.4413 50.3161 20.2044 50 21 50C21.7956 50 22.5587 50.3161 23.1213 50.8787C23.6839 51.4413 24 52.2044 24 53V58H18V53ZM28 51V59C28 59.2652 28.1054 59.5196 28.2929 59.7071C28.4804 59.8946 28.7348 60 29 60H41C41.2652 60 41.5196 59.8946 41.7071 59.7071C41.8946 59.5196 42 59.2652 42 59V51C41.9987 49.7184 41.6457 48.4618 40.9793 47.3671C40.3129 46.2724 39.3588 45.3817 38.221 44.792C39.0052 44.1315 39.5674 43.2459 39.8314 42.2551C40.0954 41.2644 40.0484 40.2164 39.6969 39.2533C39.3453 38.2901 38.7062 37.4583 37.866 36.8706C37.0258 36.2829 36.0253 35.9677 35 35.9677C33.9747 35.9677 32.9742 36.2829 32.134 36.8706C31.2938 37.4583 30.6547 38.2901 30.3031 39.2533C29.9516 40.2164 29.9046 41.2644 30.1686 42.2551C30.4326 43.2459 30.9948 44.1315 31.779 44.792C30.6412 45.3817 29.6871 46.2724 29.0207 47.3671C28.3543 48.4618 28.0013 49.7184 28 51V51ZM32 41C32 40.4067 32.1759 39.8266 32.5056 39.3333C32.8352 38.8399 33.3038 38.4554 33.852 38.2284C34.4001 38.0013 35.0033 37.9419 35.5853 38.0576C36.1672 38.1734 36.7018 38.4591 37.1213 38.8787C37.5409 39.2982 37.8266 39.8328 37.9424 40.4147C38.0581 40.9967 37.9987 41.5999 37.7716 42.148C37.5446 42.6962 37.1601 43.1648 36.6667 43.4944C36.1734 43.8241 35.5933 44 35 44C34.2044 44 33.4413 43.6839 32.8787 43.1213C32.3161 42.5587 32 41.7956 32 41ZM35 46C36.3256 46.0016 37.5964 46.5289 38.5338 47.4662C39.4711 48.4036 39.9984 49.6744 40 51V58H30V51C30.0016 49.6744 30.5289 48.4036 31.4662 47.4662C32.4036 46.5289 33.6744 46.0016 35 46V46ZM44 53V59C44 59.2652 44.1054 59.5196 44.2929 59.7071C44.4804 59.8946 44.7348 60 45 60H53C53.2652 60 53.5196 59.8946 53.7071 59.7071C53.8946 59.5196 54 59.2652 54 59V53C53.9996 52.1812 53.7982 51.375 53.4134 50.6523C53.0286 49.9296 52.4721 49.3124 51.793 48.855C52.3624 48.2996 52.7532 47.5871 52.9157 46.8085C53.0781 46.0299 53.0048 45.2206 52.705 44.4839C52.4052 43.7472 51.8926 43.1166 51.2326 42.6726C50.5727 42.2287 49.7954 41.9916 49 41.9916C48.2046 41.9916 47.4273 42.2287 46.7674 42.6726C46.1074 43.1166 45.5948 43.7472 45.295 44.4839C44.9952 45.2206 44.9219 46.0299 45.0843 46.8085C45.2468 47.5871 45.6376 48.2996 46.207 48.855C45.5279 49.3124 44.9714 49.9296 44.5866 50.6523C44.2018 51.375 44.0004 52.1812 44 53ZM47 46C47 45.6044 47.1173 45.2178 47.3371 44.8889C47.5568 44.56 47.8692 44.3036 48.2346 44.1522C48.6001 44.0009 49.0022 43.9613 49.3902 44.0384C49.7781 44.1156 50.1345 44.3061 50.4142 44.5858C50.6939 44.8655 50.8844 45.2219 50.9616 45.6098C51.0387 45.9978 50.9991 46.3999 50.8478 46.7654C50.6964 47.1308 50.44 47.4432 50.1111 47.6629C49.7822 47.8827 49.3956 48 49 48C48.4696 48 47.9609 47.7893 47.5858 47.4142C47.2107 47.0391 47 46.5304 47 46ZM46 53C46 52.2044 46.3161 51.4413 46.8787 50.8787C47.4413 50.3161 48.2044 50 49 50C49.7956 50 50.5587 50.3161 51.1213 50.8787C51.6839 51.4413 52 52.2044 52 53V58H46V53ZM56.414 15.05C57.2015 14.1946 57.7235 13.1288 57.9165 11.9822C58.1095 10.8356 57.9652 9.65768 57.5012 8.59159C57.0372 7.52549 56.2734 6.61719 55.3027 5.97714C54.332 5.33708 53.1963 4.99285 52.0336 4.9863C50.8709 4.97975 49.7313 5.31116 48.7535 5.94024C47.7757 6.56931 47.0017 7.46895 46.5257 8.52975C46.0496 9.59054 45.8921 10.7668 46.0722 11.9155C46.2522 13.0642 46.7622 14.1358 47.54 15H42V1C42 0.734784 41.8946 0.48043 41.7071 0.292893C41.5196 0.105357 41.2652 0 41 0H1C0.734784 0 0.48043 0.105357 0.292893 0.292893C0.105357 0.48043 0 0.734784 0 1V27C0 27.2652 0.105357 27.5196 0.292893 27.7071C0.48043 27.8946 0.734784 28 1 28H15.5V29.52L10.875 33.22C10.7135 33.3496 10.5962 33.526 10.5393 33.7251C10.4824 33.9241 10.4887 34.136 10.5573 34.3313C10.6258 34.5266 10.7534 34.6959 10.9222 34.8156C11.0911 34.9354 11.293 34.9998 11.5 35H30.5C30.7073 35.0001 30.9095 34.9358 31.0786 34.816C31.2477 34.6961 31.3754 34.5267 31.4441 34.3311C31.5127 34.1356 31.5189 33.9235 31.4617 33.7242C31.4045 33.525 31.2869 33.3485 31.125 33.219L26.5 29.52V28H41C41.2652 28 41.5196 27.8946 41.7071 27.7071C41.8946 27.5196 42 27.2652 42 27V22.251L46.833 23.201L43.856 33.728C43.814 33.8767 43.807 34.0331 43.8355 34.185C43.8641 34.3368 43.9275 34.48 44.0207 34.6032C44.1139 34.7264 44.2344 34.8264 44.3727 34.8953C44.5111 34.9641 44.6635 35 44.818 35H59C59.2652 35 59.5196 34.8946 59.7071 34.7071C59.8946 34.5196 60 34.2652 60 34V19.558C60.0496 18.4997 59.7134 17.4594 59.0539 16.6303C58.3943 15.8013 57.4563 15.2397 56.414 15.05V15.05ZM48 11C48 10.2089 48.2346 9.43552 48.6741 8.77772C49.1136 8.11992 49.7384 7.60723 50.4693 7.30448C51.2002 7.00173 52.0044 6.92252 52.7804 7.07686C53.5563 7.2312 54.269 7.61216 54.8284 8.17157C55.3878 8.73098 55.7688 9.44371 55.9231 10.2196C56.0775 10.9956 55.9983 11.7998 55.6955 12.5307C55.3928 13.2616 54.8801 13.8864 54.2223 14.3259C53.5645 14.7654 52.7911 15 52 15C50.9391 15 49.9217 14.5786 49.1716 13.8284C48.4214 13.0783 48 12.0609 48 11ZM24.875 30.781L27.649 33H14.349L17.123 30.781C17.2404 30.6875 17.3353 30.5687 17.4006 30.4335C17.4658 30.2983 17.4998 30.1501 17.5 30V28H24.5V30C24.4999 30.15 24.5336 30.298 24.5985 30.4332C24.6634 30.5684 24.7579 30.6873 24.875 30.781V30.781ZM40 26H2V2H40V15H37C36.8167 15 36.6369 15.0503 36.4803 15.1456C36.3237 15.2408 36.1963 15.3773 36.112 15.54L34.112 19.396C34.0404 19.5342 34.0021 19.6872 34.0001 19.8429C33.9981 19.9985 34.0324 20.1525 34.1004 20.2925C34.1684 20.4326 34.2681 20.5548 34.3916 20.6495C34.5152 20.7442 34.6591 20.8087 34.812 20.838L40 21.858V26ZM58 33H46.141L49.053 22.7C49.0907 22.5669 49.1004 22.4275 49.0815 22.2905C49.0625 22.1535 49.0154 22.022 48.9431 21.9041C48.8707 21.7863 48.7747 21.6847 48.6611 21.6059C48.5474 21.527 48.4187 21.4726 48.283 21.446L36.5 19.133L37.607 17H55.981C56.5841 17.08 57.1323 17.392 57.5093 17.8695C57.8862 18.3471 58.0623 18.9528 58 19.558V33Z" fill="white"/>
</svg>
