<svg width="24" height="25" viewBox="0 0 24 25" fill="none" xmlns="http://www.w3.org/2000/svg">
<path d="M23.2651 0.393555C22.8636 0.393555 22.5366 0.603769 22.5313 0.865378C22.5164 1.6034 21.5826 2.20383 20.4495 2.20383C19.3166 2.20383 18.3828 1.6034 18.3679 0.865378C18.3627 0.603769 18.0337 0.393555 17.6321 0.393555C17.2305 0.393555 16.9034 0.603817 16.8982 0.865426C16.8833 1.6034 15.9495 2.20383 14.8165 2.20383C13.6835 2.20383 12.7497 1.6034 12.7348 0.865378C12.7295 0.603769 12.4007 0.393555 11.9991 0.393555C11.5975 0.393555 11.2704 0.603769 11.2652 0.865378C11.2503 1.6034 10.3165 2.20383 9.18349 2.20383C8.05052 2.20383 7.11666 1.6034 7.10176 0.865378C7.09648 0.603769 6.7676 0.393555 6.36599 0.393555C5.96439 0.393555 5.63735 0.603769 5.63221 0.865378C5.61731 1.6034 4.68352 2.20383 3.55048 2.20383C2.41743 2.20383 1.48365 1.6034 1.46875 0.865378C1.46346 0.603769 1.13554 0.393555 0.733934 0.393555C0.328582 0.393555 0 0.607594 0 0.871641V23.9155C0 24.1795 0.329536 24.3936 0.734888 24.3936C1.1365 24.3936 1.46346 24.1833 1.46875 23.9217C1.48365 23.1837 2.41743 22.5833 3.55048 22.5833C4.68352 22.5833 5.61731 23.1837 5.63221 23.9217C5.63749 24.1833 5.96637 24.3936 6.36798 24.3936C6.76958 24.3936 7.09655 24.1833 7.10184 23.9217C7.11673 23.1837 8.05059 22.5833 9.18357 22.5833C10.3165 22.5833 11.2504 23.1837 11.2653 23.9217C11.2705 24.1833 11.5994 24.3936 12.001 24.3936C12.4026 24.3936 12.7296 24.1833 12.7349 23.9217C12.7498 23.1837 13.6836 22.5833 14.8166 22.5833C15.9496 22.5833 16.8834 23.1837 16.8982 23.9217C16.9034 24.1832 17.2324 24.3935 17.634 24.3935C18.0356 24.3935 18.3627 24.1832 18.3679 23.9217C18.3828 23.1837 19.3166 22.5832 20.4495 22.5832C21.5825 22.5832 22.5164 23.1837 22.5313 23.9217C22.5366 24.1833 22.8645 24.3935 23.2661 24.3935C23.6714 24.3935 24 24.1795 24 23.9154V0.871641C24 0.607594 23.6704 0.393555 23.2651 0.393555ZM22.5321 22.0708C21.9455 21.792 21.2249 21.6271 20.4495 21.6271C19.3075 21.6271 18.2841 21.9849 17.6331 22.5374C16.9819 21.9849 15.9587 21.6271 14.8165 21.6271C13.6744 21.6271 12.6511 21.9849 12 22.5374C11.3488 21.9849 10.3255 21.6271 9.18342 21.6271C8.04142 21.6271 7.01802 21.9849 6.36695 22.5373C5.7158 21.9848 4.69248 21.6271 3.5504 21.6271C2.77508 21.6271 2.05443 21.7919 1.46779 22.0708V2.71624C2.05443 2.99506 2.77508 3.15996 3.5504 3.15996C4.69248 3.15996 5.7158 2.8022 6.36695 2.24968C7.01802 2.8022 8.04134 3.15996 9.18342 3.15996C10.3255 3.15996 11.3488 2.8022 12 2.24968C12.6511 2.8022 13.6744 3.15996 14.8165 3.15996C15.9587 3.15996 16.9819 2.8022 17.6331 2.24968C18.2841 2.8022 19.3075 3.15996 20.4495 3.15996C21.2249 3.15996 21.9455 2.99506 22.5321 2.71624V22.0708Z" fill="white"/>
<path d="M19.2102 5.92188H18.1587C17.7535 5.92188 17.4248 6.13591 17.4248 6.39996C17.4248 6.66401 17.7535 6.87805 18.1587 6.87805H19.2102C19.6156 6.87805 19.9442 6.66401 19.9442 6.39996C19.9442 6.13591 19.6155 5.92188 19.2102 5.92188Z" fill="white"/>
<path d="M19.2102 8.85742H4.7896C4.38425 8.85742 4.05566 9.07146 4.05566 9.33551C4.05566 9.59956 4.38425 9.8136 4.7896 9.8136H19.2102C19.6156 9.8136 19.9442 9.59956 19.9442 9.33551C19.9442 9.07146 19.6155 8.85742 19.2102 8.85742Z" fill="white"/>
<path d="M19.2102 11.793H4.7896C4.38425 11.793 4.05566 12.007 4.05566 12.2711C4.05566 12.5351 4.38425 12.7491 4.7896 12.7491H19.2102C19.6156 12.7491 19.9442 12.5351 19.9442 12.2711C19.9442 12.007 19.6155 11.793 19.2102 11.793Z" fill="white"/>
<path d="M19.2102 14.7285H4.7896C4.38425 14.7285 4.05566 14.9426 4.05566 15.2066C4.05566 15.4707 4.38425 15.6847 4.7896 15.6847H19.2102C19.6156 15.6847 19.9442 15.4707 19.9442 15.2066C19.9442 14.9426 19.6155 14.7285 19.2102 14.7285Z" fill="white"/>
<path d="M19.2103 17.9092H16.206C15.8007 17.9092 15.472 18.1232 15.472 18.3873C15.472 18.6513 15.8007 18.8654 16.206 18.8654H19.2103C19.6157 18.8654 19.9443 18.6513 19.9443 18.3873C19.9443 18.1232 19.6156 17.9092 19.2103 17.9092Z" fill="white"/>
<path d="M4.7896 6.87805H15.6802C16.0855 6.87805 16.4142 6.66401 16.4142 6.39996C16.4142 6.13591 16.0855 5.92188 15.6802 5.92188H4.7896C4.38425 5.92188 4.05566 6.13591 4.05566 6.39996C4.05566 6.66401 4.38425 6.87805 4.7896 6.87805Z" fill="white"/>
</svg>
