<svg width="16" height="16" viewBox="0 0 16 16" fill="none" xmlns="http://www.w3.org/2000/svg">
<path d="M8.00001 14.6668C11.6819 14.6668 14.6667 11.6821 14.6667 8.00016C14.6667 4.31826 11.6819 1.3335 8.00001 1.3335C4.31811 1.3335 1.33334 4.31826 1.33334 8.00016C1.33334 11.6821 4.31811 14.6668 8.00001 14.6668Z" stroke="white" stroke-linecap="square"/>
<path d="M8.00001 14.6668C9.77779 13.0507 10.6667 10.8284 10.6667 8.00016C10.6667 5.17188 9.77779 2.94966 8.00001 1.3335C6.22223 2.94966 5.33334 5.17188 5.33334 8.00016C5.33334 10.8284 6.22223 13.0507 8.00001 14.6668Z" stroke="white" stroke-linecap="round"/>
<path d="M1.66666 10H14.3333M1.66666 6H14.3333H1.66666Z" stroke="white" stroke-linecap="round"/>
</svg>
