<svg width="18" height="14" viewBox="0 0 18 14" stroke="white" fill="none" xmlns="http://www.w3.org/2000/svg">
<path d="M1 9.00007V5.00007C1 4.73486 1.10536 4.4805 1.29289 4.29296C1.48043 4.10543 1.73478 4.00007 2 4.00007H4.697C4.89453 4.00012 5.08765 3.94166 5.252 3.83207L9.445 1.03607C9.59574 0.935498 9.77098 0.877775 9.95198 0.869074C10.133 0.860372 10.313 0.901018 10.4726 0.986668C10.6323 1.07232 10.7658 1.19975 10.8586 1.35535C10.9515 1.51095 11.0004 1.68886 11 1.87007V12.1301C11 12.3111 10.9509 12.4888 10.8579 12.6441C10.7648 12.7994 10.6314 12.9265 10.4718 13.0119C10.3121 13.0974 10.1323 13.1378 9.95148 13.129C9.77065 13.1203 9.5956 13.0626 9.445 12.9621L5.252 10.1671C5.08754 10.0578 4.89443 9.99973 4.697 10.0001H2C1.73478 10.0001 1.48043 9.89471 1.29289 9.70718C1.10536 9.51964 1 9.26529 1 9.00007V9.00007Z" stroke="inherit" fill="inherit" stroke-width="1.5"/>
<path d="M15.5 2.5C15.5 2.5 17 4 17 6.5C17 9 15.5 10.5 15.5 10.5" stroke="inherit" fill="inherit" stroke-width="1.5" stroke-linecap="round" stroke-linejoin="round"/>
</svg>
