<svg width="21" height="20" viewBox="0 0 21 20" fill="none" xmlns="http://www.w3.org/2000/svg">
<path d="M18.3099 5.17758C18.9365 4.78591 18.9365 3.87325 18.3099 3.48158L14.53 1.11916C13.864 0.702883 13 1.18173 13 1.96716V6.692C13 7.47743 13.864 7.95628 14.53 7.54L18.3099 5.17758Z" fill="white"/>
<path d="M2.78461 16.0116C2.15794 15.6199 2.15794 14.7072 2.78461 14.3156L6.56448 11.9531C7.23053 11.5369 8.09448 12.0157 8.09448 12.8011V17.526C8.09448 18.3114 7.23053 18.7903 6.56448 18.374L2.78461 16.0116Z" fill="white"/>
<path d="M3.83325 9.16699V9.16699C3.83325 6.40557 6.07183 4.16699 8.83325 4.16699V4.16699H12.9999" stroke="white" stroke-width="2" stroke-linecap="round" stroke-linejoin="round"/>
<path d="M16.3333 10V10C16.3333 12.7614 14.0947 15 11.3333 15V15H7.16658" stroke="white" stroke-width="2" stroke-linecap="round" stroke-linejoin="round"/>
</svg>
