<svg width="16" height="16" viewBox="0 0 16 16" fill="none" xmlns="http://www.w3.org/2000/svg">
<g clip-path="url(#clip0_515_4605)">
<path d="M14.7045 4.11971C14.6962 3.68773 14.6884 3.27965 14.6884 2.88486C14.6884 2.57556 14.4377 2.32481 14.1284 2.32481C11.7332 2.32481 9.90968 1.63649 8.38965 0.158576C8.17221 -0.0528959 7.82618 -0.0528212 7.60881 0.158576C6.08893 1.63649 4.26566 2.32481 1.8707 2.32481C1.56141 2.32481 1.31066 2.57556 1.31066 2.88486C1.31066 3.27972 1.30289 3.68795 1.29461 4.12001C1.21784 8.14006 1.11271 13.6457 7.8158 15.9691C7.87524 15.9897 7.93722 16 7.99919 16C8.06117 16 8.12322 15.9897 8.18259 15.9691C14.8862 13.6456 14.7812 8.13983 14.7045 4.11971ZM7.99927 14.8457C2.25048 12.7573 2.3374 8.18255 2.41454 4.14136C2.41917 3.89883 2.42365 3.66376 2.42679 3.43332C4.66994 3.33864 6.46371 2.6589 7.99927 1.32122C9.53498 2.6589 11.329 3.33871 13.5723 3.43332C13.5755 3.66369 13.58 3.8986 13.5846 4.14099C13.6617 8.18232 13.7485 12.7573 7.99927 14.8457Z" fill="white"/>
<path d="M9.92779 6.05462L7.22473 8.75754L6.07127 7.60407C5.85256 7.38543 5.49794 7.38543 5.2793 7.60407C5.06059 7.82286 5.06059 8.17741 5.2793 8.39612L6.82875 9.94557C6.93807 10.0549 7.08144 10.1096 7.22473 10.1096C7.36803 10.1096 7.5114 10.0549 7.62072 9.94557L10.7197 6.84667C10.9385 6.62796 10.9385 6.27334 10.7198 6.0547C10.5011 5.83598 10.1465 5.83591 9.92779 6.05462Z" fill="white"/>
</g>
<defs>
<clipPath id="clip0_515_4605">
<rect width="16" height="16" fill="white"/>
</clipPath>
</defs>
</svg>
