<svg width="21" height="20" viewBox="0 0 21 20" fill="none" xmlns="http://www.w3.org/2000/svg">
<path d="M13.8333 15.0001C12.5191 15.0001 11.2888 14.4856 10.376 13.6123" stroke="white" stroke-width="2" stroke-linecap="round" stroke-linejoin="round"/>
<path d="M6.46237 6.70996C5.32405 5.6334 3.79706 5 2.16675 5" stroke="white" stroke-width="2" stroke-linecap="round" stroke-linejoin="round"/>
<path d="M19.1434 16.0116C19.77 15.6199 19.77 14.7072 19.1434 14.3156L15.3635 11.9531C14.6974 11.5369 13.8335 12.0157 13.8335 12.8011V17.526C13.8335 18.3114 14.6974 18.7903 15.3635 18.374L19.1434 16.0116Z" fill="white"/>
<path d="M13.8334 5V5C11.8149 5 9.99438 6.21369 9.21803 8.07692L7.93598 11.1538C6.96554 13.4829 4.68988 15 2.16675 15V15" stroke="white" stroke-width="2" stroke-linecap="round" stroke-linejoin="round"/>
<path d="M18.3099 6.01156C18.9365 5.61989 18.9365 4.70723 18.3099 4.31557L14.53 1.95315C13.864 1.53687 13 2.01571 13 2.80115V7.52598C13 8.31142 13.864 8.79026 14.53 8.37398L18.3099 6.01156Z" fill="white"/>
</svg>
