<svg width="30" height="30" viewBox="0 0 30 30" fill="none" xmlns="http://www.w3.org/2000/svg">
<g clip-path="url(#clip0_515:4312)">
<path d="M29.745 25.3053L16.62 2.80518C16.2841 2.22932 15.6674 1.875 15.0004 1.875C14.3335 1.875 13.7169 2.22932 13.3809 2.80518L0.255872 25.3053C-0.0823892 25.8853 -0.084733 26.6017 0.249485 27.184C0.584114 27.7663 1.20392 28.1252 1.87546 28.1252H28.1255C28.797 28.1252 29.4168 27.7663 29.7515 27.184C30.0856 26.6017 30.0833 25.8853 29.745 25.3053ZM15.0004 24.3749C13.9659 24.3749 13.1255 23.5354 13.1255 22.4999C13.1255 21.4645 13.9659 20.6249 15.0004 20.6249C16.0369 20.6249 16.8754 21.4645 16.8754 22.4999C16.8754 23.5354 16.0369 24.3749 15.0004 24.3749ZM16.8754 16.8751C16.8754 17.9105 16.0359 18.7501 15.0004 18.7501C13.965 18.7501 13.1255 17.9105 13.1255 16.8751V11.2501C13.1255 10.2146 13.965 9.37506 15.0004 9.37506C16.0359 9.37506 16.8754 10.2146 16.8754 11.2501V16.8751Z" fill="#C99D00"/>
</g>
<defs>
<clipPath id="clip0_515:4312">
<rect width="30" height="30" fill="white"/>
</clipPath>
</defs>
</svg>
