<svg xmlns="http://www.w3.org/2000/svg" version="1.1" xlink="http://www.w3.org/1999/xlink" xmlns:svgjs="http://svgjs.com/svgjs" width="100%" height="100%" preserveAspectRatio="xMidYMid meet" viewBox="-0.000001515847657174163 1.6513774880877463e-7 300 64.49533081054688" overflow="visible"><defs id="SvgjsDefs527886"><linearGradient id="SvgjsLinearGradient7FFg4fMxE" gradientUnits="userSpaceOnUse" x1="5.045999999999963" y1="94.95300000000006" x2="94.95400000000001" y2="5.045000000000001"><stop id="SvgjsStop527890" stop-color="#a35281" offset="0"></stop><stop id="SvgjsStop527891" stop-color="#2f2f33" offset="1"></stop></linearGradient><linearGradient id="SvgjsLinearGradientOA3yBa-o2s" gradientUnits="userSpaceOnUse" x1="-106.32999999999997" y1="91.51" x2="107.57" y2="-122.39000000000001"><stop id="SvgjsStop527894" stop-color="#a35281" offset="0"></stop><stop id="SvgjsStop527895" stop-color="#2f2f33" offset="1"></stop></linearGradient></defs><g id="SvgjsG527887" transform="scale(0.5992690999190103)" opacity="1"><g id="SvgjsG527888" class="Yxbm7ED0s" transform="translate(115.42815614905311, 9.7891416595036) scale(1)" light-content="false" fill="#5757cc" style="
    fill: #8b26d038;
"><path d="				M 75.54083506094494, 44.91708385469828
				m 0, -44.91708385469828
				a 76.04083506094494, 44.91708385469828, 0, 1, 0, 1, 0
				Z
			"></path></g><g id="SvgjsG527892" class="ytz8PB6Hj" transform="translate(-6.305504587181328, -5.706737585604545) scale(1.190391653234157)" light-content="false" non-strokable="false" fill="url(#SvgjsLinearGradient7FFg4fMxE)"><path d="M94.703 53.886a15.54 15.54 0 0 0-4.897-11.292 15.456 15.456 0 0 0 2.733-8.775c0-7.083-4.893-13.259-11.626-15.002-.751-7.857-7.391-14.022-15.442-14.022C60.109 4.794 53.312 4.8 49.998 10 46.685 4.8 39.89 4.794 34.53 4.794c-8.051 0-14.69 6.166-15.442 14.022-6.734 1.745-11.629 7.921-11.629 15.002 0 3.147.959 6.197 2.734 8.775a15.534 15.534 0 0 0-4.896 11.292c0 6.044 3.525 11.496 8.92 14.032-.019.291-.028.574-.028.854 0 5.196 2.63 10.051 6.929 12.912.984 7.663 7.54 13.521 15.368 13.521 5.794 0 10.849-3.2 13.511-7.921 2.665 4.721 7.721 7.921 13.518 7.921 7.827 0 14.383-5.859 15.368-13.522 4.297-2.864 6.927-7.719 6.927-12.911 0-.28-.009-.563-.027-.854a15.523 15.523 0 0 0 8.92-14.031zM82.971 64.752a1.998 1.998 0 0 0-1.318 2.193c.108.7.158 1.28.158 1.827a11.55 11.55 0 0 1-5.816 9.997 2 2 0 0 0-1.004 1.617c-.363 6.066-5.403 10.819-11.475 10.819-6.352 0-11.519-5.165-11.519-11.515a2 2 0 0 0-4 0c0 6.35-5.164 11.515-11.511 11.515-6.072 0-11.112-4.753-11.474-10.819a2 2 0 0 0-1.006-1.618 11.537 11.537 0 0 1-5.817-9.996c0-.546.051-1.125.16-1.821a2 2 0 0 0-1.317-2.199 11.524 11.524 0 0 1-7.735-10.866c0-3.702 1.809-7.204 4.839-9.366a2 2 0 0 0 .321-2.971 11.504 11.504 0 0 1-2.998-7.73c0-5.673 4.235-10.563 9.852-11.375a2 2 0 0 0 1.707-2.138c0-6.347 5.165-11.511 11.513-11.511 8.35 0 13.467.46 13.467 9.53a2 2 0 0 0 4 0c0-9.07 5.12-9.53 13.474-9.53 6.349 0 11.514 5.164 11.514 11.478a6.25 6.25 0 0 0-.006.192 2 2 0 0 0 1.714 1.979c5.613.811 9.847 5.701 9.847 11.375 0 2.853-1.064 5.598-2.997 7.73a2 2 0 0 0 .319 2.972 11.539 11.539 0 0 1 4.842 9.366 11.529 11.529 0 0 1-7.734 10.865z"></path><path d="M73.753 30.303c0-4.853-3.948-8.801-8.801-8.801-4.854 0-8.802 3.948-8.802 8.801 0 2.08.729 3.99 1.939 5.497-.353 10.579-8.47 19.122-18.613 19.675-1.607-2.136-4.155-3.525-7.028-3.525a8.751 8.751 0 0 0-3.241.626c-2.059-3.194-1.565-7.243-.381-9.962.824-1.893 1.88-2.974 2.602-3.349a8.741 8.741 0 0 0 5.107 1.648c4.854 0 8.802-3.948 8.802-8.801s-3.948-8.801-8.802-8.801c-4.853 0-8.801 3.948-8.801 8.801 0 1.492.375 2.896 1.033 4.128-1.409 1.011-2.682 2.649-3.609 4.776-1.619 3.718-2.23 9.321.767 13.847a8.755 8.755 0 0 0-2.279 5.888c0 4.853 3.948 8.801 8.802 8.801 4.853 0 8.801-3.948 8.801-8.801 0-.472-.048-.932-.12-1.383 10.695-1.254 19.248-9.883 20.753-20.826a8.733 8.733 0 0 0 3.068.563c.754 0 1.481-.105 2.181-.285 3.255 8.019 1.594 14.04.674 16.353-.708 1.781-1.522 2.84-2.041 3.315a8.746 8.746 0 0 0-4.368-1.171c-4.854 0-8.802 3.948-8.802 8.802 0 4.853 3.948 8.801 8.802 8.801 4.853 0 8.801-3.948 8.801-8.801 0-1.818-.555-3.51-1.503-4.914a10.473 10.473 0 0 0 1.482-1.875c2.801-4.441 4.486-12.837.508-22.363a8.778 8.778 0 0 0 3.069-6.664zm-37.217-2.994c2.647 0 4.802 2.154 4.802 4.801s-2.154 4.801-4.802 4.801c-2.647 0-4.801-2.154-4.801-4.801s2.154-4.801 4.801-4.801zm-4.087 38.242c-2.647 0-4.802-2.153-4.802-4.801s2.154-4.801 4.802-4.801c2.647 0 4.801 2.153 4.801 4.801s-2.154 4.801-4.801 4.801zm28.948 5.368c-2.647 0-4.802-2.153-4.802-4.801s2.154-4.802 4.802-4.802 4.801 2.154 4.801 4.802-2.153 4.801-4.801 4.801zM60.15 30.303c0-2.647 2.154-4.801 4.802-4.801s4.801 2.154 4.801 4.801-2.153 4.801-4.801 4.801-4.802-2.154-4.802-4.801z"></path></g><g id="SvgjsG527896" class="text" transform="translate(312.439826270943, 72.52379175497586) scale(1)" light-content="false" fill="url(#SvgjsLinearGradientOA3yBa-o2s)"><path d="M-181.38 -4.71C-177.68 -1.16 -172.38 0.62 -165.48 0.62C-161.06 0.62 -157.03 0 -153.39 -1.24L-153.39 -10.04C-156.9 -8.6 -160.66 -7.87 -164.67 -7.87C-168.72 -7.87 -171.75 -8.83 -173.75 -10.76C-175.76 -12.68 -176.76 -15.64 -176.76 -19.65C-176.76 -23.91 -175.8 -27.03 -173.88 -29.02C-171.96 -31 -168.93 -31.99 -164.8 -31.99C-160.83 -31.99 -157.05 -31.25 -153.45 -29.76L-153.45 -38.5C-155.35 -39.16 -157.26 -39.67 -159.18 -40.02C-161.11 -40.37 -163.23 -40.55 -165.54 -40.55C-172.61 -40.55 -177.94 -38.75 -181.54 -35.15C-185.13 -31.56 -186.93 -26.39 -186.93 -19.65C-186.93 -13.25 -185.08 -8.27 -181.38 -4.71Z M-152.33 -14.69C-152.33 -4.48 -146.82 0.62 -135.78 0.62C-124.7 0.62 -119.16 -4.48 -119.16 -14.69C-119.16 -19.7 -120.54 -23.5 -123.29 -26.1C-126.04 -28.71 -130.2 -30.01 -135.78 -30.01C-141.32 -30.01 -145.46 -28.7 -148.21 -26.07C-150.96 -23.45 -152.33 -19.65 -152.33 -14.69ZM-130.82 -8.93C-131.81 -7.77 -133.47 -7.19 -135.78 -7.19C-138.05 -7.19 -139.69 -7.77 -140.68 -8.93C-141.67 -10.09 -142.17 -12.01 -142.17 -14.69C-142.17 -17.34 -141.67 -19.25 -140.68 -20.43C-139.69 -21.61 -138.05 -22.2 -135.78 -22.2C-133.51 -22.2 -131.86 -21.62 -130.85 -20.46C-129.84 -19.3 -129.33 -17.38 -129.33 -14.69C-129.33 -12.01 -129.83 -10.09 -130.82 -8.93Z M-112.84 -2.7C-110.57 -0.49 -107.18 0.62 -102.67 0.62C-100.73 0.62 -99.01 0.36 -97.53 -0.15C-96.04 -0.67 -94.67 -1.45 -93.43 -2.48L-92.88 0L-84.26 0L-84.26 -41.79L-94.24 -41.79L-94.24 -28.02C-96.43 -29.35 -98.95 -30.01 -101.8 -30.01C-104.66 -30.01 -107.17 -29.38 -109.34 -28.12C-111.51 -26.86 -113.2 -25 -114.42 -22.54C-115.64 -20.08 -116.25 -17.11 -116.25 -13.64C-116.25 -8.56 -115.11 -4.91 -112.84 -2.7ZM-94.24 -8.87C-95.77 -7.38 -97.63 -6.63 -99.82 -6.63C-102.01 -6.63 -103.6 -7.12 -104.59 -8.09C-105.59 -9.06 -106.08 -10.89 -106.08 -13.58C-106.08 -16.47 -105.53 -18.71 -104.44 -20.3C-103.34 -21.9 -101.74 -22.69 -99.63 -22.69C-97.44 -22.69 -95.65 -22.05 -94.24 -20.77Z M-74.62 -3.29C-71.58 -0.68 -67.44 0.62 -62.19 0.62C-57.39 0.62 -53.59 -0.02 -50.78 -1.3L-50.78 -7.81C-51.89 -7.36 -53.29 -6.99 -54.96 -6.7C-56.64 -6.41 -58.28 -6.26 -59.89 -6.26C-62.91 -6.26 -65.22 -6.65 -66.84 -7.44C-68.45 -8.23 -69.48 -9.57 -69.94 -11.47L-49.1 -11.47L-49.1 -16.74C-49.1 -20.79 -50.41 -24.01 -53.01 -26.41C-55.61 -28.81 -59.21 -30.01 -63.8 -30.01C-68.8 -30.01 -72.61 -28.65 -75.24 -25.95C-77.86 -23.24 -79.17 -19.49 -79.17 -14.69C-79.17 -9.69 -77.65 -5.89 -74.62 -3.29ZM-57.78 -17.24L-69.94 -17.24C-69.94 -19.34 -69.45 -20.87 -68.48 -21.82C-67.51 -22.77 -65.84 -23.25 -63.49 -23.25C-59.69 -23.25 -57.78 -21.68 -57.78 -18.54Z M-44.02 -29.39L-44.02 0L-34.29 0L-34.29 -19.96C-32.43 -21.74 -30.63 -22.63 -28.89 -22.63C-27.49 -22.63 -26.52 -22.28 -25.98 -21.58C-25.44 -20.87 -25.17 -19.74 -25.17 -18.17L-25.17 0L-15.87 0L-15.87 -17.61C-15.87 -18.85 -15.93 -19.78 -16.06 -20.4C-15.44 -21.1 -14.68 -21.65 -13.8 -22.04C-12.91 -22.43 -11.97 -22.63 -10.97 -22.63C-9.44 -22.63 -8.34 -22.27 -7.66 -21.54C-6.98 -20.82 -6.63 -19.65 -6.63 -18.04L-6.63 0L3.22 0L3.22 -19.22C3.22 -22.86 2.41 -25.56 0.77 -27.34C-0.86 -29.12 -3.37 -30.01 -6.76 -30.01C-8.95 -30.01 -10.9 -29.71 -12.62 -29.11C-14.33 -28.51 -15.93 -27.67 -17.42 -26.6C-18.08 -27.71 -18.98 -28.56 -20.12 -29.14C-21.26 -29.72 -22.77 -30.01 -24.68 -30.01C-28.23 -30.01 -31.5 -28.93 -34.47 -26.78L-34.78 -29.39Z M12.56 -3.29C15.59 -0.68 19.74 0.62 24.99 0.62C29.78 0.62 33.58 -0.02 36.39 -1.3L36.39 -7.81C35.28 -7.36 33.88 -6.99 32.21 -6.7C30.54 -6.41 28.89 -6.26 27.28 -6.26C24.26 -6.26 21.95 -6.65 20.34 -7.44C18.72 -8.23 17.69 -9.57 17.24 -11.47L38.07 -11.47L38.07 -16.74C38.07 -20.79 36.77 -24.01 34.16 -26.41C31.56 -28.81 27.96 -30.01 23.37 -30.01C18.37 -30.01 14.56 -28.65 11.94 -25.95C9.31 -23.24 8 -19.49 8 -14.69C8 -9.69 9.52 -5.89 12.56 -3.29ZM29.39 -17.24L17.24 -17.24C17.24 -19.34 17.72 -20.87 18.69 -21.82C19.66 -22.77 21.33 -23.25 23.68 -23.25C27.49 -23.25 29.39 -21.68 29.39 -18.54Z M43.15 -29.39L43.15 0L52.89 0L52.89 -19.96C54.75 -21.74 56.54 -22.63 58.28 -22.63C59.69 -22.63 60.66 -22.28 61.19 -21.58C61.73 -20.87 62 -19.74 62 -18.17L62 0L71.3 0L71.3 -17.61C71.3 -18.85 71.24 -19.78 71.11 -20.4C71.73 -21.1 72.49 -21.65 73.38 -22.04C74.27 -22.43 75.21 -22.63 76.2 -22.63C77.73 -22.63 78.83 -22.27 79.52 -21.54C80.2 -20.82 80.54 -19.65 80.54 -18.04L80.54 0L90.4 0L90.4 -19.22C90.4 -22.86 89.58 -25.56 87.95 -27.34C86.31 -29.12 83.8 -30.01 80.41 -30.01C78.22 -30.01 76.27 -29.71 74.56 -29.11C72.84 -28.51 71.24 -27.67 69.75 -26.6C69.09 -27.71 68.19 -28.56 67.05 -29.14C65.92 -29.72 64.4 -30.01 62.5 -30.01C58.94 -30.01 55.68 -28.93 52.7 -26.78L52.39 -29.39Z M94.18 -14.69C94.18 -4.48 99.7 0.62 110.73 0.62C121.81 0.62 127.35 -4.48 127.35 -14.69C127.35 -19.7 125.97 -23.5 123.23 -26.1C120.48 -28.71 116.31 -30.01 110.73 -30.01C105.19 -30.01 101.05 -28.7 98.3 -26.07C95.55 -23.45 94.18 -19.65 94.18 -14.69ZM115.69 -8.93C114.7 -7.77 113.05 -7.19 110.73 -7.19C108.46 -7.19 106.83 -7.77 105.83 -8.93C104.84 -10.09 104.35 -12.01 104.35 -14.69C104.35 -17.34 104.84 -19.25 105.83 -20.43C106.83 -21.61 108.46 -22.2 110.73 -22.2C113.01 -22.2 114.65 -21.62 115.66 -20.46C116.67 -19.3 117.18 -17.38 117.18 -14.69C117.18 -12.01 116.68 -10.09 115.69 -8.93Z M132.43 -29.39L132.43 0L142.41 0L142.41 -19.78C143.57 -20.36 145.14 -20.9 147.13 -21.42C149.11 -21.94 150.97 -22.3 152.71 -22.51L152.71 -30.01C150.85 -29.84 148.97 -29.44 147.06 -28.8C145.16 -28.16 143.55 -27.45 142.23 -26.66L141.92 -29.39Z M158.01 10.7C159.06 10.84 160.35 10.91 161.88 10.91C165.48 10.91 168.43 9.79 170.75 7.53C173.06 5.28 175.13 1.96 176.95 -2.42L188.17 -29.39L177.75 -29.39L170.13 -10.73L162.38 -29.39L151.9 -29.39L165.11 -0.56C164.24 1.01 163.37 2.09 162.5 2.67C161.63 3.24 160.37 3.53 158.72 3.53C157.36 3.53 156.1 3.33 154.94 2.91L154.94 9.86C155.93 10.27 156.95 10.55 158.01 10.7Z"></path></g></g></svg>