<svg width="194" height="184" viewBox="0 0 194 184" fill="none" xmlns="http://www.w3.org/2000/svg">
<path opacity="0.6" d="M143.1 61.8002C155.14 61.8002 164.9 52.04 164.9 40.0002C164.9 27.9604 155.14 18.2002 143.1 18.2002C131.06 18.2002 121.3 27.9604 121.3 40.0002C121.3 52.04 131.06 61.8002 143.1 61.8002Z" fill="#E03E10"/>
<path opacity="0.6" d="M96.3 184C136.838 184 169.7 176.703 169.7 167.7C169.7 158.698 136.838 151.4 96.3 151.4C55.7623 151.4 22.9 158.698 22.9 167.7C22.9 176.703 55.7623 184 96.3 184Z" fill="#212B38"/>
<path opacity="0.6" d="M97.6 112.7C89.5 112.7 82.9 106.1 82.9 98C93 101.4 102.9 101.4 112.4 98C112.4 106.1 105.8 112.7 97.6 112.7Z" fill="#212B38"/>
<path opacity="0.6" d="M187.1 138.9C188.536 138.9 189.7 137.736 189.7 136.3C189.7 134.864 188.536 133.7 187.1 133.7C185.664 133.7 184.5 134.864 184.5 136.3C184.5 137.736 185.664 138.9 187.1 138.9Z" fill="#DF3200"/>
<path opacity="0.6" d="M97.6 13C92.3 13 88 17.3 88 22.6V30H107.2V22.6C107.2 17.3 102.9 13 97.6 13Z" fill="#212B38"/>
<path d="M102.8 77.7C102.8 67.1 116.9 67.1 116.9 77.7" stroke="#77839D" stroke-width="4" stroke-miterlimit="10" stroke-linecap="round" stroke-linejoin="round"/>
<path d="M78.1 148.6C79 155.8 85.1 161.3 92.5 161.3C99.9 161.3 106 155.7 107 148.6H78.1Z" stroke="#77839D" stroke-width="4" stroke-miterlimit="10"/>
<path d="M92.5 112.3C84.4 112.3 77.8 105.7 77.8 97.6001C87.9 101 97.8 101 107.3 97.6001C107.3 105.7 100.7 112.3 92.5 112.3Z" stroke="#77839D" stroke-width="4" stroke-miterlimit="10" stroke-linecap="round" stroke-linejoin="round"/>
<path d="M147.9 136.4C146.1 131.9 141.7 128.8 141.4 118.1V87.9999C141.4 78.9999 140.3 70.5999 138 63.0999C137.8 63.0999 137.7 63.0999 137.5 63.0999C125 63.0999 114.9 52.9999 114.9 40.4999C114.9 38.3999 115.2 36.3999 115.7 34.3999C109.4 31.1999 102 29.3999 93.3 29.3999C60.8 29.3999 45.2 54.3999 45.2 87.9999V118.1C44.9 128.8 40.5 131.9 38.7 136.4L36 143.1C35.3 144.8 36.5 146.7 38.3 146.7H93.4H148.5C150.1 146.7 151.3 144.8 150.6 143.1L147.9 136.4Z" stroke="#77839D" stroke-width="4" stroke-miterlimit="10"/>
<path d="M92.6 13C87.3 13 83 17.3 83 22.6V30H102.2V22.6C102.2 17.3 97.9 13 92.6 13Z" stroke="#77839D" stroke-width="3" stroke-miterlimit="10" stroke-linecap="round" stroke-linejoin="round"/>
<path d="M137.5 63.0999C149.982 63.0999 160.1 52.9815 160.1 40.4999C160.1 28.0182 149.982 17.8999 137.5 17.8999C125.018 17.8999 114.9 28.0182 114.9 40.4999C114.9 52.9815 125.018 63.0999 137.5 63.0999Z" stroke="#E03E10" stroke-width="4" stroke-miterlimit="10"/>
<path d="M139.7 52.6C143.953 52.6 147.4 47.317 147.4 40.8C147.4 34.2831 143.953 29 139.7 29C135.447 29 132 34.2831 132 40.8C132 47.317 135.447 52.6 139.7 52.6Z" stroke="#BBBBBB" stroke-width="4" stroke-miterlimit="10"/>
<path d="M70.1 77.7C70.1 67.1 84.2 67.1 84.2 77.7" stroke="#77839D" stroke-width="4" stroke-miterlimit="10" stroke-linecap="round" stroke-linejoin="round"/>
<path d="M187.1 141.3C190.027 141.3 192.4 138.927 192.4 136C192.4 133.073 190.027 130.7 187.1 130.7C184.173 130.7 181.8 133.073 181.8 136C181.8 138.927 184.173 141.3 187.1 141.3Z" stroke="#E03E10" stroke-width="3" stroke-miterlimit="10"/>
<path d="M181.7 46V58.8" stroke="#E03E10" stroke-width="3" stroke-miterlimit="10" stroke-linecap="round" stroke-linejoin="round"/>
<path d="M188.1 53.1001H175.3" stroke="#E03E10" stroke-width="3" stroke-miterlimit="10" stroke-linecap="round" stroke-linejoin="round"/>
<path d="M23.8 2V24.9" stroke="#E03E10" stroke-width="3" stroke-miterlimit="10" stroke-linecap="round" stroke-linejoin="round"/>
<path d="M35.2 14.7002H12.3" stroke="#E03E10" stroke-width="3" stroke-miterlimit="10" stroke-linecap="round" stroke-linejoin="round"/>
<path d="M2 95.7999L13.6 89.8999" stroke="#E03E10" stroke-width="3" stroke-miterlimit="10" stroke-linecap="round" stroke-linejoin="round"/>
<path d="M9.20001 111.4L13.6 89.8999" stroke="#E03E10" stroke-width="3" stroke-miterlimit="10" stroke-linecap="round" stroke-linejoin="round"/>
<path d="M21 105L9.20001 111.4" stroke="#E03E10" stroke-width="3" stroke-miterlimit="10" stroke-linecap="round" stroke-linejoin="round"/>
</svg>
