<svg width="16" height="16" viewBox="0 0 16 16" fill="none" xmlns="http://www.w3.org/2000/svg">
<path d="M13.6569 2.34315C12.1566 0.842855 10.1217 -1.58081e-08 8 0C5.87827 1.58081e-08 3.84344 0.842855 2.34315 2.34315C0.842855 3.84344 1.58081e-08 5.87827 0 8C-1.58081e-08 10.1217 0.842855 12.1566 2.34315 13.6569C3.84344 15.1571 5.87827 16 8 16C10.1217 16 12.1566 15.1571 13.6569 13.6569C15.1571 12.1566 16 10.1217 16 8C16 5.87827 15.1571 3.84344 13.6569 2.34315ZM8 14.9333C4.17697 14.9333 1.06668 11.823 1.06668 8C1.06668 4.17697 4.17697 1.06668 8 1.06668C11.823 1.06668 14.9333 4.17697 14.9333 8C14.9333 11.823 11.823 14.9333 8 14.9333Z" fill="#939393"/>
<path d="M7.99986 4.5332C7.31422 4.5332 6.64398 4.73652 6.07389 5.11744C5.5038 5.49836 5.05947 6.03978 4.79709 6.67322C4.53471 7.30667 4.46605 8.0037 4.59982 8.67616C4.73358 9.34863 5.06374 9.96633 5.54856 10.4511C6.03338 10.936 6.65108 11.2661 7.32355 11.3999C7.99601 11.5337 8.69304 11.465 9.32649 11.2026C9.95993 10.9402 10.5013 10.4959 10.8823 9.92582C11.2632 9.35573 11.4665 8.68549 11.4665 7.99985C11.4655 7.08076 11.0999 6.19961 10.45 5.54971C9.8001 4.89981 8.91895 4.53424 7.99986 4.5332ZM7.99986 10.3998C7.52518 10.3998 7.06117 10.2591 6.66649 9.99537C6.27182 9.73166 5.9642 9.35683 5.78255 8.91829C5.6009 8.47975 5.55338 7.99719 5.64598 7.53164C5.73859 7.06609 5.96716 6.63845 6.30281 6.30281C6.63845 5.96716 7.06609 5.73858 7.53164 5.64598C7.99719 5.55338 8.47975 5.6009 8.91829 5.78255C9.35683 5.9642 9.73166 6.27182 9.99537 6.66649C10.2591 7.06117 10.3998 7.52518 10.3998 7.99985C10.3991 8.63615 10.146 9.24618 9.69611 9.69611C9.24618 10.146 8.63615 10.3991 7.99986 10.3998Z" fill="#939393"/>
<path d="M8.53322 7.4668H7.46655V8.53346H8.53322V7.4668Z" fill="#939393"/>
<path d="M7.99998 3.19999V2.13333C7.07315 2.13056 6.15913 2.34976 5.33438 2.77259C4.53811 3.18101 3.84482 3.76467 3.30664 4.47966L4.15951 5.12029C4.60468 4.52195 5.1841 4.03647 5.85114 3.70294C6.51818 3.36941 7.25421 3.19714 7.99998 3.19999Z" fill="#939393"/>
</svg>
