<svg width="19" height="23" viewBox="0 0 19 23" fill="none" xmlns="http://www.w3.org/2000/svg">
<path d="M18.1333 18.1032C18.0664 18.0598 17.5631 17.7072 17.0592 16.6407C16.1338 14.6821 15.9395 11.9231 15.9395 9.95345C15.9395 9.94487 15.9394 9.93639 15.939 9.92786C15.929 7.32474 14.3702 5.08076 12.1396 4.07393V2.53411C12.1396 1.13679 11.0047 0 9.60971 0H9.40004C8.00503 0 6.87011 1.13679 6.87011 2.53411V4.07384C4.63207 5.08391 3.07022 7.33936 3.07022 9.95345C3.07022 11.9231 2.87598 14.6821 1.95054 16.6407C1.44666 17.7072 0.943401 18.0597 0.87649 18.1032C0.594714 18.2336 0.455781 18.5348 0.520604 18.8401C0.58605 19.1484 0.874224 19.3609 1.18892 19.3609H6.07388C6.10116 21.2333 7.62928 22.7482 9.5049 22.7482C11.3805 22.7482 12.9086 21.2333 12.9359 19.3609H17.8209C18.1355 19.3609 18.4237 19.1484 18.4892 18.8401C18.5539 18.5348 18.415 18.2335 18.1333 18.1032ZM8.20305 2.53411C8.20305 1.87295 8.74004 1.33508 9.40009 1.33508H9.60975C10.2698 1.33508 10.8068 1.87295 10.8068 2.53411V3.64118C10.3861 3.55423 9.95067 3.50847 9.50472 3.50847C9.05891 3.50847 8.62358 3.55418 8.2031 3.64105V2.53411H8.20305ZM9.5049 21.4131C8.36425 21.4131 7.43384 20.4971 7.40678 19.361H11.603C11.576 20.4971 10.6456 21.4131 9.5049 21.4131ZM12.1885 18.0258C12.1883 18.0258 2.70776 18.0258 2.70776 18.0258C2.82306 17.8461 2.9404 17.6427 3.05703 17.4128C3.95025 15.6514 4.40317 13.1418 4.40317 9.95345C4.40317 7.13583 6.69172 4.84355 9.50468 4.84355C12.3176 4.84355 14.6062 7.13583 14.6062 9.95567C14.6062 9.96389 14.6063 9.97207 14.6066 9.98024C14.6092 13.1557 15.062 15.6564 15.9528 17.4128C16.0694 17.6427 16.1868 17.8461 16.302 18.0258H12.1885Z" fill="white"/>
</svg>
