<svg width="30" height="30" viewBox="0 0 30 30" fill="#C10202" xmlns="http://www.w3.org/2000/svg">
<path d="M25.6117 4.38844C19.7607 -1.46253 10.24 -1.4631 4.38844 4.38844C-1.4631 10.24 -1.46253 19.7602 4.38844 25.6117C10.2394 31.4632 19.7602 31.4632 25.6117 25.6117C31.4627 19.7602 31.4627 10.2394 25.6117 4.38844ZM20.918 20.918C20.4672 21.3688 19.7365 21.3688 19.2857 20.918L15.0001 16.6324L10.5107 21.1217C10.0599 21.5725 9.32919 21.5725 8.8784 21.1217C8.42762 20.671 8.42762 19.9402 8.8784 19.4894L13.3678 15.0001L9.08215 10.7144C8.63136 10.2637 8.63136 9.53235 9.08215 9.08215C9.53293 8.63136 10.2637 8.63136 10.7144 9.08215L15.0001 13.3678L19.0814 9.28647C19.5322 8.83569 20.2629 8.83569 20.7137 9.28647C21.1645 9.73726 21.1645 10.468 20.7137 10.9188L16.6324 15.0001L20.918 19.2857C21.3688 19.7365 21.3688 20.4672 20.918 20.918Z" fill="inherit"/>
</svg>
