<svg width="16" height="16" viewBox="0 0 16 16" fill="none" xmlns="http://www.w3.org/2000/svg">
<path d="M8.00021 0.500003C9.51264 0.500045 10.9897 0.957347 12.2376 1.81189C13.4855 2.66644 14.4459 3.87829 14.9927 5.28841C15.5395 6.69854 15.6472 8.24104 15.3017 9.71347C14.9561 11.1859 14.1735 12.5195 13.0565 13.5391C11.9395 14.5588 10.5403 15.217 9.04253 15.4272C7.54478 15.6374 6.01847 15.3899 4.6639 14.7172C3.30933 14.0444 2.18981 12.9779 1.45225 11.6575C0.714701 10.3371 0.393585 8.82451 0.531048 7.31834C0.538435 7.23659 0.56185 7.1571 0.599959 7.0844C0.638067 7.0117 0.690121 6.94722 0.753148 6.89464C0.816176 6.84206 0.888943 6.80241 0.967295 6.77795C1.04565 6.75349 1.12805 6.7447 1.2098 6.75209C1.29155 6.75947 1.37104 6.78289 1.44374 6.821C1.51643 6.85911 1.58092 6.91116 1.6335 6.97419C1.68608 7.03722 1.72573 7.10998 1.75019 7.18833C1.77465 7.26669 1.78343 7.34909 1.77605 7.43084C1.69032 8.34398 1.80769 9.26477 2.11975 10.1272C2.43182 10.9896 2.93084 11.7723 3.58105 12.4192C4.16026 13.001 4.849 13.4624 5.60749 13.7766C6.36598 14.0909 7.17921 14.2518 8.00021 14.25C9.0656 14.2498 10.1133 13.9772 11.0437 13.4582C11.9741 12.9392 12.7564 12.191 13.3163 11.2846C13.8762 10.3782 14.1951 9.34369 14.2427 8.27937C14.2903 7.21505 14.0651 6.15621 13.5884 5.20343C13.1117 4.25064 12.3993 3.43553 11.519 2.8355C10.6386 2.23548 9.61949 1.87045 8.55838 1.77509C7.49727 1.67973 6.42939 1.8572 5.45616 2.29065C4.48294 2.72411 3.63666 3.39915 2.99771 4.25167H5.29438C5.45273 4.25172 5.60516 4.31187 5.72087 4.41998C5.83658 4.52809 5.90694 4.67609 5.91774 4.83407C5.92853 4.99205 5.87895 5.14825 5.77902 5.27109C5.67909 5.39392 5.53626 5.47425 5.37938 5.49584L5.29438 5.50167H1.54188C1.39085 5.50166 1.24493 5.44697 1.13111 5.3477C1.01728 5.24843 0.943255 5.1113 0.922714 4.96167L0.916881 4.87667V1.12667C0.91693 0.968317 0.977085 0.815885 1.08519 0.700176C1.1933 0.584468 1.3413 0.514108 1.49928 0.503314C1.65727 0.492521 1.81346 0.542099 1.9363 0.64203C2.05914 0.741961 2.13946 0.884795 2.16105 1.04167L2.16688 1.12667L2.16605 3.28584C2.86863 2.41515 3.75739 1.71295 4.767 1.23086C5.7766 0.748768 6.88141 0.499031 8.00021 0.500003V0.500003ZM7.37521 3.83334C7.52625 3.83334 7.67217 3.88804 7.78599 3.98731C7.89981 4.08658 7.97384 4.22371 7.99438 4.37334L8.00021 4.45834V8H9.87521C10.0336 8.00005 10.186 8.06021 10.3017 8.16831C10.4174 8.27642 10.4878 8.42442 10.4986 8.5824C10.5094 8.74039 10.4598 8.89658 10.3599 9.01942C10.2599 9.14226 10.1171 9.22259 9.96021 9.24417L9.87521 9.25H7.37521C7.22418 9.25 7.07826 9.1953 6.96444 9.09603C6.85061 8.99676 6.77659 8.85963 6.75605 8.71L6.75021 8.625V4.45834C6.75021 4.29258 6.81606 4.1336 6.93327 4.01639C7.05048 3.89918 7.20945 3.83334 7.37521 3.83334V3.83334Z" fill="#939393"/>
</svg>
