<svg width="20" height="20" viewBox="0 0 20 20" fill="none" xmlns="http://www.w3.org/2000/svg">
<path d="M18.7279 9.60573L10.3945 1.27239C10.2905 1.16892 10.1496 1.11084 10.0029 1.11084C9.8561 1.11084 9.7153 1.16892 9.61121 1.27239L1.27787 9.60573C1.18686 9.712 1.1393 9.84871 1.1447 9.98853C1.1501 10.1284 1.20806 10.261 1.30701 10.3599C1.40595 10.4589 1.53858 10.5168 1.6784 10.5222C1.81822 10.5276 1.95493 10.4801 2.06121 10.3891L10.0001 2.45017L17.939 10.3946C18.0453 10.4856 18.182 10.5332 18.3218 10.5278C18.4616 10.5224 18.5942 10.4644 18.6932 10.3655C18.7921 10.2665 18.8501 10.1339 18.8555 9.99409C18.8609 9.85427 18.8133 9.71756 18.7223 9.61128L18.7279 9.60573Z" fill="#939393"/>
<path d="M15.5555 17.7778H12.7777V12.2223H7.22214V17.7778H4.44436V10L3.33325 11.1111V17.7778C3.33325 18.0725 3.45032 18.3551 3.65869 18.5635C3.86706 18.7719 4.14968 18.8889 4.44436 18.8889H8.33325V13.3334H11.6666V18.8889H15.5555C15.8502 18.8889 16.1328 18.7719 16.3411 18.5635C16.5495 18.3551 16.6666 18.0725 16.6666 17.7778V10.9778L15.5555 9.8667V17.7778Z" fill="#939393"/>
</svg>
