<svg width="24" height="24" viewBox="0 0 24 24" fill="none" xmlns="http://www.w3.org/2000/svg">
<rect width="24" height="24" fill="#939393"/>
<rect x="4" y="4" width="16" height="16" rx="3" fill="#070E17"/>
<path d="M17.0208 4H6.97919C5.33647 4 4 5.33647 4 6.97916V17.0208C4 18.6635 5.33647 20 6.97919 20H17.0208C18.6635 20 20 18.6635 20 17.0208V6.97916C20 5.33647 18.6635 4 17.0208 4ZM19.0625 17.0208C19.0625 18.1466 18.1466 19.0625 17.0208 19.0625H6.97919C5.85341 19.0625 4.9375 18.1466 4.9375 17.0208V6.97916C4.9375 5.85341 5.85341 4.9375 6.97919 4.9375H17.0208C18.1466 4.9375 19.0625 5.85341 19.0625 6.97916V17.0208Z" fill="#939393"/>
<path d="M11.9998 8.51855C10.0802 8.51855 8.51855 10.0802 8.51855 11.9998C8.51855 13.9194 10.0802 15.4811 11.9998 15.4811C13.9194 15.4811 15.4811 13.9194 15.4811 11.9998C15.4811 10.0802 13.9194 8.51855 11.9998 8.51855ZM11.9998 14.5436C10.5971 14.5436 9.45605 13.4024 9.45605 11.9998C9.45605 10.5972 10.5972 9.45605 11.9998 9.45605C13.4024 9.45605 14.5436 10.5972 14.5436 11.9998C14.5436 13.4024 13.4025 14.5436 11.9998 14.5436Z" fill="#939393"/>
<path d="M16.8501 7.14991C16.7629 7.06273 16.642 7.0127 16.5186 7.0127C16.3951 7.0127 16.2742 7.06273 16.187 7.14991C16.0998 7.2371 16.0498 7.35804 16.0498 7.48145C16.0498 7.60488 16.0998 7.72582 16.187 7.81301C16.2745 7.9002 16.3951 7.9502 16.5186 7.9502C16.642 7.9502 16.7626 7.9002 16.8501 7.81301C16.9373 7.72551 16.9873 7.60488 16.9873 7.48145C16.9873 7.35804 16.9373 7.23738 16.8501 7.14991Z" fill="#939393"/>
</svg>
