<svg width="22" height="17" viewBox="0 0 22 17" fill="none" xmlns="http://www.w3.org/2000/svg" stroke="white">
<path d="M1 11.0001V7.00007C1 6.73486 1.10536 6.4805 1.29289 6.29296C1.48043 6.10543 1.73478 6.00007 2 6.00007H4.697C4.89453 6.00012 5.08765 5.94166 5.252 5.83207L9.445 3.03607C9.59574 2.9355 9.77098 2.87778 9.95198 2.86907C10.133 2.86037 10.313 2.90102 10.4726 2.98667C10.6323 3.07232 10.7658 3.19975 10.8586 3.35535C10.9515 3.51095 11.0004 3.68886 11 3.87007V14.1301C11 14.3111 10.9509 14.4888 10.8579 14.6441C10.7648 14.7994 10.6314 14.9265 10.4718 15.0119C10.3121 15.0974 10.1323 15.1378 9.95148 15.129C9.77065 15.1203 9.5956 15.0626 9.445 14.9621L5.252 12.1671C5.08754 12.0578 4.89443 11.9997 4.697 12.0001H2C1.73478 12.0001 1.48043 11.8947 1.29289 11.7072C1.10536 11.5196 1 11.2653 1 11.0001V11.0001Z" stroke="inherit" fill="inherit" stroke-width="1.5"/>
<path d="M15.5 4.5C15.5 4.5 17 6 17 8.5C17 11 15.5 12.5 15.5 12.5" stroke="inherit" fill="inherit" stroke-width="1.5" stroke-linecap="round" stroke-linejoin="round"/>
<path d="M18.5 1.5C18.5 1.5 21 4 21 8.5C21 13 18.5 15.5 18.5 15.5" stroke="inherit" fill="inherit" stroke-width="1.5" stroke-linecap="round" stroke-linejoin="round"/>
</svg>
