<svg width="16" height="15" viewBox="0 0 16 15" fill="white" xmlns="http://www.w3.org/2000/svg">
<path d="M1.10117 4.40468H12.1129C12.7185 4.40468 13.214 4.90021 13.214 5.50585C13.214 6.11149 12.7185 6.60702 12.1129 6.60702H1.10117C0.495526 6.60702 0 6.11149 0 5.50585C0 4.90021 0.495526 4.40468 1.10117 4.40468ZM1.10117 0H12.1129C12.7185 0 13.214 0.495526 13.214 1.10117C13.214 1.70681 12.7185 2.20234 12.1129 2.20234H1.10117C0.495526 2.20234 0 1.70681 0 1.10117C0 0.495526 0.495526 0 1.10117 0ZM1.10117 8.80936H7.70819C8.31383 8.80936 8.80936 9.30489 8.80936 9.91053C8.80936 10.5162 8.31383 11.0117 7.70819 11.0117H1.10117C0.495526 11.0117 0 10.5162 0 9.91053C0 9.30489 0.495526 8.80936 1.10117 8.80936ZM11.0117 9.77839V14.4363C11.0117 14.8658 11.4742 15.1301 11.8486 14.9098L15.7357 12.5754C16.0881 12.3661 16.0881 11.8486 15.7357 11.6284L11.8486 9.29387C11.7636 9.24532 11.6674 9.21992 11.5695 9.2202C11.4716 9.22048 11.3755 9.24643 11.2908 9.29547C11.2061 9.34451 11.1358 9.41492 11.0868 9.49966C11.0378 9.5844 11.0119 9.68051 11.0117 9.77839Z" stroke="inherit" fill="inherit"/>
</svg>
