<svg width="18" height="18" viewBox="0 0 18 18" fill="none" xmlns="http://www.w3.org/2000/svg">
<path d="M17.1474 16.2636L12.4274 11.5436C13.5616 10.1819 14.1272 8.43537 14.0065 6.66729C13.8858 4.89921 13.0881 3.24572 11.7794 2.0508C10.4706 0.855876 8.75156 0.211522 6.97982 0.251779C5.20808 0.292036 3.52007 1.01381 2.26694 2.26694C1.01381 3.52007 0.292036 5.20808 0.251779 6.97982C0.211522 8.75156 0.855876 10.4706 2.0508 11.7794C3.24572 13.0881 4.89921 13.8858 6.66729 14.0065C8.43537 14.1272 10.1819 13.5616 11.5436 12.4274L16.2636 17.1474L17.1474 16.2636ZM1.52235 7.14735C1.52235 6.03483 1.85225 4.94729 2.47033 4.02227C3.08842 3.09724 3.96692 2.37627 4.99476 1.95053C6.02259 1.52478 7.15359 1.41339 8.24473 1.63043C9.33588 1.84747 10.3382 2.3832 11.1248 3.16987C11.9115 3.95654 12.4472 4.95882 12.6643 6.04997C12.8813 7.14111 12.7699 8.27211 12.3442 9.29994C11.9184 10.3278 11.1975 11.2063 10.2724 11.8244C9.34741 12.4425 8.25987 12.7724 7.14735 12.7724C5.65601 12.7707 4.22624 12.1775 3.1717 11.123C2.11717 10.0685 1.524 8.63868 1.52235 7.14735V7.14735Z" fill="#939393"/>
</svg>
