<svg width="16" height="16" viewBox="0 0 16 16" fill="none" xmlns="http://www.w3.org/2000/svg">
<g clip-path="url(#clip0_515_4602)">
<path d="M15.181 6.32138L14.058 6.13087C13.941 5.75318 13.7906 5.38887 13.6068 5.04126L14.2686 4.11543C14.5493 3.72103 14.5059 3.18291 14.1616 2.84198L13.1656 1.84596C12.9784 1.65879 12.7311 1.55518 12.467 1.55518C12.2598 1.55518 12.0626 1.61868 11.8955 1.73901L10.9663 2.40079C10.6053 2.21028 10.2276 2.05319 9.83658 1.9362L9.64941 0.82654C9.56919 0.348582 9.15808 0.000976562 8.67344 0.000976562H7.2663C6.78166 0.000976562 6.37055 0.348582 6.29033 0.82654L6.09647 1.96294C5.72213 2.07993 5.35781 2.23368 5.0102 2.42085L4.09105 1.75906C3.92394 1.63873 3.72339 1.57523 3.51617 1.57523C3.25212 1.57523 3.00144 1.67884 2.81761 1.86602L1.81825 2.86204C1.47733 3.20296 1.43053 3.74108 1.71129 4.13548L2.37976 5.07468C2.19593 5.42563 2.04887 5.78995 1.93523 6.16764L0.825564 6.35481C0.347606 6.43502 0 6.84614 0 7.33078V8.73791C0 9.22256 0.347606 9.63367 0.825564 9.71388L1.96197 9.90774C2.07895 10.2821 2.2327 10.6464 2.41987 10.994L1.76143 11.9098C1.48067 12.3042 1.52412 12.8423 1.86838 13.1833L2.86441 14.1793C3.05158 14.3665 3.29891 14.4701 3.56296 14.4701C3.77019 14.4701 3.96739 14.4066 4.13451 14.2862L5.07371 13.6178C5.41129 13.7949 5.76558 13.9386 6.1299 14.0523L6.31707 15.1753C6.39729 15.6533 6.8084 16.0009 7.29304 16.0009H8.70352C9.18816 16.0009 9.59927 15.6533 9.67949 15.1753L9.87 14.0523C10.2477 13.9353 10.612 13.7849 10.9596 13.6011L11.8854 14.2628C12.0526 14.3832 12.2531 14.4467 12.4603 14.4467C12.7244 14.4467 12.9717 14.3431 13.1589 14.1559L14.1549 13.1599C14.4958 12.8189 14.5426 12.2808 14.2619 11.8864L13.6001 10.9572C13.7839 10.6063 13.9377 10.242 14.0513 9.86763L15.1743 9.68046C15.6523 9.60024 15.9999 9.18913 15.9999 8.70449V7.29735C16.0066 6.81271 15.659 6.4016 15.181 6.32138ZM15.1041 8.70449C15.1041 8.74794 15.0741 8.78471 15.0306 8.79139L13.6268 9.02536C13.4497 9.05544 13.3093 9.18579 13.2658 9.35625C13.1388 9.84758 12.945 10.3189 12.6843 10.7567C12.594 10.9104 12.6007 11.101 12.7043 11.248L13.5299 12.4112C13.5533 12.4446 13.5499 12.4947 13.5199 12.5248L12.5238 13.5208C12.5004 13.5442 12.477 13.5476 12.4603 13.5476C12.4403 13.5476 12.4236 13.5409 12.4102 13.5309L11.2504 12.7053C11.1067 12.6017 10.9128 12.595 10.7591 12.6852C10.3212 12.9459 9.84995 13.1398 9.35862 13.2668C9.18482 13.3103 9.05447 13.454 9.02773 13.6278L8.79042 15.0316C8.78373 15.075 8.74697 15.1051 8.70352 15.1051H7.29638C7.25293 15.1051 7.21617 15.075 7.20948 15.0316L6.97552 13.6278C6.94543 13.4506 6.81508 13.3103 6.64462 13.2668C6.16666 13.1431 5.70542 12.9526 5.27425 12.7053C5.20406 12.6652 5.12385 12.6451 5.04697 12.6451C4.95673 12.6451 4.86314 12.6719 4.78627 12.7287L3.61644 13.5609C3.59973 13.571 3.58301 13.5777 3.5663 13.5777C3.55293 13.5777 3.52619 13.5743 3.5028 13.5509L2.50677 12.5549C2.47669 12.5248 2.47335 12.478 2.49675 12.4413L3.31897 11.2881C3.42258 11.1411 3.42927 10.9472 3.33902 10.7935C3.07832 10.359 2.87778 9.88769 2.75077 9.39636C2.70397 9.2259 2.56359 9.09555 2.38979 9.06546L0.975971 8.82481C0.93252 8.81813 0.902438 8.78136 0.902438 8.73791V7.33078C0.902438 7.28733 0.93252 7.25056 0.975971 7.24388L2.36974 7.00991C2.54688 6.97983 2.6906 6.84948 2.73405 6.67568C2.85772 6.18435 3.04824 5.70973 3.3056 5.27188C3.39584 5.11813 3.38582 4.92762 3.2822 4.7839L2.44995 3.61407C2.42656 3.58065 2.4299 3.53051 2.45998 3.50043L3.45601 2.50441C3.4794 2.48101 3.5028 2.47767 3.51951 2.47767C3.53956 2.47767 3.55628 2.48435 3.56965 2.49438L4.72276 3.3166C4.86983 3.42021 5.06368 3.4269 5.21743 3.33665C5.65194 3.07595 6.12321 2.87541 6.61454 2.7484C6.785 2.70161 6.91535 2.56123 6.94543 2.38742L7.18608 0.973604C7.19277 0.930153 7.22954 0.900072 7.27299 0.900072H8.68012C8.72357 0.900072 8.76034 0.930153 8.76702 0.973604L9.00099 2.36737C9.03107 2.54451 9.16142 2.68824 9.33522 2.73169C9.83992 2.8587 10.3212 3.0559 10.7691 3.31994C10.9228 3.41019 11.1134 3.4035 11.2604 3.29989L12.4135 2.47098C12.4303 2.46096 12.447 2.45427 12.4637 2.45427C12.477 2.45427 12.5038 2.45761 12.5272 2.48101L13.5232 3.47703C13.5533 3.50712 13.5566 3.55391 13.5332 3.59067L12.7077 4.75047C12.6041 4.8942 12.5974 5.08805 12.6876 5.2418C12.9483 5.67965 13.1422 6.15092 13.2692 6.64225C13.3126 6.81605 13.4564 6.94641 13.6302 6.97315L15.034 7.21045C15.0774 7.21714 15.1075 7.2539 15.1075 7.29735V8.70449H15.1041V8.70449Z" fill="white"/>
<path d="M8.00152 4.54541C6.09637 4.54541 4.54886 6.09292 4.54886 7.99807C4.54886 9.90322 6.09637 11.4507 8.00152 11.4507C9.90667 11.4507 11.4542 9.90322 11.4542 7.99807C11.4542 6.09292 9.90667 4.54541 8.00152 4.54541ZM8.00152 10.5483C6.59439 10.5483 5.4513 9.40521 5.4513 7.99807C5.4513 6.59094 6.59439 5.44785 8.00152 5.44785C9.40866 5.44785 10.5517 6.59094 10.5517 7.99807C10.5517 9.40521 9.40866 10.5483 8.00152 10.5483Z" fill="white"/>
</g>
<defs>
<clipPath id="clip0_515_4602">
<rect width="16" height="16" fill="white"/>
</clipPath>
</defs>
</svg>
