<svg width="24" height="24" viewBox="0 0 24 24" fill="none" xmlns="http://www.w3.org/2000/svg">
<path fill-rule="evenodd" clip-rule="evenodd" d="M0 0V24H24V0H0ZM18.6066 8.61146C18.6131 8.75773 18.6165 8.90479 18.6165 9.05243C18.6165 13.5572 15.1878 18.7514 8.91766 18.7514C6.9926 18.7514 5.20077 18.1871 3.69226 17.2198C3.95895 17.2515 4.23022 17.2676 4.50546 17.2676C6.10254 17.2676 7.57234 16.7227 8.73906 15.8082C7.24737 15.7808 5.9884 14.7952 5.55455 13.4409C5.7628 13.4808 5.97637 13.5022 6.19601 13.5022C6.5069 13.5022 6.80809 13.4604 7.09414 13.3826C5.53477 13.0693 4.35967 11.6917 4.35967 10.0401C4.35967 10.0257 4.35967 10.0114 4.35998 9.99719C4.81952 10.2525 5.34509 10.4059 5.90395 10.4236C4.9892 9.81231 4.38757 8.76886 4.38757 7.58632C4.38757 6.96153 4.55567 6.37604 4.84916 5.87246C6.53037 7.93493 9.0422 9.29196 11.8753 9.43427C11.8171 9.18467 11.7868 8.92447 11.7868 8.65735C11.7868 6.77491 13.3132 5.24867 15.1956 5.24867C16.1762 5.24867 17.0621 5.66258 17.6839 6.32503C18.4603 6.17233 19.1899 5.88849 19.8485 5.4979C19.5941 6.29396 19.0536 6.96185 18.3497 7.38382C19.0393 7.30138 19.6962 7.11808 20.3076 6.84696C19.8507 7.53051 19.2728 8.13094 18.6066 8.61146Z" fill="#939393"/>
</svg>
