<svg width="24" height="24" viewBox="0 0 24 24" fill="none" xmlns="http://www.w3.org/2000/svg">
<path fill-rule="evenodd" clip-rule="evenodd" d="M0 0V24H24V0H0ZM17.992 13.2779C18.5429 13.8154 19.1255 14.3215 19.62 14.9157C19.8385 15.1782 20.0452 15.4491 20.2027 15.7533C20.4263 16.1892 20.2236 16.6668 19.8342 16.6931L17.4145 16.6921C16.7899 16.7434 16.2921 16.4916 15.8724 16.0643C15.5386 15.7241 15.2266 15.3599 14.9044 15.0081C14.7732 14.8633 14.6346 14.7278 14.4698 14.6198C14.1392 14.4056 13.8525 14.4706 13.6635 14.8149C13.4714 15.1656 13.4262 15.555 13.4085 15.9455C13.3822 16.5156 13.2102 16.6647 12.638 16.6921C11.4139 16.7488 10.2529 16.5628 9.1747 15.9466C8.22251 15.4029 7.48563 14.6343 6.84411 13.7652C5.5939 12.0707 4.63638 10.2105 3.77665 8.29672C3.58233 7.86541 3.72427 7.63427 4.19858 7.62593C4.98926 7.61032 5.77962 7.61222 6.5692 7.62488C6.89037 7.63026 7.10347 7.81382 7.22632 8.11722C7.65363 9.16721 8.1763 10.1665 8.83237 11.0936C9.00786 11.3403 9.1863 11.5859 9.43917 11.7601C9.71947 11.9533 9.93368 11.8902 10.0659 11.5763C10.15 11.3769 10.1868 11.1649 10.2045 10.9517C10.2674 10.222 10.275 9.4916 10.1667 8.76411C10.0995 8.30938 9.84232 8.01537 9.38891 7.92939C9.15777 7.88529 9.19242 7.80037 9.30372 7.66787C9.49909 7.44026 9.68292 7.29832 10.0471 7.29832H12.7819C13.2132 7.38245 13.3099 7.57672 13.3685 8.01025L13.3707 11.0495C13.3656 11.2174 13.4548 11.7149 13.7561 11.8251C13.9974 11.9049 14.1581 11.7106 14.3029 11.5574C14.9579 10.8624 15.4252 10.0406 15.8428 9.19026C16.0277 8.81644 16.1874 8.42811 16.3427 8.03947C16.4572 7.75189 16.6356 7.61027 16.96 7.61538L19.593 7.6186C19.6706 7.6186 19.7505 7.6186 19.8271 7.63121C20.2699 7.7078 20.3917 7.8989 20.2541 8.33238C20.0391 9.0115 19.618 9.57853 19.2076 10.1464C18.7676 10.7543 18.2995 11.341 17.8628 11.9521C17.4639 12.5117 17.4954 12.7931 17.992 13.2779Z" fill="#939393"/>
</svg>
