<?xml version="1.0" standalone="no"?>
<!DOCTYPE svg PUBLIC "-//W3C//DTD SVG 20010904//EN"
 "http://www.w3.org/TR/2001/REC-SVG-20010904/DTD/svg10.dtd">
<svg version="1.0" xmlns="http://www.w3.org/2000/svg"
 width="624.000000pt" height="624.000000pt" viewBox="0 0 624.000000 624.000000"
 preserveAspectRatio="xMidYMid meet">
<metadata>
Created by potrace 1.14, written by Peter Selinger 2001-2017
</metadata>
<g transform="translate(0.000000,624.000000) scale(0.100000,-0.100000)"
fill="#000000" stroke="none">
<path d="M1989 5816 c-2 -2 -20 -6 -39 -9 -43 -6 -151 -42 -201 -68 -53 -27
-163 -111 -201 -155 -75 -84 -149 -217 -163 -292 -2 -13 -6 -31 -9 -40 -13
-44 -18 -149 -18 -397 0 -148 1 -274 2 -280 1 -5 1 -14 0 -20 -1 -5 -3 -64 -4
-130 l-1 -119 -110 -64 c-60 -35 -128 -74 -150 -86 -90 -51 -388 -224 -500
-289 -66 -39 -140 -81 -164 -94 -115 -62 -261 -187 -277 -235 -3 -10 -10 -18
-15 -18 -5 0 -9 -5 -9 -11 0 -6 -8 -23 -18 -37 -23 -33 -59 -119 -66 -155 -2
-15 -7 -31 -10 -36 -7 -11 -16 -92 -17 -161 -3 -183 70 -366 201 -500 55 -56
178 -150 197 -150 3 0 39 -20 80 -45 40 -25 78 -45 83 -45 6 0 10 -4 10 -10 0
-5 5 -10 10 -10 6 0 54 -25 108 -56 53 -31 111 -65 127 -74 17 -10 141 -81
276 -159 l246 -142 0 -148 c0 -81 3 -153 6 -158 4 -6 4 -13 0 -16 -8 -8 -8
-291 0 -304 4 -6 3 -13 0 -17 -14 -14 0 -265 17 -311 5 -14 8 -25 5 -25 -10 0
64 -159 92 -201 53 -76 122 -146 192 -193 65 -43 181 -101 181 -89 0 3 6 1 13
-5 7 -6 28 -14 47 -17 19 -3 51 -10 70 -14 35 -7 158 -6 209 3 87 14 176 46
253 91 33 19 61 35 62 35 2 0 77 43 166 95 89 52 164 95 166 95 2 0 37 20 77
45 41 25 80 45 86 45 6 0 11 3 11 8 0 4 24 20 54 35 l53 28 44 -24 c24 -14
127 -73 229 -133 102 -59 214 -124 250 -144 36 -20 85 -49 110 -64 145 -87
254 -120 400 -120 124 -1 151 3 248 37 109 38 177 82 272 177 118 117 184 249
206 409 8 54 8 336 1 348 -4 6 -4 13 0 17 4 3 6 121 6 261 l0 256 61 36 c33
20 75 43 91 53 17 9 155 90 308 179 153 88 283 161 288 161 5 0 9 5 9 10 0 6
4 10 10 10 5 0 33 14 62 31 29 18 73 43 98 57 109 60 194 128 253 201 54 67
119 195 132 259 2 12 6 26 9 31 15 23 21 184 11 266 -25 208 -170 420 -356
523 -70 39 -84 47 -89 52 -6 6 -37 23 -99 56 -24 13 -49 28 -55 33 -6 4 -31
20 -56 33 -95 53 -126 71 -150 88 -14 10 -29 19 -35 20 -5 2 -19 8 -30 15 -23
14 -152 89 -206 120 -20 11 -85 48 -146 83 l-110 63 0 138 c0 76 -3 143 -6
148 -4 6 -4 13 0 17 8 8 8 330 0 343 -3 5 -2 14 2 21 13 22 -1 225 -21 297 -6
22 -13 47 -14 55 -2 8 -20 47 -40 87 -50 99 -145 207 -232 266 -71 48 -194
104 -242 112 -14 2 -38 7 -55 11 -56 13 -209 7 -280 -11 -77 -19 -185 -70
-315 -146 -101 -60 -153 -90 -200 -115 -19 -11 -36 -22 -38 -26 -2 -5 -8 -8
-13 -8 -8 0 -134 -72 -209 -119 -14 -8 -42 -24 -62 -34 l-37 -19 -122 71 c-67
39 -125 71 -130 71 -4 0 -9 3 -11 8 -1 4 -16 14 -33 23 -16 9 -86 49 -155 90
-69 40 -128 73 -132 72 -3 -2 -12 4 -18 12 -7 8 -18 15 -25 15 -8 0 -15 3 -17
8 -5 12 -130 71 -198 93 -59 18 -278 37 -291 25z m511 -371 c11 -4 32 -8 46
-11 50 -9 169 -65 264 -124 8 -5 38 -21 65 -36 28 -14 57 -32 66 -40 8 -8 18
-14 21 -14 4 0 73 -39 155 -86 140 -82 178 -104 234 -136 13 -7 26 -15 29 -18
3 -3 23 -14 45 -26 60 -31 119 -65 131 -75 12 -10 12 -659 0 -714 -3 -16 -22
-62 -41 -102 -80 -164 -246 -261 -430 -253 -129 5 -259 4 -315 -3 -67 -8 -187
-39 -218 -56 -12 -6 -22 -9 -22 -6 0 9 -142 -65 -215 -113 -140 -92 -295 -271
-369 -426 -31 -65 -65 -157 -72 -196 -3 -14 -8 -34 -11 -45 -12 -37 -24 -146
-25 -235 -1 -38 11 -156 17 -180 2 -8 7 -30 10 -49 22 -127 114 -321 210 -441
60 -74 211 -210 234 -210 6 0 11 -4 11 -9 0 -5 9 -13 20 -16 11 -3 26 -12 32
-19 28 -27 221 -106 294 -121 149 -30 321 -36 424 -15 30 6 66 14 80 16 105
21 310 116 368 171 7 7 17 13 22 13 17 0 188 177 232 240 143 203 197 379 204
655 3 94 7 176 9 183 2 6 1 12 -3 12 -8 0 -6 94 2 116 3 8 2 14 -2 14 -8 0 -6
175 2 197 3 7 2 13 -2 13 -8 0 -7 763 2 785 3 8 2 15 -2 15 -4 0 -5 32 -2 70
3 39 3 70 0 70 -6 0 -3 98 4 116 3 8 2 14 -2 14 -8 0 -6 159 2 167 3 4 2 11
-2 17 -5 6 -6 23 -3 39 l6 27 150 -86 c83 -47 192 -111 242 -140 51 -30 96
-55 100 -55 5 0 15 -6 23 -12 8 -7 26 -18 40 -26 67 -39 399 -231 430 -250 19
-11 42 -24 50 -28 8 -4 55 -31 104 -60 49 -29 90 -53 92 -53 2 0 33 -18 69
-40 36 -22 70 -40 75 -40 6 0 10 -5 10 -12 0 -6 3 -9 6 -6 3 4 21 -3 39 -15
18 -12 57 -37 87 -55 93 -57 188 -157 240 -252 28 -51 65 -147 73 -187 3 -16
7 -39 10 -53 12 -60 6 -217 -10 -280 -24 -91 -67 -186 -113 -250 -23 -32 -127
-136 -165 -167 -9 -7 -33 -22 -54 -34 -21 -12 -42 -25 -48 -29 -5 -4 -30 -19
-55 -32 -25 -14 -73 -42 -107 -62 -34 -20 -66 -36 -72 -36 -6 0 -11 -4 -11 -9
0 -5 -15 -14 -32 -22 -18 -7 -35 -15 -38 -19 -3 -3 -68 -41 -145 -85 -77 -44
-141 -83 -143 -87 -2 -4 -7 -8 -12 -8 -7 0 -102 -53 -240 -134 -25 -14 -49
-26 -53 -26 -5 0 -7 64 -5 143 4 164 13 192 88 266 58 57 124 82 211 81 195
-4 215 -2 325 35 85 28 158 70 214 122 19 18 38 33 41 33 10 0 94 111 121 160
148 268 91 608 -138 824 -174 165 -463 224 -684 139 -8 -3 -21 -7 -28 -9 -35
-7 -159 -92 -215 -147 -74 -74 -150 -185 -161 -237 -2 -8 -6 -22 -9 -30 -38
-99 -39 -130 -39 -853 0 -605 -2 -684 -15 -699 -9 -10 -20 -18 -24 -18 -4 0
-53 -27 -109 -60 -56 -33 -104 -60 -107 -60 -3 0 -25 -14 -50 -30 -24 -17 -46
-30 -48 -30 -3 0 -39 -20 -81 -45 -41 -25 -80 -45 -85 -45 -5 0 -9 -4 -9 -10
0 -5 -5 -10 -11 -10 -10 0 -111 -56 -189 -105 -32 -20 -481 -279 -560 -323
-44 -24 -190 -109 -210 -122 -24 -15 -152 -76 -185 -88 -43 -16 -148 -33 -208
-34 -253 -5 -504 137 -633 356 -41 69 -84 190 -92 261 -3 27 -6 804 -6 1725 1
1842 -3 1733 61 1868 128 274 390 436 691 426 46 -2 92 -6 102 -9z m2840
-1922 c40 -27 84 -77 112 -129 85 -158 62 -303 -40 -250 -61 32 -142 145 -167
232 -34 122 17 200 95 147z m-3211 -788 c146 -75 308 -377 295 -547 -16 -204
-204 -151 -356 99 -21 35 -38 65 -38 68 0 3 -9 24 -20 48 -39 85 -58 210 -41
275 21 77 81 99 160 57z"/>
</g>
</svg>
